<svg width="516" height="316" viewBox="0 0 516 316" fill="none" xmlns="http://www.w3.org/2000/svg">
<path d="M68 158L258 158" stroke="#E0E0D9" stroke-width="3"></path>
<path d="M63 182C76.2548 182 87 171.255 87 158C87 144.745 76.2548 134 63 134C49.7452 134 39 144.745 39 158C39 171.255 49.7452 182 63 182Z" fill="#008060"></path>
<path d="M64.6426 146H61.6426V169.865H64.6426V146Z" fill="white"></path>
<path d="M51 156.545V159.545H74.8655V156.545H51Z" fill="white"></path>
<path d="M238 70H163C158.582 70 155 73.5817 155 78V237C155 241.418 158.582 245 163 245H238" stroke="#E0E0D9" stroke-width="3"></path>
<g filter="url(#filter0_i_220_66156)">
<rect x="223" y="31" width="254" height="254" rx="12" fill="#F6F6F2"></rect>
</g>
<path d="M191 122H119V194H191V122Z" fill="#151515"></path>
<mask id="mask0_220_66156" style="mask-type:luminance" maskUnits="userSpaceOnUse" x="137" y="140" width="36" height="36">
<path d="M173 140H137V176H173V140Z" fill="white"></path>
</mask>
<g mask="url(#mask0_220_66156)">
<path d="M155 151.531L173 145.625V140H137V145.625L155 151.531Z" fill="white"></path>
<path d="M137 150.969V176H145.437V153.782L137 150.969Z" fill="white"></path>
<path d="M173.001 150.969V176H164.563V153.782L173.001 150.969Z" fill="white"></path>
<path d="M159.218 155.468L157.277 156.116C156.432 156.397 156.01 156.538 155.578 156.594C155.194 156.644 154.805 156.644 154.422 156.594C153.99 156.538 153.568 156.397 152.723 156.116L150.781 155.468V176H159.218V155.468Z" fill="white"></path>
</g>
<rect x="239" y="47" width="107" height="107" rx="2" fill="white"></rect>
<path d="M263.336 124.107C262.634 124.107 262.007 123.944 261.456 123.619C260.905 123.293 260.47 122.824 260.151 122.211C259.832 121.599 259.673 120.863 259.673 120.004C259.673 119.141 259.832 118.403 260.151 117.791C260.473 117.175 260.91 116.704 261.461 116.378C262.016 116.053 262.641 115.89 263.336 115.89C263.773 115.89 264.181 115.952 264.561 116.078C264.944 116.199 265.284 116.38 265.581 116.62C265.882 116.856 266.129 117.146 266.322 117.49C266.516 117.834 266.645 118.224 266.709 118.661H265.264C265.218 118.421 265.137 118.21 265.022 118.027C264.911 117.845 264.772 117.691 264.604 117.565C264.435 117.437 264.245 117.34 264.034 117.275C263.823 117.207 263.597 117.173 263.357 117.173C262.921 117.173 262.532 117.284 262.192 117.506C261.855 117.725 261.59 118.045 261.397 118.468C261.207 118.887 261.112 119.399 261.112 120.004C261.112 120.616 261.209 121.132 261.402 121.551C261.596 121.97 261.861 122.287 262.197 122.501C262.537 122.716 262.922 122.824 263.352 122.824C263.592 122.824 263.818 122.792 264.029 122.727C264.24 122.659 264.43 122.562 264.598 122.437C264.77 122.308 264.913 122.152 265.028 121.97C265.142 121.784 265.221 121.572 265.264 121.336H266.714C266.661 121.719 266.542 122.079 266.36 122.416C266.181 122.749 265.944 123.042 265.651 123.296C265.357 123.551 265.015 123.749 264.625 123.893C264.238 124.036 263.809 124.107 263.336 124.107ZM270.576 124.124C269.993 124.124 269.486 123.995 269.056 123.737C268.626 123.475 268.293 123.114 268.057 122.652C267.824 122.186 267.708 121.646 267.708 121.03C267.708 120.407 267.824 119.862 268.057 119.397C268.293 118.928 268.626 118.564 269.056 118.307C269.486 118.049 269.993 117.92 270.576 117.92C271.163 117.92 271.672 118.049 272.102 118.307C272.531 118.564 272.862 118.928 273.095 119.397C273.332 119.862 273.45 120.407 273.45 121.03C273.45 121.646 273.332 122.186 273.095 122.652C272.862 123.114 272.531 123.475 272.102 123.737C271.672 123.995 271.163 124.124 270.576 124.124ZM270.576 122.99C270.902 122.99 271.172 122.903 271.387 122.727C271.606 122.552 271.767 122.315 271.871 122.018C271.978 121.721 272.032 121.39 272.032 121.024C272.032 120.656 271.978 120.323 271.871 120.025C271.767 119.728 271.606 119.492 271.387 119.316C271.172 119.141 270.902 119.053 270.576 119.053C270.25 119.053 269.98 119.141 269.765 119.316C269.554 119.492 269.395 119.728 269.287 120.025C269.183 120.319 269.131 120.652 269.131 121.024C269.131 121.39 269.183 121.721 269.287 122.018C269.395 122.315 269.554 122.552 269.765 122.727C269.98 122.903 270.25 122.99 270.576 122.99ZM274.674 126.245V117.995H276.039V118.989H276.13C276.201 118.846 276.304 118.692 276.436 118.527C276.569 118.362 276.748 118.221 276.973 118.103C277.202 117.981 277.494 117.92 277.849 117.92C278.314 117.92 278.733 118.038 279.105 118.274C279.478 118.511 279.773 118.86 279.992 119.322C280.214 119.78 280.325 120.342 280.325 121.008C280.325 121.667 280.217 122.228 280.002 122.689C279.788 123.151 279.492 123.504 279.116 123.748C278.744 123.987 278.319 124.107 277.843 124.107C277.503 124.107 277.218 124.05 276.989 123.936C276.76 123.817 276.577 123.676 276.441 123.511C276.305 123.347 276.201 123.193 276.13 123.049H276.071V126.245H274.674ZM277.467 122.958C277.779 122.958 278.04 122.874 278.251 122.706C278.463 122.534 278.622 122.301 278.729 122.007C278.837 121.71 278.891 121.375 278.891 121.003C278.891 120.631 278.837 120.299 278.729 120.009C278.626 119.716 278.468 119.486 278.257 119.322C278.046 119.153 277.782 119.069 277.467 119.069C277.159 119.069 276.9 119.15 276.688 119.311C276.477 119.472 276.316 119.698 276.205 119.988C276.098 120.274 276.044 120.613 276.044 121.003C276.044 121.393 276.098 121.735 276.205 122.029C276.316 122.322 276.477 122.552 276.688 122.716C276.903 122.877 277.163 122.958 277.467 122.958ZM281.539 126.245V117.995H282.903V118.989H282.994C283.066 118.846 283.168 118.692 283.3 118.527C283.433 118.362 283.612 118.221 283.837 118.103C284.067 117.981 284.358 117.92 284.713 117.92C285.178 117.92 285.597 118.038 285.97 118.274C286.342 118.511 286.638 118.86 286.856 119.322C287.078 119.78 287.189 120.342 287.189 121.008C287.189 121.667 287.082 122.228 286.867 122.689C286.652 123.151 286.356 123.504 285.98 123.748C285.608 123.987 285.184 124.107 284.708 124.107C284.367 124.107 284.083 124.05 283.854 123.936C283.624 123.817 283.442 123.676 283.306 123.511C283.17 123.347 283.066 123.193 282.994 123.049H282.935V126.245H281.539ZM284.332 122.958C284.643 122.958 284.904 122.874 285.116 122.706C285.327 122.534 285.486 122.301 285.594 122.007C285.701 121.71 285.755 121.375 285.755 121.003C285.755 120.631 285.701 120.299 285.594 120.009C285.49 119.716 285.332 119.486 285.121 119.322C284.91 119.153 284.647 119.069 284.332 119.069C284.024 119.069 283.764 119.15 283.553 119.311C283.341 119.472 283.18 119.698 283.069 119.988C282.962 120.274 282.908 120.613 282.908 121.003C282.908 121.393 282.962 121.735 283.069 122.029C283.18 122.322 283.341 122.552 283.553 122.716C283.768 122.877 284.027 122.958 284.332 122.958ZM291.056 124.124C290.451 124.124 289.93 123.996 289.493 123.742C289.06 123.488 288.725 123.13 288.489 122.668C288.256 122.206 288.14 121.662 288.14 121.035C288.14 120.416 288.254 119.873 288.483 119.408C288.716 118.942 289.044 118.579 289.466 118.317C289.892 118.052 290.392 117.92 290.965 117.92C291.33 117.92 291.677 117.979 292.007 118.097C292.34 118.215 292.633 118.398 292.888 118.645C293.146 118.892 293.346 119.207 293.489 119.59C293.636 119.97 293.709 120.423 293.709 120.949V121.39H288.8V120.439H293.017L292.361 120.718C292.361 120.382 292.309 120.086 292.206 119.832C292.102 119.574 291.946 119.374 291.738 119.23C291.534 119.087 291.278 119.016 290.97 119.016C290.662 119.016 290.401 119.089 290.186 119.236C289.971 119.379 289.806 119.572 289.692 119.816C289.581 120.056 289.525 120.324 289.525 120.622V121.277C289.525 121.656 289.59 121.977 289.719 122.238C289.848 122.5 290.028 122.697 290.261 122.829C290.494 122.962 290.764 123.028 291.072 123.028C291.276 123.028 291.461 122.999 291.625 122.942C291.794 122.881 291.939 122.793 292.061 122.679C292.182 122.561 292.274 122.417 292.334 122.249L293.618 122.512C293.521 122.834 293.357 123.117 293.124 123.361C292.891 123.601 292.599 123.789 292.249 123.925C291.901 124.057 291.504 124.124 291.056 124.124ZM294.913 124V117.995H296.266V119H296.331C296.438 118.652 296.626 118.385 296.895 118.199C297.163 118.009 297.469 117.915 297.813 117.915C297.892 117.915 297.979 117.918 298.076 117.925C298.173 117.932 298.255 117.941 298.323 117.952V119.236C298.266 119.218 298.173 119.202 298.044 119.188C297.915 119.173 297.788 119.166 297.663 119.166C297.405 119.166 297.172 119.222 296.964 119.333C296.76 119.444 296.599 119.597 296.481 119.794C296.366 119.988 296.309 120.212 296.309 120.466V124H294.913ZM302.121 124V115.997H305.182C305.759 115.997 306.238 116.088 306.622 116.271C307.005 116.454 307.291 116.701 307.481 117.012C307.671 117.324 307.766 117.678 307.766 118.076C307.766 118.402 307.703 118.681 307.578 118.914C307.452 119.143 307.284 119.329 307.073 119.472C306.865 119.615 306.631 119.717 306.369 119.778V119.859C306.652 119.873 306.924 119.959 307.186 120.117C307.447 120.274 307.66 120.496 307.825 120.783C307.993 121.069 308.077 121.415 308.077 121.819C308.077 122.235 307.977 122.607 307.776 122.937C307.576 123.266 307.273 123.526 306.869 123.715C306.468 123.905 305.961 124 305.349 124H302.121ZM303.555 122.802H305.123C305.653 122.802 306.034 122.7 306.267 122.496C306.503 122.292 306.622 122.031 306.622 121.712C306.622 121.472 306.562 121.257 306.444 121.067C306.326 120.874 306.158 120.722 305.939 120.611C305.725 120.5 305.469 120.444 305.171 120.444H303.555V122.802ZM303.555 119.408H305C305.254 119.408 305.481 119.361 305.682 119.268C305.882 119.175 306.04 119.042 306.154 118.871C306.272 118.699 306.332 118.495 306.332 118.258C306.332 117.947 306.222 117.691 306.004 117.49C305.785 117.29 305.461 117.189 305.032 117.189H303.555V119.408ZM310.983 124.124C310.603 124.124 310.261 124.056 309.957 123.919C309.653 123.78 309.413 123.576 309.237 123.307C309.062 123.039 308.974 122.707 308.974 122.313C308.974 121.973 309.037 121.692 309.162 121.47C309.291 121.248 309.463 121.071 309.678 120.938C309.896 120.806 310.141 120.706 310.414 120.638C310.686 120.57 310.969 120.521 311.262 120.493C311.61 120.453 311.892 120.419 312.111 120.391C312.329 120.362 312.489 120.315 312.589 120.251C312.693 120.187 312.745 120.086 312.745 119.95V119.923C312.745 119.726 312.705 119.56 312.626 119.424C312.548 119.284 312.43 119.179 312.272 119.107C312.118 119.032 311.926 118.994 311.697 118.994C311.465 118.994 311.262 119.03 311.09 119.102C310.922 119.173 310.784 119.266 310.677 119.381C310.569 119.495 310.491 119.619 310.44 119.751L309.146 119.488C309.264 119.134 309.447 118.842 309.694 118.613C309.941 118.38 310.235 118.206 310.575 118.092C310.918 117.977 311.291 117.92 311.692 117.92C311.975 117.92 312.259 117.954 312.546 118.022C312.836 118.086 313.101 118.197 313.341 118.355C313.581 118.513 313.774 118.724 313.921 118.989C314.068 119.254 314.141 119.587 314.141 119.988V124H312.804V123.173H312.75C312.66 123.341 312.537 123.499 312.379 123.646C312.225 123.789 312.032 123.905 311.799 123.995C311.57 124.081 311.298 124.124 310.983 124.124ZM311.343 123.087C311.633 123.087 311.882 123.03 312.089 122.915C312.301 122.8 312.464 122.65 312.578 122.464C312.696 122.274 312.755 122.068 312.755 121.846V121.137C312.709 121.173 312.63 121.207 312.519 121.239C312.412 121.271 312.29 121.3 312.154 121.325C312.021 121.35 311.889 121.372 311.756 121.39C311.627 121.408 311.518 121.422 311.429 121.433C311.221 121.461 311.033 121.508 310.865 121.572C310.696 121.637 310.564 121.728 310.467 121.846C310.374 121.961 310.328 122.111 310.328 122.297C310.328 122.469 310.371 122.614 310.457 122.732C310.546 122.847 310.666 122.935 310.816 122.996C310.97 123.056 311.146 123.087 311.343 123.087ZM317.02 120.482V124H315.624V117.995H316.945L316.966 119.478H316.854C317.022 118.958 317.269 118.57 317.595 118.312C317.921 118.051 318.329 117.92 318.819 117.92C319.231 117.92 319.591 118.008 319.899 118.183C320.207 118.359 320.445 118.615 320.613 118.951C320.785 119.288 320.871 119.698 320.871 120.181V124H319.475V120.396C319.475 119.995 319.371 119.68 319.163 119.451C318.955 119.222 318.669 119.107 318.304 119.107C318.057 119.107 317.836 119.161 317.643 119.268C317.45 119.375 317.298 119.533 317.187 119.741C317.076 119.945 317.02 120.192 317.02 120.482ZM323.637 122.109V120.417H323.857L326.022 117.995H327.66L325.007 120.955H324.717L323.637 122.109ZM322.359 124V115.997H323.755V124H322.359ZM326.124 124L324.158 121.266L325.104 120.278L327.8 124H326.124Z" fill="black"></path>
<path d="M266.048 129.997V138H265.044V130.942H264.99L263.057 132.376V131.281L264.797 129.997H266.048ZM270.383 138.107C269.914 138.107 269.493 138.016 269.121 137.833C268.748 137.647 268.451 137.395 268.229 137.076C268.007 136.754 267.887 136.389 267.869 135.98H268.857C268.879 136.217 268.959 136.428 269.099 136.614C269.239 136.8 269.42 136.947 269.642 137.055C269.867 137.159 270.114 137.21 270.383 137.21C270.705 137.21 270.992 137.135 271.242 136.985C271.496 136.834 271.695 136.627 271.838 136.362C271.982 136.097 272.053 135.796 272.053 135.459C272.053 135.116 271.978 134.808 271.828 134.536C271.677 134.264 271.471 134.05 271.21 133.896C270.952 133.739 270.655 133.66 270.318 133.66C270.071 133.66 269.821 133.7 269.566 133.778C269.312 133.857 269.106 133.957 268.949 134.079L267.993 133.961L268.465 129.997H272.676V130.894H269.325L269.051 133.23H269.094C269.258 133.094 269.466 132.983 269.717 132.897C269.967 132.808 270.231 132.763 270.506 132.763C270.872 132.763 271.208 132.829 271.516 132.962C271.828 133.094 272.098 133.282 272.327 133.526C272.556 133.766 272.734 134.049 272.859 134.375C272.988 134.7 273.052 135.057 273.052 135.443C273.052 135.955 272.936 136.412 272.703 136.813C272.474 137.214 272.159 137.531 271.758 137.764C271.357 137.993 270.898 138.107 270.383 138.107ZM279.336 138.14C278.957 138.14 278.611 138.068 278.3 137.925C277.992 137.782 277.747 137.572 277.564 137.296C277.381 137.021 277.29 136.686 277.29 136.292C277.29 135.948 277.358 135.669 277.494 135.454C277.63 135.239 277.811 135.071 278.037 134.949C278.266 134.824 278.518 134.731 278.794 134.67C279.07 134.609 279.347 134.561 279.626 134.525C279.985 134.478 280.276 134.443 280.502 134.417C280.728 134.392 280.894 134.349 281.001 134.289C281.112 134.228 281.168 134.124 281.168 133.977V133.945C281.168 133.694 281.121 133.483 281.028 133.311C280.935 133.136 280.796 133.001 280.609 132.908C280.423 132.815 280.19 132.769 279.911 132.769C279.625 132.769 279.379 132.813 279.175 132.903C278.971 132.992 278.805 133.105 278.676 133.241C278.55 133.374 278.456 133.51 278.391 133.649L277.462 133.343C277.616 132.978 277.824 132.693 278.085 132.489C278.346 132.282 278.635 132.135 278.95 132.049C279.265 131.963 279.576 131.92 279.884 131.92C280.085 131.92 280.312 131.945 280.566 131.995C280.824 132.042 281.071 132.137 281.308 132.28C281.548 132.423 281.744 132.636 281.898 132.919C282.056 133.198 282.135 133.572 282.135 134.042V138H281.184V137.184H281.12C281.052 137.323 280.942 137.468 280.792 137.619C280.642 137.765 280.446 137.889 280.207 137.989C279.967 138.09 279.677 138.14 279.336 138.14ZM279.503 137.286C279.861 137.286 280.164 137.216 280.411 137.076C280.658 136.937 280.846 136.756 280.975 136.534C281.104 136.308 281.168 136.074 281.168 135.83V134.998C281.129 135.044 281.043 135.087 280.91 135.126C280.778 135.162 280.625 135.194 280.454 135.223C280.285 135.252 280.121 135.277 279.959 135.298C279.802 135.316 279.677 135.331 279.583 135.341C279.351 135.37 279.132 135.42 278.928 135.492C278.728 135.56 278.567 135.662 278.445 135.798C278.323 135.93 278.262 136.111 278.262 136.34C278.262 136.548 278.316 136.722 278.423 136.861C278.531 137.001 278.678 137.107 278.864 137.178C279.05 137.25 279.263 137.286 279.503 137.286ZM286.276 138.129C285.732 138.129 285.254 138 284.842 137.742C284.434 137.484 284.115 137.123 283.886 136.657C283.657 136.192 283.542 135.651 283.542 135.035C283.542 134.409 283.657 133.862 283.886 133.397C284.115 132.928 284.434 132.564 284.842 132.307C285.254 132.049 285.732 131.92 286.276 131.92C286.566 131.92 286.84 131.958 287.098 132.033C287.355 132.108 287.59 132.217 287.801 132.36C288.016 132.5 288.201 132.674 288.354 132.881C288.508 133.085 288.627 133.318 288.709 133.58L287.78 133.843C287.737 133.689 287.671 133.547 287.581 133.418C287.492 133.29 287.382 133.179 287.253 133.085C287.128 132.989 286.983 132.915 286.818 132.865C286.654 132.812 286.473 132.785 286.276 132.785C285.875 132.785 285.545 132.89 285.288 133.102C285.03 133.309 284.838 133.583 284.713 133.923C284.588 134.264 284.525 134.634 284.525 135.035C284.525 135.429 284.588 135.796 284.713 136.136C284.838 136.473 285.03 136.745 285.288 136.953C285.545 137.16 285.875 137.264 286.276 137.264C286.476 137.264 286.661 137.237 286.829 137.184C286.997 137.13 287.146 137.055 287.275 136.958C287.407 136.858 287.518 136.74 287.608 136.604C287.697 136.467 287.764 136.319 287.807 136.158L288.73 136.421C288.652 136.689 288.534 136.929 288.376 137.141C288.222 137.348 288.038 137.527 287.823 137.678C287.608 137.825 287.37 137.936 287.108 138.011C286.847 138.09 286.569 138.129 286.276 138.129ZM292.56 138.129C292.016 138.129 291.538 138 291.126 137.742C290.718 137.484 290.399 137.123 290.17 136.657C289.941 136.192 289.826 135.651 289.826 135.035C289.826 134.409 289.941 133.862 290.17 133.397C290.399 132.928 290.718 132.564 291.126 132.307C291.538 132.049 292.016 131.92 292.56 131.92C292.85 131.92 293.124 131.958 293.382 132.033C293.64 132.108 293.874 132.217 294.085 132.36C294.3 132.5 294.485 132.674 294.639 132.881C294.793 133.085 294.911 133.318 294.993 133.58L294.064 133.843C294.021 133.689 293.955 133.547 293.865 133.418C293.776 133.29 293.667 133.179 293.538 133.085C293.412 132.989 293.267 132.915 293.103 132.865C292.938 132.812 292.757 132.785 292.56 132.785C292.159 132.785 291.83 132.89 291.572 133.102C291.314 133.309 291.122 133.583 290.997 133.923C290.872 134.264 290.809 134.634 290.809 135.035C290.809 135.429 290.872 135.796 290.997 136.136C291.122 136.473 291.314 136.745 291.572 136.953C291.83 137.16 292.159 137.264 292.56 137.264C292.761 137.264 292.945 137.237 293.113 137.184C293.282 137.13 293.43 137.055 293.559 136.958C293.692 136.858 293.803 136.74 293.892 136.604C293.982 136.467 294.048 136.319 294.091 136.158L295.015 136.421C294.936 136.689 294.818 136.929 294.66 137.141C294.506 137.348 294.322 137.527 294.107 137.678C293.892 137.825 293.654 137.936 293.393 138.011C293.131 138.09 292.854 138.129 292.56 138.129ZM298.844 138.129C298.3 138.129 297.822 138 297.41 137.742C297.002 137.484 296.683 137.123 296.454 136.657C296.225 136.192 296.11 135.651 296.11 135.035C296.11 134.409 296.225 133.862 296.454 133.397C296.683 132.928 297.002 132.564 297.41 132.307C297.822 132.049 298.3 131.92 298.844 131.92C299.392 131.92 299.872 132.049 300.284 132.307C300.695 132.564 301.016 132.928 301.245 133.397C301.474 133.862 301.589 134.409 301.589 135.035C301.589 135.651 301.474 136.192 301.245 136.657C301.016 137.123 300.695 137.484 300.284 137.742C299.872 138 299.392 138.129 298.844 138.129ZM298.844 137.264C299.249 137.264 299.582 137.16 299.843 136.953C300.105 136.745 300.298 136.473 300.423 136.136C300.549 135.796 300.611 135.429 300.611 135.035C300.611 134.638 300.549 134.269 300.423 133.929C300.298 133.585 300.105 133.309 299.843 133.102C299.582 132.89 299.249 132.785 298.844 132.785C298.443 132.785 298.114 132.89 297.856 133.102C297.598 133.309 297.407 133.583 297.281 133.923C297.156 134.264 297.093 134.634 297.093 135.035C297.093 135.429 297.156 135.796 297.281 136.136C297.407 136.473 297.598 136.745 297.856 136.953C298.114 137.16 298.443 137.264 298.844 137.264ZM305.032 138.075C304.627 138.075 304.271 137.993 303.963 137.828C303.659 137.66 303.42 137.407 303.249 137.071C303.08 136.734 302.996 136.313 302.996 135.809V131.995H303.963V135.728C303.963 136.19 304.085 136.552 304.328 136.813C304.572 137.074 304.903 137.205 305.322 137.205C305.608 137.205 305.864 137.142 306.09 137.017C306.319 136.892 306.5 136.709 306.632 136.469C306.765 136.226 306.831 135.934 306.831 135.594V131.995H307.803V138H306.869V136.544H306.998C306.811 137.107 306.546 137.502 306.203 137.731C305.862 137.961 305.472 138.075 305.032 138.075ZM310.473 134.401V138H309.506V131.995H310.435L310.44 133.451H310.306C310.489 132.896 310.748 132.502 311.085 132.269C311.425 132.036 311.823 131.92 312.277 131.92C312.682 131.92 313.036 132.004 313.341 132.172C313.645 132.337 313.882 132.588 314.05 132.924C314.222 133.257 314.308 133.678 314.308 134.187V138H313.341V134.267C313.341 133.805 313.219 133.444 312.976 133.182C312.736 132.921 312.406 132.79 311.987 132.79C311.701 132.79 311.443 132.853 311.214 132.978C310.985 133.103 310.804 133.286 310.671 133.526C310.539 133.766 310.473 134.058 310.473 134.401ZM318.368 131.995V132.822H315.264V131.995H318.368ZM316.166 130.566H317.133V136.442C317.133 136.711 317.187 136.908 317.294 137.033C317.405 137.155 317.588 137.216 317.842 137.216C317.903 137.216 317.98 137.209 318.073 137.194C318.169 137.18 318.257 137.166 318.336 137.151L318.535 137.968C318.434 138.004 318.32 138.03 318.191 138.048C318.066 138.066 317.94 138.075 317.815 138.075C317.296 138.075 316.891 137.939 316.601 137.667C316.311 137.391 316.166 137.008 316.166 136.518V130.566ZM321.537 138.129C321.125 138.129 320.758 138.07 320.436 137.952C320.117 137.83 319.854 137.651 319.646 137.415C319.439 137.178 319.299 136.888 319.228 136.544L320.146 136.324C320.232 136.654 320.393 136.895 320.629 137.049C320.869 137.203 321.168 137.28 321.526 137.28C321.945 137.28 322.278 137.191 322.525 137.012C322.776 136.833 322.901 136.62 322.901 136.373C322.901 136.165 322.828 135.993 322.681 135.857C322.538 135.717 322.318 135.613 322.021 135.545L321.021 135.309C320.477 135.18 320.073 134.981 319.808 134.713C319.543 134.441 319.41 134.093 319.41 133.671C319.41 133.327 319.507 133.025 319.7 132.763C319.894 132.498 320.157 132.292 320.49 132.146C320.826 131.995 321.208 131.92 321.634 131.92C322.046 131.92 322.395 131.983 322.681 132.108C322.971 132.23 323.206 132.4 323.385 132.618C323.567 132.833 323.703 133.082 323.793 133.365L322.917 133.59C322.835 133.375 322.697 133.18 322.504 133.005C322.314 132.829 322.026 132.742 321.639 132.742C321.281 132.742 320.982 132.824 320.742 132.989C320.506 133.153 320.388 133.361 320.388 133.612C320.388 133.834 320.468 134.013 320.629 134.149C320.791 134.281 321.047 134.389 321.397 134.471L322.305 134.686C322.849 134.815 323.252 135.015 323.514 135.288C323.775 135.556 323.906 135.896 323.906 136.308C323.906 136.659 323.806 136.972 323.605 137.248C323.408 137.52 323.131 137.735 322.772 137.893C322.418 138.05 322.006 138.129 321.537 138.129Z" fill="black" fill-opacity="0.5"></path>
<rect x="354" y="47" width="107" height="107" rx="2" fill="white"></rect>
<rect x="275" y="66" width="36" height="36" rx="2" fill="#D09A66"></rect>
<path d="M303 92.5713H283V93.9999H303V92.5713Z" fill="black"></path>
<path d="M300.857 80.4283C301.047 80.4283 301.229 80.3532 301.362 80.2188C301.496 80.0849 301.571 79.9035 301.571 79.714V77.571C301.571 77.4244 301.526 77.281 301.442 77.1607C301.357 77.0408 301.238 76.9494 301.1 76.8997L293.243 74.0424C293.086 73.9859 292.914 73.9859 292.757 74.0424L284.9 76.8997C284.762 76.9494 284.643 77.0408 284.558 77.1607C284.474 77.281 284.429 77.4244 284.429 77.571V79.714C284.429 79.9035 284.504 80.0849 284.638 80.2188C284.772 80.3532 284.953 80.4283 285.143 80.4283H285.857V89.714H284.429V91.1426H301.571V89.714H300.143V80.4283H300.857ZM285.857 78.0709L293 75.471L300.143 78.0709V78.9996H285.857V78.0709ZM294.429 89.714H291.571V80.4283H294.429V89.714ZM287.286 80.4283H290.143V89.714H287.286V80.4283ZM298.715 89.714H295.857V80.4283H298.715V89.714Z" fill="black"></path>
<rect x="239" y="162" width="107" height="107" rx="2" fill="white"></rect>
<rect x="354" y="162" width="107" height="107" rx="2" fill="white"></rect>
<path d="M257.213 237V228.997H258.647V232.306H262.369V228.997H263.803V237H262.369V233.514H258.647V237H257.213ZM265.355 237V230.995H266.752V237H265.355ZM266.054 230.146C265.832 230.146 265.64 230.071 265.479 229.921C265.321 229.771 265.243 229.591 265.243 229.384C265.243 229.169 265.321 228.988 265.479 228.841C265.64 228.691 265.832 228.616 266.054 228.616C266.279 228.616 266.471 228.691 266.628 228.841C266.79 228.988 266.87 229.169 266.87 229.384C266.87 229.591 266.79 229.771 266.628 229.921C266.471 230.071 266.279 230.146 266.054 230.146ZM270.823 239.374C270.343 239.374 269.924 239.313 269.566 239.191C269.212 239.07 268.92 238.903 268.691 238.692C268.465 238.484 268.302 238.248 268.202 237.983L269.384 237.559C269.448 237.67 269.536 237.784 269.647 237.902C269.762 238.021 269.912 238.117 270.098 238.192C270.288 238.271 270.528 238.311 270.818 238.311C271.251 238.311 271.598 238.208 271.86 238.004C272.121 237.804 272.252 237.489 272.252 237.059V235.926H272.134C272.066 236.069 271.965 236.218 271.833 236.372C271.701 236.522 271.521 236.649 271.296 236.753C271.074 236.857 270.789 236.909 270.442 236.909C269.984 236.909 269.566 236.801 269.19 236.586C268.818 236.368 268.521 236.042 268.299 235.609C268.08 235.176 267.971 234.633 267.971 233.981C267.971 233.323 268.082 232.766 268.304 232.311C268.526 231.856 268.823 231.511 269.196 231.274C269.572 231.038 269.991 230.92 270.453 230.92C270.807 230.92 271.099 230.979 271.328 231.097C271.557 231.215 271.74 231.359 271.876 231.527C272.012 231.692 272.116 231.846 272.188 231.989H272.263V230.995H273.632V237.016C273.632 237.55 273.511 237.99 273.267 238.337C273.024 238.688 272.691 238.948 272.268 239.116C271.846 239.288 271.364 239.374 270.823 239.374ZM270.834 235.808C271.138 235.808 271.396 235.736 271.607 235.593C271.819 235.446 271.98 235.235 272.091 234.959C272.202 234.683 272.257 234.354 272.257 233.971C272.257 233.591 272.202 233.26 272.091 232.977C271.983 232.691 271.824 232.469 271.613 232.311C271.402 232.15 271.142 232.069 270.834 232.069C270.519 232.069 270.254 232.153 270.039 232.322C269.828 232.486 269.668 232.712 269.561 232.999C269.454 233.281 269.4 233.605 269.4 233.971C269.4 234.34 269.454 234.662 269.561 234.938C269.672 235.213 269.833 235.428 270.044 235.582C270.259 235.732 270.522 235.808 270.834 235.808ZM276.517 233.482V237H275.12V228.997H276.495V232.478H276.35C276.518 231.958 276.765 231.57 277.091 231.312C277.417 231.051 277.825 230.92 278.316 230.92C278.728 230.92 279.088 231.008 279.396 231.183C279.707 231.359 279.947 231.615 280.115 231.951C280.287 232.288 280.373 232.698 280.373 233.181V237H278.971V233.396C278.971 232.995 278.867 232.68 278.66 232.451C278.452 232.222 278.166 232.107 277.8 232.107C277.553 232.107 277.333 232.161 277.14 232.268C276.946 232.375 276.794 232.533 276.683 232.741C276.572 232.945 276.517 233.192 276.517 233.482ZM284.632 230.995V232.091H281.222V230.995H284.632ZM282.076 229.566H283.472V235.308C283.472 235.527 283.519 235.688 283.612 235.792C283.705 235.892 283.857 235.942 284.068 235.942C284.133 235.942 284.217 235.935 284.321 235.92C284.428 235.903 284.514 235.886 284.579 235.872L284.799 236.952C284.645 236.998 284.487 237.03 284.326 237.048C284.165 237.07 284.011 237.081 283.864 237.081C283.288 237.081 282.846 236.937 282.538 236.651C282.23 236.364 282.076 235.956 282.076 235.426V229.566ZM285.744 237V230.995H287.141V237H285.744ZM286.442 230.146C286.22 230.146 286.029 230.071 285.868 229.921C285.71 229.771 285.631 229.591 285.631 229.384C285.631 229.169 285.71 228.988 285.868 228.841C286.029 228.691 286.22 228.616 286.442 228.616C286.668 228.616 286.86 228.691 287.017 228.841C287.178 228.988 287.259 229.169 287.259 229.384C287.259 229.591 287.178 229.771 287.017 229.921C286.86 230.071 286.668 230.146 286.442 230.146ZM290.836 237.107C290.363 237.107 289.939 236.987 289.563 236.748C289.191 236.504 288.897 236.151 288.682 235.689C288.467 235.228 288.36 234.667 288.36 234.008C288.36 233.342 288.469 232.78 288.688 232.322C288.91 231.86 289.207 231.511 289.579 231.274C289.955 231.038 290.372 230.92 290.831 230.92C291.189 230.92 291.48 230.981 291.706 231.103C291.935 231.221 292.116 231.362 292.249 231.527C292.385 231.692 292.487 231.846 292.555 231.989H292.614V228.997H294.01V237H292.641V236.049H292.555C292.483 236.193 292.377 236.347 292.238 236.511C292.102 236.676 291.921 236.817 291.695 236.936C291.47 237.05 291.183 237.107 290.836 237.107ZM291.217 235.958C291.522 235.958 291.779 235.877 291.991 235.716C292.202 235.552 292.363 235.322 292.474 235.029C292.585 234.735 292.641 234.393 292.641 234.003C292.641 233.613 292.585 233.274 292.474 232.988C292.367 232.698 292.206 232.472 291.991 232.311C291.779 232.15 291.522 232.069 291.217 232.069C290.902 232.069 290.639 232.153 290.428 232.322C290.216 232.486 290.057 232.716 289.95 233.009C289.842 233.299 289.789 233.631 289.789 234.003C289.789 234.375 289.842 234.71 289.95 235.007C290.057 235.301 290.216 235.534 290.428 235.706C290.643 235.874 290.906 235.958 291.217 235.958ZM298.141 237.124C297.535 237.124 297.014 236.996 296.578 236.742C296.144 236.488 295.81 236.13 295.573 235.668C295.34 235.206 295.224 234.662 295.224 234.035C295.224 233.416 295.339 232.873 295.568 232.408C295.801 231.942 296.128 231.579 296.551 231.317C296.977 231.052 297.476 230.92 298.049 230.92C298.415 230.92 298.762 230.979 299.091 231.097C299.424 231.215 299.718 231.398 299.972 231.645C300.23 231.892 300.431 232.207 300.574 232.59C300.721 232.97 300.794 233.423 300.794 233.949V234.39H295.885V233.439H300.101L299.446 233.718C299.446 233.382 299.394 233.086 299.29 232.832C299.186 232.574 299.03 232.374 298.823 232.23C298.619 232.087 298.363 232.016 298.055 232.016C297.747 232.016 297.485 232.089 297.271 232.236C297.056 232.379 296.891 232.572 296.776 232.816C296.665 233.056 296.61 233.324 296.61 233.622V234.277C296.61 234.656 296.674 234.977 296.803 235.238C296.932 235.5 297.113 235.697 297.346 235.829C297.578 235.962 297.849 236.028 298.157 236.028C298.361 236.028 298.545 235.999 298.71 235.942C298.878 235.881 299.023 235.793 299.145 235.679C299.267 235.561 299.358 235.417 299.419 235.249L300.703 235.512C300.606 235.834 300.441 236.117 300.208 236.361C299.976 236.601 299.684 236.789 299.333 236.925C298.986 237.057 298.588 237.124 298.141 237.124ZM304.833 237V228.997H307.895C308.471 228.997 308.951 229.088 309.334 229.271C309.717 229.454 310.004 229.701 310.193 230.012C310.383 230.324 310.478 230.678 310.478 231.076C310.478 231.402 310.415 231.681 310.29 231.914C310.165 232.143 309.996 232.329 309.785 232.472C309.577 232.615 309.343 232.717 309.082 232.778V232.859C309.364 232.873 309.637 232.959 309.898 233.117C310.159 233.274 310.372 233.496 310.537 233.783C310.705 234.069 310.79 234.415 310.79 234.819C310.79 235.235 310.689 235.607 310.489 235.937C310.288 236.266 309.986 236.526 309.581 236.715C309.18 236.905 308.673 237 308.061 237H304.833ZM306.267 235.802H307.835C308.365 235.802 308.747 235.7 308.979 235.496C309.216 235.292 309.334 235.031 309.334 234.712C309.334 234.472 309.275 234.257 309.157 234.067C309.039 233.874 308.87 233.722 308.652 233.611C308.437 233.5 308.181 233.444 307.884 233.444H306.267V235.802ZM306.267 232.408H307.712C307.966 232.408 308.194 232.361 308.394 232.268C308.595 232.175 308.752 232.042 308.867 231.871C308.985 231.699 309.044 231.495 309.044 231.258C309.044 230.947 308.935 230.691 308.716 230.49C308.498 230.29 308.174 230.189 307.744 230.189H306.267V232.408ZM313.695 237.124C313.316 237.124 312.974 237.056 312.669 236.919C312.365 236.78 312.125 236.576 311.95 236.307C311.774 236.039 311.687 235.707 311.687 235.313C311.687 234.973 311.749 234.692 311.875 234.47C312.003 234.248 312.175 234.071 312.39 233.938C312.609 233.806 312.854 233.706 313.126 233.638C313.398 233.57 313.681 233.521 313.975 233.493C314.322 233.453 314.605 233.419 314.823 233.391C315.042 233.362 315.201 233.315 315.301 233.251C315.405 233.187 315.457 233.086 315.457 232.95V232.923C315.457 232.726 315.418 232.56 315.339 232.424C315.26 232.284 315.142 232.179 314.984 232.107C314.83 232.032 314.639 231.994 314.41 231.994C314.177 231.994 313.975 232.03 313.803 232.102C313.634 232.173 313.497 232.266 313.389 232.381C313.282 232.495 313.203 232.619 313.153 232.751L311.858 232.488C311.977 232.134 312.159 231.842 312.406 231.613C312.653 231.38 312.947 231.206 313.287 231.092C313.631 230.977 314.003 230.92 314.404 230.92C314.687 230.92 314.972 230.954 315.258 231.022C315.548 231.086 315.813 231.197 316.053 231.355C316.293 231.513 316.486 231.724 316.633 231.989C316.78 232.254 316.854 232.587 316.854 232.988V237H315.516V236.173H315.462C315.373 236.341 315.249 236.499 315.092 236.646C314.938 236.789 314.744 236.905 314.512 236.995C314.283 237.081 314.01 237.124 313.695 237.124ZM314.055 236.087C314.345 236.087 314.594 236.03 314.802 235.915C315.013 235.8 315.176 235.65 315.291 235.464C315.409 235.274 315.468 235.068 315.468 234.846V234.137C315.421 234.173 315.342 234.207 315.231 234.239C315.124 234.271 315.002 234.3 314.866 234.325C314.734 234.35 314.601 234.372 314.469 234.39C314.34 234.408 314.231 234.422 314.141 234.433C313.933 234.461 313.745 234.508 313.577 234.572C313.409 234.637 313.276 234.728 313.18 234.846C313.087 234.961 313.04 235.111 313.04 235.297C313.04 235.469 313.083 235.614 313.169 235.732C313.258 235.847 313.378 235.935 313.529 235.996C313.683 236.056 313.858 236.087 314.055 236.087ZM319.732 233.482V237H318.336V230.995H319.657L319.679 232.478H319.566C319.734 231.958 319.981 231.57 320.307 231.312C320.633 231.051 321.041 230.92 321.532 230.92C321.944 230.92 322.303 231.008 322.611 231.183C322.919 231.359 323.157 231.615 323.326 231.951C323.498 232.288 323.583 232.698 323.583 233.181V237H322.187V233.396C322.187 232.995 322.083 232.68 321.875 232.451C321.668 232.222 321.381 232.107 321.016 232.107C320.769 232.107 320.549 232.161 320.355 232.268C320.162 232.375 320.01 232.533 319.899 232.741C319.788 232.945 319.732 233.192 319.732 233.482ZM326.35 235.109V233.417H326.57L328.734 230.995H330.373L327.719 233.955H327.429L326.35 235.109ZM325.071 237V228.997H326.468V237H325.071ZM328.836 237L326.871 234.266L327.816 233.278L330.512 237H328.836Z" fill="black"></path>
<path d="M265.597 251V250.264L268.256 247.38C268.553 247.058 268.8 246.775 268.997 246.531C269.194 246.288 269.343 246.057 269.443 245.838C269.543 245.616 269.593 245.382 269.593 245.135C269.593 244.855 269.527 244.614 269.395 244.41C269.262 244.206 269.083 244.05 268.857 243.942C268.632 243.831 268.376 243.776 268.089 243.776C267.785 243.776 267.52 243.839 267.294 243.964C267.072 244.086 266.901 244.259 266.779 244.485C266.657 244.707 266.596 244.968 266.596 245.269H265.619C265.619 244.796 265.728 244.381 265.946 244.023C266.165 243.665 266.462 243.387 266.838 243.19C267.214 242.99 267.64 242.89 268.116 242.89C268.592 242.89 269.013 242.99 269.378 243.19C269.747 243.387 270.035 243.654 270.243 243.991C270.454 244.327 270.56 244.705 270.56 245.124C270.56 245.414 270.508 245.697 270.404 245.973C270.3 246.245 270.118 246.555 269.856 246.902C269.595 247.249 269.228 247.674 268.755 248.175L267.004 250.039V250.103H270.694V251H265.597ZM277.107 251.14C276.728 251.14 276.382 251.068 276.071 250.925C275.763 250.782 275.518 250.572 275.335 250.296C275.152 250.021 275.061 249.686 275.061 249.292C275.061 248.948 275.129 248.669 275.265 248.454C275.401 248.239 275.582 248.071 275.808 247.949C276.037 247.824 276.289 247.731 276.565 247.67C276.841 247.609 277.118 247.561 277.397 247.525C277.756 247.478 278.047 247.443 278.273 247.417C278.499 247.392 278.665 247.349 278.772 247.289C278.883 247.228 278.939 247.124 278.939 246.977V246.945C278.939 246.694 278.892 246.483 278.799 246.311C278.706 246.136 278.567 246.001 278.38 245.908C278.194 245.815 277.961 245.769 277.682 245.769C277.396 245.769 277.15 245.813 276.946 245.903C276.742 245.992 276.576 246.105 276.447 246.241C276.321 246.374 276.227 246.51 276.162 246.649L275.233 246.343C275.387 245.978 275.595 245.693 275.856 245.489C276.117 245.282 276.406 245.135 276.721 245.049C277.036 244.963 277.347 244.92 277.655 244.92C277.856 244.92 278.083 244.945 278.337 244.995C278.595 245.042 278.842 245.137 279.079 245.28C279.319 245.423 279.515 245.636 279.669 245.919C279.827 246.198 279.906 246.572 279.906 247.042V251H278.955V250.184H278.891C278.823 250.323 278.713 250.468 278.563 250.619C278.413 250.765 278.217 250.889 277.978 250.989C277.738 251.09 277.448 251.14 277.107 251.14ZM277.274 250.286C277.632 250.286 277.935 250.216 278.182 250.076C278.429 249.937 278.617 249.756 278.746 249.534C278.875 249.308 278.939 249.074 278.939 248.83V247.998C278.9 248.044 278.814 248.087 278.681 248.126C278.549 248.162 278.396 248.194 278.225 248.223C278.056 248.252 277.892 248.277 277.73 248.298C277.573 248.316 277.448 248.331 277.354 248.341C277.122 248.37 276.903 248.42 276.699 248.492C276.499 248.56 276.338 248.662 276.216 248.798C276.094 248.93 276.033 249.111 276.033 249.34C276.033 249.548 276.087 249.722 276.194 249.861C276.302 250.001 276.449 250.107 276.635 250.178C276.821 250.25 277.034 250.286 277.274 250.286ZM284.047 251.129C283.503 251.129 283.025 251 282.613 250.742C282.205 250.484 281.886 250.123 281.657 249.657C281.428 249.192 281.313 248.651 281.313 248.035C281.313 247.409 281.428 246.862 281.657 246.397C281.886 245.928 282.205 245.564 282.613 245.307C283.025 245.049 283.503 244.92 284.047 244.92C284.337 244.92 284.611 244.958 284.869 245.033C285.126 245.108 285.361 245.217 285.572 245.36C285.787 245.5 285.972 245.674 286.125 245.881C286.279 246.085 286.398 246.318 286.48 246.58L285.551 246.843C285.508 246.689 285.442 246.547 285.352 246.418C285.263 246.29 285.153 246.179 285.024 246.085C284.899 245.989 284.754 245.915 284.589 245.865C284.425 245.812 284.244 245.785 284.047 245.785C283.646 245.785 283.316 245.89 283.059 246.102C282.801 246.309 282.609 246.583 282.484 246.923C282.359 247.264 282.296 247.634 282.296 248.035C282.296 248.429 282.359 248.796 282.484 249.136C282.609 249.473 282.801 249.745 283.059 249.953C283.316 250.16 283.646 250.264 284.047 250.264C284.247 250.264 284.432 250.237 284.6 250.184C284.768 250.13 284.917 250.055 285.046 249.958C285.178 249.858 285.289 249.74 285.379 249.604C285.468 249.467 285.535 249.319 285.578 249.158L286.501 249.421C286.423 249.689 286.305 249.929 286.147 250.141C285.993 250.348 285.809 250.527 285.594 250.678C285.379 250.825 285.141 250.936 284.879 251.011C284.618 251.09 284.34 251.129 284.047 251.129ZM290.331 251.129C289.787 251.129 289.309 251 288.897 250.742C288.489 250.484 288.17 250.123 287.941 249.657C287.712 249.192 287.597 248.651 287.597 248.035C287.597 247.409 287.712 246.862 287.941 246.397C288.17 245.928 288.489 245.564 288.897 245.307C289.309 245.049 289.787 244.92 290.331 244.92C290.621 244.92 290.895 244.958 291.153 245.033C291.411 245.108 291.645 245.217 291.856 245.36C292.071 245.5 292.256 245.674 292.41 245.881C292.564 246.085 292.682 246.318 292.764 246.58L291.835 246.843C291.792 246.689 291.726 246.547 291.636 246.418C291.547 246.29 291.438 246.179 291.309 246.085C291.183 245.989 291.038 245.915 290.874 245.865C290.709 245.812 290.528 245.785 290.331 245.785C289.93 245.785 289.601 245.89 289.343 246.102C289.085 246.309 288.893 246.583 288.768 246.923C288.643 247.264 288.58 247.634 288.58 248.035C288.58 248.429 288.643 248.796 288.768 249.136C288.893 249.473 289.085 249.745 289.343 249.953C289.601 250.16 289.93 250.264 290.331 250.264C290.532 250.264 290.716 250.237 290.884 250.184C291.053 250.13 291.201 250.055 291.33 249.958C291.463 249.858 291.574 249.74 291.663 249.604C291.753 249.467 291.819 249.319 291.862 249.158L292.786 249.421C292.707 249.689 292.589 249.929 292.431 250.141C292.277 250.348 292.093 250.527 291.878 250.678C291.663 250.825 291.425 250.936 291.164 251.011C290.902 251.09 290.625 251.129 290.331 251.129ZM296.615 251.129C296.071 251.129 295.593 251 295.181 250.742C294.773 250.484 294.454 250.123 294.225 249.657C293.996 249.192 293.881 248.651 293.881 248.035C293.881 247.409 293.996 246.862 294.225 246.397C294.454 245.928 294.773 245.564 295.181 245.307C295.593 245.049 296.071 244.92 296.615 244.92C297.163 244.92 297.643 245.049 298.055 245.307C298.466 245.564 298.787 245.928 299.016 246.397C299.245 246.862 299.36 247.409 299.36 248.035C299.36 248.651 299.245 249.192 299.016 249.657C298.787 250.123 298.466 250.484 298.055 250.742C297.643 251 297.163 251.129 296.615 251.129ZM296.615 250.264C297.02 250.264 297.353 250.16 297.614 249.953C297.876 249.745 298.069 249.473 298.194 249.136C298.32 248.796 298.382 248.429 298.382 248.035C298.382 247.638 298.32 247.269 298.194 246.929C298.069 246.585 297.876 246.309 297.614 246.102C297.353 245.89 297.02 245.785 296.615 245.785C296.214 245.785 295.885 245.89 295.627 246.102C295.369 246.309 295.178 246.583 295.052 246.923C294.927 247.264 294.864 247.634 294.864 248.035C294.864 248.429 294.927 248.796 295.052 249.136C295.178 249.473 295.369 249.745 295.627 249.953C295.885 250.16 296.214 250.264 296.615 250.264ZM302.803 251.075C302.398 251.075 302.042 250.993 301.734 250.828C301.43 250.66 301.191 250.407 301.02 250.071C300.851 249.734 300.767 249.313 300.767 248.809V244.995H301.734V248.728C301.734 249.19 301.856 249.552 302.099 249.813C302.343 250.074 302.674 250.205 303.093 250.205C303.379 250.205 303.635 250.142 303.861 250.017C304.09 249.892 304.271 249.709 304.403 249.469C304.536 249.226 304.602 248.934 304.602 248.594V244.995H305.574V251H304.64V249.544H304.769C304.582 250.107 304.317 250.502 303.974 250.731C303.633 250.961 303.243 251.075 302.803 251.075ZM308.244 247.401V251H307.277V244.995H308.206L308.211 246.451H308.077C308.26 245.896 308.519 245.502 308.856 245.269C309.196 245.036 309.594 244.92 310.048 244.92C310.453 244.92 310.807 245.004 311.112 245.172C311.416 245.337 311.653 245.588 311.821 245.924C311.993 246.257 312.079 246.678 312.079 247.187V251H311.112V247.267C311.112 246.805 310.99 246.444 310.747 246.182C310.507 245.921 310.177 245.79 309.758 245.79C309.472 245.79 309.214 245.853 308.985 245.978C308.756 246.103 308.575 246.286 308.442 246.526C308.31 246.766 308.244 247.058 308.244 247.401ZM316.139 244.995V245.822H313.035V244.995H316.139ZM313.937 243.566H314.904V249.442C314.904 249.711 314.958 249.908 315.065 250.033C315.176 250.155 315.359 250.216 315.613 250.216C315.674 250.216 315.751 250.209 315.844 250.194C315.94 250.18 316.028 250.166 316.107 250.151L316.306 250.968C316.205 251.004 316.091 251.03 315.962 251.048C315.837 251.066 315.711 251.075 315.586 251.075C315.067 251.075 314.662 250.939 314.372 250.667C314.082 250.391 313.937 250.008 313.937 249.518V243.566ZM319.308 251.129C318.896 251.129 318.529 251.07 318.207 250.952C317.888 250.83 317.625 250.651 317.417 250.415C317.21 250.178 317.07 249.888 316.999 249.544L317.917 249.324C318.003 249.654 318.164 249.895 318.4 250.049C318.64 250.203 318.939 250.28 319.297 250.28C319.716 250.28 320.049 250.191 320.296 250.012C320.547 249.833 320.672 249.62 320.672 249.373C320.672 249.165 320.599 248.993 320.452 248.857C320.309 248.717 320.089 248.613 319.792 248.545L318.792 248.309C318.248 248.18 317.844 247.981 317.579 247.713C317.314 247.441 317.181 247.093 317.181 246.671C317.181 246.327 317.278 246.025 317.471 245.763C317.665 245.498 317.928 245.292 318.261 245.146C318.597 244.995 318.979 244.92 319.405 244.92C319.817 244.92 320.166 244.983 320.452 245.108C320.742 245.23 320.977 245.4 321.156 245.618C321.338 245.833 321.474 246.082 321.564 246.365L320.688 246.59C320.606 246.375 320.468 246.18 320.275 246.005C320.085 245.829 319.797 245.742 319.41 245.742C319.052 245.742 318.753 245.824 318.513 245.989C318.277 246.153 318.159 246.361 318.159 246.612C318.159 246.834 318.239 247.013 318.4 247.149C318.562 247.281 318.818 247.389 319.168 247.471L320.076 247.686C320.62 247.815 321.023 248.015 321.285 248.288C321.546 248.556 321.677 248.896 321.677 249.308C321.677 249.659 321.576 249.972 321.376 250.248C321.179 250.52 320.902 250.735 320.543 250.893C320.189 251.05 319.777 251.129 319.308 251.129Z" fill="black" fill-opacity="0.5"></path>
<rect x="275" y="179" width="36" height="36" rx="2" fill="#A3C9FF"></rect>
<path d="M303 205.571H283V207H303V205.571Z" fill="black"></path>
<path d="M300.857 193.428C301.047 193.428 301.229 193.353 301.362 193.219C301.496 193.085 301.571 192.904 301.571 192.714V190.571C301.571 190.424 301.526 190.281 301.442 190.161C301.357 190.041 301.238 189.949 301.1 189.9L293.243 187.042C293.086 186.986 292.914 186.986 292.757 187.042L284.9 189.9C284.762 189.949 284.643 190.041 284.558 190.161C284.474 190.281 284.429 190.424 284.429 190.571V192.714C284.429 192.904 284.504 193.085 284.638 193.219C284.772 193.353 284.953 193.428 285.143 193.428H285.857V202.714H284.429V204.143H301.571V202.714H300.143V193.428H300.857ZM285.857 191.071L293 188.471L300.143 191.071V192H285.857V191.071ZM294.429 202.714H291.571V193.428H294.429V202.714ZM287.286 193.428H290.143V202.714H287.286V193.428ZM298.715 202.714H295.857V193.428H298.715V202.714Z" fill="black"></path>
<path d="M373.271 124.107C372.569 124.107 371.941 123.944 371.386 123.619C370.831 123.293 370.392 122.824 370.07 122.211C369.751 121.599 369.592 120.863 369.592 120.004C369.592 119.141 369.751 118.403 370.07 117.791C370.392 117.175 370.831 116.704 371.386 116.378C371.941 116.053 372.569 115.89 373.271 115.89C373.969 115.89 374.594 116.053 375.146 116.378C375.701 116.704 376.137 117.175 376.456 117.791C376.778 118.403 376.939 119.141 376.939 120.004C376.939 120.863 376.778 121.601 376.456 122.217C376.137 122.829 375.701 123.298 375.146 123.624C374.594 123.946 373.969 124.107 373.271 124.107ZM373.271 122.824C373.704 122.824 374.087 122.716 374.42 122.501C374.757 122.283 375.02 121.964 375.21 121.545C375.4 121.123 375.495 120.609 375.495 120.004C375.495 119.392 375.4 118.876 375.21 118.457C375.02 118.035 374.757 117.716 374.42 117.501C374.087 117.283 373.704 117.173 373.271 117.173C372.834 117.173 372.447 117.283 372.111 117.501C371.774 117.719 371.509 118.04 371.316 118.462C371.126 118.881 371.031 119.395 371.031 120.004C371.031 120.609 371.126 121.121 371.316 121.54C371.509 121.959 371.774 122.278 372.111 122.496C372.447 122.715 372.834 122.824 373.271 122.824ZM379.63 115.997V124H378.234V115.997H379.63ZM383.326 124.107C382.853 124.107 382.429 123.987 382.053 123.748C381.68 123.504 381.387 123.151 381.172 122.689C380.957 122.228 380.85 121.667 380.85 121.008C380.85 120.342 380.959 119.78 381.177 119.322C381.399 118.86 381.696 118.511 382.069 118.274C382.445 118.038 382.862 117.92 383.32 117.92C383.678 117.92 383.97 117.981 384.196 118.103C384.425 118.221 384.606 118.362 384.738 118.527C384.874 118.692 384.976 118.846 385.044 118.989H385.104V115.997H386.5V124H385.13V123.049H385.044C384.973 123.193 384.867 123.347 384.728 123.511C384.591 123.676 384.411 123.817 384.185 123.936C383.959 124.05 383.673 124.107 383.326 124.107ZM383.707 122.958C384.011 122.958 384.269 122.877 384.48 122.716C384.692 122.552 384.853 122.322 384.964 122.029C385.075 121.735 385.13 121.393 385.13 121.003C385.13 120.613 385.075 120.274 384.964 119.988C384.856 119.698 384.695 119.472 384.48 119.311C384.269 119.15 384.011 119.069 383.707 119.069C383.392 119.069 383.129 119.153 382.917 119.322C382.706 119.486 382.547 119.716 382.439 120.009C382.332 120.299 382.278 120.631 382.278 121.003C382.278 121.375 382.332 121.71 382.439 122.007C382.547 122.301 382.706 122.534 382.917 122.706C383.132 122.874 383.396 122.958 383.707 122.958ZM390.813 124V115.997H392.435L395.201 120.407C395.316 120.589 395.438 120.797 395.566 121.03C395.695 121.259 395.83 121.517 395.969 121.803C396.109 122.086 396.247 122.401 396.383 122.749H396.222C396.197 122.448 396.173 122.14 396.152 121.825C396.134 121.506 396.12 121.205 396.109 120.922C396.102 120.636 396.098 120.394 396.098 120.197V115.997H397.554V124H395.926L393.429 120.031C393.271 119.777 393.123 119.526 392.983 119.279C392.843 119.032 392.693 118.752 392.532 118.441C392.371 118.129 392.175 117.753 391.946 117.313H392.15C392.172 117.703 392.192 118.074 392.209 118.425C392.227 118.772 392.242 119.084 392.252 119.359C392.267 119.635 392.274 119.857 392.274 120.025V124H390.813ZM399.106 124V117.995H400.502V124H399.106ZM399.804 117.146C399.582 117.146 399.391 117.071 399.229 116.921C399.072 116.771 398.993 116.591 398.993 116.384C398.993 116.169 399.072 115.988 399.229 115.841C399.391 115.691 399.582 115.616 399.804 115.616C400.03 115.616 400.221 115.691 400.379 115.841C400.54 115.988 400.621 116.169 400.621 116.384C400.621 116.591 400.54 116.771 400.379 116.921C400.221 117.071 400.03 117.146 399.804 117.146ZM403.381 120.482V124H401.985V117.995H403.306L403.328 119.478H403.215C403.383 118.958 403.63 118.57 403.956 118.312C404.282 118.051 404.69 117.92 405.181 117.92C405.592 117.92 405.952 118.008 406.26 118.183C406.568 118.359 406.806 118.615 406.975 118.951C407.146 119.288 407.232 119.698 407.232 120.181V124H405.836V120.396C405.836 119.995 405.732 119.68 405.524 119.451C405.317 119.222 405.03 119.107 404.665 119.107C404.418 119.107 404.198 119.161 404.004 119.268C403.811 119.375 403.659 119.533 403.548 119.741C403.437 119.945 403.381 120.192 403.381 120.482ZM411.497 117.995V119.091H408.086V117.995H411.497ZM408.94 116.566H410.337V122.308C410.337 122.527 410.383 122.688 410.477 122.792C410.57 122.892 410.722 122.942 410.933 122.942C410.998 122.942 411.082 122.935 411.186 122.92C411.293 122.903 411.379 122.886 411.443 122.872L411.664 123.952C411.51 123.998 411.352 124.03 411.191 124.048C411.03 124.07 410.876 124.081 410.729 124.081C410.153 124.081 409.71 123.937 409.402 123.651C409.094 123.364 408.94 122.956 408.94 122.426V116.566ZM414.027 120.482V124H412.63V115.997H414.005V119.478H413.86C414.029 118.958 414.276 118.57 414.602 118.312C414.927 118.051 415.336 117.92 415.826 117.92C416.238 117.92 416.598 118.008 416.906 118.183C417.217 118.359 417.457 118.615 417.625 118.951C417.797 119.288 417.883 119.698 417.883 120.181V124H416.481V120.396C416.481 119.995 416.378 119.68 416.17 119.451C415.962 119.222 415.676 119.107 415.311 119.107C415.063 119.107 414.843 119.161 414.65 119.268C414.457 119.375 414.304 119.533 414.193 119.741C414.082 119.945 414.027 120.192 414.027 120.482ZM422.202 124V115.997H425.263C425.84 115.997 426.319 116.088 426.703 116.271C427.086 116.454 427.372 116.701 427.562 117.012C427.752 117.324 427.847 117.678 427.847 118.076C427.847 118.402 427.784 118.681 427.659 118.914C427.533 119.143 427.365 119.329 427.154 119.472C426.946 119.615 426.712 119.717 426.45 119.778V119.859C426.733 119.873 427.005 119.959 427.267 120.117C427.528 120.274 427.741 120.496 427.906 120.783C428.074 121.069 428.158 121.415 428.158 121.819C428.158 122.235 428.058 122.607 427.857 122.937C427.657 123.266 427.354 123.526 426.95 123.715C426.549 123.905 426.042 124 425.43 124H422.202ZM423.636 122.802H425.204C425.734 122.802 426.115 122.7 426.348 122.496C426.584 122.292 426.703 122.031 426.703 121.712C426.703 121.472 426.644 121.257 426.525 121.067C426.407 120.874 426.239 120.722 426.021 120.611C425.806 120.5 425.55 120.444 425.252 120.444H423.636V122.802ZM423.636 119.408H425.081C425.335 119.408 425.562 119.361 425.763 119.268C425.963 119.175 426.121 119.042 426.235 118.871C426.354 118.699 426.413 118.495 426.413 118.258C426.413 117.947 426.303 117.691 426.085 117.49C425.867 117.29 425.542 117.189 425.113 117.189H423.636V119.408ZM431.064 124.124C430.684 124.124 430.342 124.056 430.038 123.919C429.734 123.78 429.494 123.576 429.318 123.307C429.143 123.039 429.055 122.707 429.055 122.313C429.055 121.973 429.118 121.692 429.243 121.47C429.372 121.248 429.544 121.071 429.759 120.938C429.977 120.806 430.222 120.706 430.495 120.638C430.767 120.57 431.05 120.521 431.343 120.493C431.691 120.453 431.973 120.419 432.192 120.391C432.41 120.362 432.57 120.315 432.67 120.251C432.774 120.187 432.826 120.086 432.826 119.95V119.923C432.826 119.726 432.786 119.56 432.708 119.424C432.629 119.284 432.511 119.179 432.353 119.107C432.199 119.032 432.007 118.994 431.778 118.994C431.546 118.994 431.343 119.03 431.171 119.102C431.003 119.173 430.865 119.266 430.758 119.381C430.65 119.495 430.572 119.619 430.521 119.751L429.227 119.488C429.345 119.134 429.528 118.842 429.775 118.613C430.022 118.38 430.316 118.206 430.656 118.092C431 117.977 431.372 117.92 431.773 117.92C432.056 117.92 432.34 117.954 432.627 118.022C432.917 118.086 433.182 118.197 433.422 118.355C433.662 118.513 433.855 118.724 434.002 118.989C434.149 119.254 434.222 119.587 434.222 119.988V124H432.885V123.173H432.831C432.742 123.341 432.618 123.499 432.46 123.646C432.306 123.789 432.113 123.905 431.88 123.995C431.651 124.081 431.379 124.124 431.064 124.124ZM431.424 123.087C431.714 123.087 431.963 123.03 432.17 122.915C432.382 122.8 432.545 122.65 432.659 122.464C432.777 122.274 432.836 122.068 432.836 121.846V121.137C432.79 121.173 432.711 121.207 432.6 121.239C432.493 121.271 432.371 121.3 432.235 121.325C432.102 121.35 431.97 121.372 431.837 121.39C431.708 121.408 431.599 121.422 431.51 121.433C431.302 121.461 431.114 121.508 430.946 121.572C430.778 121.637 430.645 121.728 430.548 121.846C430.455 121.961 430.409 122.111 430.409 122.297C430.409 122.469 430.452 122.614 430.538 122.732C430.627 122.847 430.747 122.935 430.897 122.996C431.051 123.056 431.227 123.087 431.424 123.087ZM437.101 120.482V124H435.705V117.995H437.026L437.047 119.478H436.935C437.103 118.958 437.35 118.57 437.676 118.312C438.002 118.051 438.41 117.92 438.9 117.92C439.312 117.92 439.672 118.008 439.98 118.183C440.288 118.359 440.526 118.615 440.694 118.951C440.866 119.288 440.952 119.698 440.952 120.181V124H439.556V120.396C439.556 119.995 439.452 119.68 439.244 119.451C439.036 119.222 438.75 119.107 438.385 119.107C438.138 119.107 437.917 119.161 437.724 119.268C437.531 119.375 437.379 119.533 437.268 119.741C437.157 119.945 437.101 120.192 437.101 120.482ZM443.718 122.109V120.417H443.938L446.103 117.995H447.741L445.088 120.955H444.798L443.718 122.109ZM442.44 124V115.997H443.836V124H442.44ZM446.205 124L444.239 121.266L445.185 120.278L447.881 124H446.205Z" fill="black"></path>
<path d="M383.138 138.107C382.615 138.107 382.151 138.018 381.747 137.839C381.342 137.66 381.02 137.411 380.78 137.092C380.543 136.774 380.416 136.403 380.398 135.98H381.43C381.451 136.235 381.537 136.455 381.688 136.641C381.841 136.824 382.042 136.965 382.289 137.065C382.54 137.162 382.817 137.21 383.122 137.21C383.458 137.21 383.755 137.153 384.013 137.039C384.275 136.92 384.48 136.756 384.631 136.544C384.781 136.333 384.856 136.09 384.856 135.814C384.856 135.524 384.783 135.27 384.636 135.051C384.493 134.829 384.284 134.656 384.008 134.53C383.732 134.405 383.396 134.342 382.998 134.342H382.348V133.456H382.998C383.31 133.456 383.583 133.401 383.82 133.29C384.06 133.175 384.246 133.016 384.378 132.812C384.511 132.607 384.577 132.368 384.577 132.092C384.577 131.827 384.518 131.596 384.4 131.399C384.285 131.202 384.121 131.05 383.906 130.942C383.691 130.831 383.438 130.776 383.148 130.776C382.876 130.776 382.62 130.826 382.38 130.926C382.144 131.023 381.949 131.163 381.795 131.345C381.645 131.528 381.564 131.75 381.553 132.011H380.57C380.585 131.592 380.71 131.223 380.946 130.905C381.183 130.586 381.494 130.337 381.881 130.158C382.271 129.979 382.701 129.89 383.17 129.89C383.668 129.89 384.096 129.99 384.454 130.19C384.815 130.391 385.093 130.654 385.286 130.98C385.479 131.306 385.576 131.659 385.576 132.038C385.576 132.489 385.456 132.872 385.216 133.188C384.98 133.503 384.658 133.721 384.25 133.843V133.907C384.59 133.961 384.88 134.076 385.12 134.251C385.363 134.426 385.548 134.648 385.673 134.917C385.802 135.186 385.866 135.488 385.866 135.825C385.866 136.262 385.748 136.652 385.512 136.996C385.275 137.339 384.951 137.611 384.54 137.812C384.128 138.009 383.66 138.107 383.138 138.107ZM392.15 138.14C391.771 138.14 391.425 138.068 391.114 137.925C390.806 137.782 390.561 137.572 390.378 137.296C390.195 137.021 390.104 136.686 390.104 136.292C390.104 135.948 390.172 135.669 390.308 135.454C390.444 135.239 390.625 135.071 390.851 134.949C391.08 134.824 391.332 134.731 391.608 134.67C391.884 134.609 392.161 134.561 392.44 134.525C392.799 134.478 393.09 134.443 393.316 134.417C393.542 134.392 393.708 134.349 393.815 134.289C393.926 134.228 393.982 134.124 393.982 133.977V133.945C393.982 133.694 393.935 133.483 393.842 133.311C393.749 133.136 393.61 133.001 393.423 132.908C393.237 132.815 393.004 132.769 392.725 132.769C392.439 132.769 392.193 132.813 391.989 132.903C391.785 132.992 391.619 133.105 391.49 133.241C391.364 133.374 391.27 133.51 391.205 133.649L390.276 133.343C390.43 132.978 390.638 132.693 390.899 132.489C391.16 132.282 391.449 132.135 391.764 132.049C392.079 131.963 392.39 131.92 392.698 131.92C392.899 131.92 393.126 131.945 393.38 131.995C393.638 132.042 393.885 132.137 394.122 132.28C394.361 132.423 394.558 132.636 394.712 132.919C394.87 133.198 394.949 133.572 394.949 134.042V138H393.998V137.184H393.934C393.866 137.323 393.756 137.468 393.606 137.619C393.456 137.765 393.26 137.889 393.021 137.989C392.781 138.09 392.491 138.14 392.15 138.14ZM392.317 137.286C392.675 137.286 392.978 137.216 393.225 137.076C393.472 136.937 393.66 136.756 393.789 136.534C393.917 136.308 393.982 136.074 393.982 135.83V134.998C393.943 135.044 393.857 135.087 393.724 135.126C393.592 135.162 393.439 135.194 393.268 135.223C393.099 135.252 392.935 135.277 392.773 135.298C392.616 135.316 392.491 135.331 392.397 135.341C392.165 135.37 391.946 135.42 391.742 135.492C391.542 135.56 391.381 135.662 391.259 135.798C391.137 135.93 391.076 136.111 391.076 136.34C391.076 136.548 391.13 136.722 391.237 136.861C391.345 137.001 391.492 137.107 391.678 137.178C391.864 137.25 392.077 137.286 392.317 137.286ZM399.09 138.129C398.546 138.129 398.068 138 397.656 137.742C397.248 137.484 396.929 137.123 396.7 136.657C396.471 136.192 396.356 135.651 396.356 135.035C396.356 134.409 396.471 133.862 396.7 133.397C396.929 132.928 397.248 132.564 397.656 132.307C398.068 132.049 398.546 131.92 399.09 131.92C399.38 131.92 399.654 131.958 399.912 132.033C400.169 132.108 400.404 132.217 400.615 132.36C400.83 132.5 401.014 132.674 401.168 132.881C401.322 133.085 401.441 133.318 401.523 133.58L400.594 133.843C400.551 133.689 400.485 133.547 400.395 133.418C400.306 133.29 400.196 133.179 400.067 133.085C399.942 132.989 399.797 132.915 399.632 132.865C399.468 132.812 399.287 132.785 399.09 132.785C398.689 132.785 398.359 132.89 398.102 133.102C397.844 133.309 397.652 133.583 397.527 133.923C397.402 134.264 397.339 134.634 397.339 135.035C397.339 135.429 397.402 135.796 397.527 136.136C397.652 136.473 397.844 136.745 398.102 136.953C398.359 137.16 398.689 137.264 399.09 137.264C399.29 137.264 399.475 137.237 399.643 137.184C399.811 137.13 399.96 137.055 400.089 136.958C400.221 136.858 400.332 136.74 400.422 136.604C400.511 136.467 400.578 136.319 400.621 136.158L401.544 136.421C401.466 136.689 401.347 136.929 401.19 137.141C401.036 137.348 400.852 137.527 400.637 137.678C400.422 137.825 400.184 137.936 399.922 138.011C399.661 138.09 399.383 138.129 399.09 138.129ZM405.374 138.129C404.83 138.129 404.352 138 403.94 137.742C403.532 137.484 403.213 137.123 402.984 136.657C402.755 136.192 402.64 135.651 402.64 135.035C402.64 134.409 402.755 133.862 402.984 133.397C403.213 132.928 403.532 132.564 403.94 132.307C404.352 132.049 404.83 131.92 405.374 131.92C405.664 131.92 405.938 131.958 406.196 132.033C406.454 132.108 406.688 132.217 406.899 132.36C407.114 132.5 407.299 132.674 407.453 132.881C407.607 133.085 407.725 133.318 407.807 133.58L406.878 133.843C406.835 133.689 406.769 133.547 406.679 133.418C406.59 133.29 406.48 133.179 406.352 133.085C406.226 132.989 406.081 132.915 405.917 132.865C405.752 132.812 405.571 132.785 405.374 132.785C404.973 132.785 404.644 132.89 404.386 133.102C404.128 133.309 403.936 133.583 403.811 133.923C403.686 134.264 403.623 134.634 403.623 135.035C403.623 135.429 403.686 135.796 403.811 136.136C403.936 136.473 404.128 136.745 404.386 136.953C404.644 137.16 404.973 137.264 405.374 137.264C405.575 137.264 405.759 137.237 405.927 137.184C406.096 137.13 406.244 137.055 406.373 136.958C406.506 136.858 406.617 136.74 406.706 136.604C406.796 136.467 406.862 136.319 406.905 136.158L407.829 136.421C407.75 136.689 407.632 136.929 407.474 137.141C407.32 137.348 407.136 137.527 406.921 137.678C406.706 137.825 406.468 137.936 406.207 138.011C405.945 138.09 405.668 138.129 405.374 138.129ZM411.658 138.129C411.114 138.129 410.636 138 410.224 137.742C409.816 137.484 409.497 137.123 409.268 136.657C409.039 136.192 408.924 135.651 408.924 135.035C408.924 134.409 409.039 133.862 409.268 133.397C409.497 132.928 409.816 132.564 410.224 132.307C410.636 132.049 411.114 131.92 411.658 131.92C412.206 131.92 412.686 132.049 413.098 132.307C413.509 132.564 413.83 132.928 414.059 133.397C414.288 133.862 414.403 134.409 414.403 135.035C414.403 135.651 414.288 136.192 414.059 136.657C413.83 137.123 413.509 137.484 413.098 137.742C412.686 138 412.206 138.129 411.658 138.129ZM411.658 137.264C412.063 137.264 412.396 137.16 412.657 136.953C412.919 136.745 413.112 136.473 413.237 136.136C413.363 135.796 413.425 135.429 413.425 135.035C413.425 134.638 413.363 134.269 413.237 133.929C413.112 133.585 412.919 133.309 412.657 133.102C412.396 132.89 412.063 132.785 411.658 132.785C411.257 132.785 410.928 132.89 410.67 133.102C410.412 133.309 410.221 133.583 410.095 133.923C409.97 134.264 409.907 134.634 409.907 135.035C409.907 135.429 409.97 135.796 410.095 136.136C410.221 136.473 410.412 136.745 410.67 136.953C410.928 137.16 411.257 137.264 411.658 137.264ZM417.846 138.075C417.441 138.075 417.085 137.993 416.777 137.828C416.472 137.66 416.234 137.407 416.062 137.071C415.894 136.734 415.81 136.313 415.81 135.809V131.995H416.777V135.728C416.777 136.19 416.899 136.552 417.142 136.813C417.386 137.074 417.717 137.205 418.136 137.205C418.422 137.205 418.678 137.142 418.904 137.017C419.133 136.892 419.314 136.709 419.446 136.469C419.579 136.226 419.645 135.934 419.645 135.594V131.995H420.617V138H419.683V136.544H419.812C419.625 137.107 419.36 137.502 419.017 137.731C418.676 137.961 418.286 138.075 417.846 138.075ZM423.287 134.401V138H422.32V131.995H423.249L423.254 133.451H423.12C423.303 132.896 423.562 132.502 423.899 132.269C424.239 132.036 424.637 131.92 425.091 131.92C425.496 131.92 425.85 132.004 426.155 132.172C426.459 132.337 426.695 132.588 426.864 132.924C427.036 133.257 427.122 133.678 427.122 134.187V138H426.155V134.267C426.155 133.805 426.033 133.444 425.79 133.182C425.55 132.921 425.22 132.79 424.801 132.79C424.515 132.79 424.257 132.853 424.028 132.978C423.799 133.103 423.618 133.286 423.485 133.526C423.353 133.766 423.287 134.058 423.287 134.401ZM431.182 131.995V132.822H428.078V131.995H431.182ZM428.98 130.566H429.947V136.442C429.947 136.711 430 136.908 430.108 137.033C430.219 137.155 430.402 137.216 430.656 137.216C430.717 137.216 430.794 137.209 430.887 137.194C430.983 137.18 431.071 137.166 431.15 137.151L431.349 137.968C431.248 138.004 431.134 138.03 431.005 138.048C430.88 138.066 430.754 138.075 430.629 138.075C430.11 138.075 429.705 137.939 429.415 137.667C429.125 137.391 428.98 137.008 428.98 136.518V130.566ZM434.351 138.129C433.939 138.129 433.572 138.07 433.25 137.952C432.931 137.83 432.668 137.651 432.46 137.415C432.253 137.178 432.113 136.888 432.042 136.544L432.96 136.324C433.046 136.654 433.207 136.895 433.443 137.049C433.683 137.203 433.982 137.28 434.34 137.28C434.759 137.28 435.092 137.191 435.339 137.012C435.59 136.833 435.715 136.62 435.715 136.373C435.715 136.165 435.642 135.993 435.495 135.857C435.352 135.717 435.132 135.613 434.834 135.545L433.835 135.309C433.291 135.18 432.887 134.981 432.622 134.713C432.357 134.441 432.224 134.093 432.224 133.671C432.224 133.327 432.321 133.025 432.514 132.763C432.708 132.498 432.971 132.292 433.304 132.146C433.64 131.995 434.022 131.92 434.448 131.92C434.86 131.92 435.209 131.983 435.495 132.108C435.785 132.23 436.02 132.4 436.199 132.618C436.381 132.833 436.517 133.082 436.607 133.365L435.731 133.59C435.649 133.375 435.511 133.18 435.318 133.005C435.128 132.829 434.84 132.742 434.453 132.742C434.095 132.742 433.796 132.824 433.556 132.989C433.32 133.153 433.202 133.361 433.202 133.612C433.202 133.834 433.282 134.013 433.443 134.149C433.604 134.281 433.861 134.389 434.211 134.471L435.119 134.686C435.663 134.815 436.066 135.015 436.328 135.288C436.589 135.556 436.72 135.896 436.72 136.308C436.72 136.659 436.619 136.972 436.419 137.248C436.222 137.52 435.944 137.735 435.586 137.893C435.232 138.05 434.82 138.129 434.351 138.129Z" fill="black" fill-opacity="0.5"></path>
<rect x="390" y="66" width="36" height="36" rx="2" fill="#C4C2FF"></rect>
<path d="M418 92.5713H398V93.9999H418V92.5713Z" fill="black"></path>
<path d="M415.857 80.4283C416.047 80.4283 416.229 80.3532 416.362 80.2188C416.496 80.0849 416.571 79.9035 416.571 79.714V77.571C416.571 77.4244 416.526 77.281 416.442 77.1607C416.357 77.0408 416.238 76.9494 416.1 76.8997L408.243 74.0424C408.086 73.9859 407.914 73.9859 407.757 74.0424L399.9 76.8997C399.762 76.9494 399.643 77.0408 399.558 77.1607C399.474 77.281 399.429 77.4244 399.429 77.571V79.714C399.429 79.9035 399.504 80.0849 399.638 80.2188C399.772 80.3532 399.953 80.4283 400.143 80.4283H400.857V89.714H399.429V91.1426H416.571V89.714H415.143V80.4283H415.857ZM400.857 78.0709L408 75.471L415.143 78.0709V78.9996H400.857V78.0709ZM409.429 89.714H406.571V80.4283H409.429V89.714ZM402.286 80.4283H405.143V89.714H402.286V80.4283ZM413.715 89.714H410.857V80.4283H413.715V89.714Z" fill="black"></path>
<path d="M369.07 237V228.997H370.692L373.458 233.407C373.573 233.589 373.695 233.797 373.824 234.03C373.953 234.259 374.087 234.517 374.227 234.803C374.366 235.086 374.504 235.401 374.64 235.749H374.479C374.454 235.448 374.431 235.14 374.409 234.825C374.391 234.506 374.377 234.205 374.366 233.922C374.359 233.636 374.355 233.394 374.355 233.197V228.997H375.811V237H374.184L371.686 233.031C371.528 232.777 371.38 232.526 371.24 232.279C371.101 232.032 370.95 231.752 370.789 231.441C370.628 231.129 370.433 230.753 370.204 230.313H370.408C370.429 230.703 370.449 231.074 370.467 231.425C370.485 231.772 370.499 232.084 370.51 232.359C370.524 232.635 370.531 232.857 370.531 233.025V237H369.07ZM380.017 237.124C379.411 237.124 378.89 236.996 378.454 236.742C378.02 236.488 377.686 236.13 377.449 235.668C377.216 235.206 377.1 234.662 377.1 234.035C377.1 233.416 377.215 232.873 377.444 232.408C377.677 231.942 378.004 231.579 378.427 231.317C378.853 231.052 379.352 230.92 379.925 230.92C380.291 230.92 380.638 230.979 380.967 231.097C381.3 231.215 381.594 231.398 381.848 231.645C382.106 231.892 382.306 232.207 382.45 232.59C382.597 232.97 382.67 233.423 382.67 233.949V234.39H377.761V233.439H381.977L381.322 233.718C381.322 233.382 381.27 233.086 381.166 232.832C381.062 232.574 380.906 232.374 380.699 232.23C380.495 232.087 380.239 232.016 379.931 232.016C379.623 232.016 379.361 232.089 379.146 232.236C378.932 232.379 378.767 232.572 378.652 232.816C378.541 233.056 378.486 233.324 378.486 233.622V234.277C378.486 234.656 378.55 234.977 378.679 235.238C378.808 235.5 378.989 235.697 379.222 235.829C379.454 235.962 379.725 236.028 380.033 236.028C380.237 236.028 380.421 235.999 380.586 235.942C380.754 235.881 380.899 235.793 381.021 235.679C381.143 235.561 381.234 235.417 381.295 235.249L382.579 235.512C382.482 235.834 382.317 236.117 382.084 236.361C381.852 236.601 381.56 236.789 381.209 236.925C380.862 237.057 380.464 237.124 380.017 237.124ZM384.985 237L383.196 230.995H384.668L385.259 233.348C385.348 233.734 385.447 234.159 385.554 234.621C385.662 235.083 385.764 235.596 385.86 236.162H385.683C385.78 235.611 385.884 235.104 385.995 234.642C386.106 234.177 386.211 233.745 386.312 233.348L386.918 230.995H388.25L388.841 233.348C388.938 233.738 389.04 234.166 389.147 234.631C389.258 235.093 389.364 235.604 389.464 236.162H389.287C389.384 235.607 389.482 235.099 389.583 234.637C389.686 234.175 389.787 233.745 389.883 233.348L390.474 230.995H391.957L390.163 237H388.75L388.046 234.551C387.975 234.304 387.905 234.039 387.837 233.756C387.769 233.473 387.703 233.185 387.638 232.891C387.574 232.594 387.509 232.309 387.445 232.037H387.703C387.638 232.309 387.572 232.594 387.504 232.891C387.439 233.185 387.373 233.475 387.305 233.761C387.241 234.048 387.173 234.311 387.101 234.551L386.397 237H384.985ZM395.775 237V228.997H397.209V235.792H400.744V237H395.775ZM404.584 237.124C403.979 237.124 403.458 236.996 403.021 236.742C402.588 236.488 402.253 236.13 402.017 235.668C401.784 235.206 401.667 234.662 401.667 234.035C401.667 233.416 401.782 232.873 402.011 232.408C402.244 231.942 402.572 231.579 402.994 231.317C403.42 231.052 403.92 230.92 404.493 230.92C404.858 230.92 405.205 230.979 405.535 231.097C405.868 231.215 406.161 231.398 406.416 231.645C406.673 231.892 406.874 232.207 407.017 232.59C407.164 232.97 407.237 233.423 407.237 233.949V234.39H402.328V233.439H406.544L405.889 233.718C405.889 233.382 405.837 233.086 405.733 232.832C405.63 232.574 405.474 232.374 405.266 232.23C405.062 232.087 404.806 232.016 404.498 232.016C404.19 232.016 403.929 232.089 403.714 232.236C403.499 232.379 403.334 232.572 403.22 232.816C403.109 233.056 403.053 233.324 403.053 233.622V234.277C403.053 234.656 403.118 234.977 403.247 235.238C403.375 235.5 403.556 235.697 403.789 235.829C404.022 235.962 404.292 236.028 404.6 236.028C404.804 236.028 404.989 235.999 405.153 235.942C405.322 235.881 405.467 235.793 405.588 235.679C405.71 235.561 405.801 235.417 405.862 235.249L407.146 235.512C407.049 235.834 406.885 236.117 406.652 236.361C406.419 236.601 406.127 236.789 405.776 236.925C405.429 237.057 405.032 237.124 404.584 237.124ZM410.224 237.124C409.844 237.124 409.502 237.056 409.198 236.919C408.893 236.78 408.653 236.576 408.478 236.307C408.303 236.039 408.215 235.707 408.215 235.313C408.215 234.973 408.278 234.692 408.403 234.47C408.532 234.248 408.704 234.071 408.918 233.938C409.137 233.806 409.382 233.706 409.654 233.638C409.926 233.57 410.209 233.521 410.503 233.493C410.85 233.453 411.133 233.419 411.352 233.391C411.57 233.362 411.729 233.315 411.83 233.251C411.933 233.187 411.985 233.086 411.985 232.95V232.923C411.985 232.726 411.946 232.56 411.867 232.424C411.788 232.284 411.67 232.179 411.513 232.107C411.359 232.032 411.167 231.994 410.938 231.994C410.705 231.994 410.503 232.03 410.331 232.102C410.163 232.173 410.025 232.266 409.917 232.381C409.81 232.495 409.731 232.619 409.681 232.751L408.387 232.488C408.505 232.134 408.688 231.842 408.935 231.613C409.182 231.38 409.475 231.206 409.815 231.092C410.159 230.977 410.532 230.92 410.933 230.92C411.215 230.92 411.5 230.954 411.787 231.022C412.077 231.086 412.342 231.197 412.582 231.355C412.821 231.513 413.015 231.724 413.162 231.989C413.308 232.254 413.382 232.587 413.382 232.988V237H412.044V236.173H411.991C411.901 236.341 411.778 236.499 411.62 236.646C411.466 236.789 411.273 236.905 411.04 236.995C410.811 237.081 410.539 237.124 410.224 237.124ZM410.583 236.087C410.874 236.087 411.122 236.03 411.33 235.915C411.541 235.8 411.704 235.65 411.819 235.464C411.937 235.274 411.996 235.068 411.996 234.846V234.137C411.95 234.173 411.871 234.207 411.76 234.239C411.652 234.271 411.531 234.3 411.395 234.325C411.262 234.35 411.13 234.372 410.997 234.39C410.868 234.408 410.759 234.422 410.669 234.433C410.462 234.461 410.274 234.508 410.105 234.572C409.937 234.637 409.805 234.728 409.708 234.846C409.615 234.961 409.568 235.111 409.568 235.297C409.568 235.469 409.611 235.614 409.697 235.732C409.787 235.847 409.907 235.935 410.057 235.996C410.211 236.056 410.387 236.087 410.583 236.087ZM418.022 230.995V232.091H414.23V230.995H418.022ZM415.332 237V230.42C415.332 230.019 415.414 229.686 415.579 229.421C415.747 229.156 415.972 228.958 416.255 228.825C416.542 228.689 416.855 228.621 417.195 228.621C417.442 228.621 417.661 228.641 417.851 228.68C418.04 228.72 418.18 228.755 418.27 228.788L417.985 229.873C417.924 229.855 417.849 229.837 417.759 229.819C417.673 229.797 417.571 229.787 417.453 229.787C417.192 229.787 417.004 229.851 416.889 229.98C416.778 230.109 416.723 230.292 416.723 230.528V237H415.332ZM421.976 237V228.997H425.037C425.614 228.997 426.093 229.088 426.477 229.271C426.86 229.454 427.146 229.701 427.336 230.012C427.526 230.324 427.621 230.678 427.621 231.076C427.621 231.402 427.558 231.681 427.433 231.914C427.307 232.143 427.139 232.329 426.928 232.472C426.72 232.615 426.486 232.717 426.224 232.778V232.859C426.507 232.873 426.779 232.959 427.041 233.117C427.302 233.274 427.515 233.496 427.68 233.783C427.848 234.069 427.932 234.415 427.932 234.819C427.932 235.235 427.832 235.607 427.631 235.937C427.431 236.266 427.128 236.526 426.724 236.715C426.323 236.905 425.816 237 425.204 237H421.976ZM423.41 235.802H424.978C425.508 235.802 425.889 235.7 426.122 235.496C426.358 235.292 426.477 235.031 426.477 234.712C426.477 234.472 426.417 234.257 426.299 234.067C426.181 233.874 426.013 233.722 425.794 233.611C425.58 233.5 425.324 233.444 425.026 233.444H423.41V235.802ZM423.41 232.408H424.854C425.109 232.408 425.336 232.361 425.537 232.268C425.737 232.175 425.895 232.042 426.009 231.871C426.127 231.699 426.187 231.495 426.187 231.258C426.187 230.947 426.077 230.691 425.859 230.49C425.64 230.29 425.316 230.189 424.887 230.189H423.41V232.408ZM430.838 237.124C430.458 237.124 430.116 237.056 429.812 236.919C429.508 236.78 429.268 236.576 429.092 236.307C428.917 236.039 428.829 235.707 428.829 235.313C428.829 234.973 428.892 234.692 429.017 234.47C429.146 234.248 429.318 234.071 429.533 233.938C429.751 233.806 429.996 233.706 430.269 233.638C430.541 233.57 430.824 233.521 431.117 233.493C431.465 233.453 431.747 233.419 431.966 233.391C432.184 233.362 432.344 233.315 432.444 233.251C432.548 233.187 432.6 233.086 432.6 232.95V232.923C432.6 232.726 432.56 232.56 432.481 232.424C432.403 232.284 432.285 232.179 432.127 232.107C431.973 232.032 431.781 231.994 431.552 231.994C431.319 231.994 431.117 232.03 430.945 232.102C430.777 232.173 430.639 232.266 430.532 232.381C430.424 232.495 430.346 232.619 430.295 232.751L429.001 232.488C429.119 232.134 429.302 231.842 429.549 231.613C429.796 231.38 430.09 231.206 430.43 231.092C430.773 230.977 431.146 230.92 431.547 230.92C431.83 230.92 432.114 230.954 432.401 231.022C432.691 231.086 432.956 231.197 433.196 231.355C433.436 231.513 433.629 231.724 433.776 231.989C433.923 232.254 433.996 232.587 433.996 232.988V237H432.659V236.173H432.605C432.515 236.341 432.392 236.499 432.234 236.646C432.08 236.789 431.887 236.905 431.654 236.995C431.425 237.081 431.153 237.124 430.838 237.124ZM431.198 236.087C431.488 236.087 431.737 236.03 431.944 235.915C432.156 235.8 432.319 235.65 432.433 235.464C432.551 235.274 432.61 235.068 432.61 234.846V234.137C432.564 234.173 432.485 234.207 432.374 234.239C432.267 234.271 432.145 234.3 432.009 234.325C431.876 234.35 431.744 234.372 431.611 234.39C431.482 234.408 431.373 234.422 431.284 234.433C431.076 234.461 430.888 234.508 430.72 234.572C430.551 234.637 430.419 234.728 430.322 234.846C430.229 234.961 430.183 235.111 430.183 235.297C430.183 235.469 430.226 235.614 430.312 235.732C430.401 235.847 430.521 235.935 430.671 235.996C430.825 236.056 431.001 236.087 431.198 236.087ZM436.875 233.482V237H435.479V230.995H436.8L436.821 232.478H436.708C436.877 231.958 437.124 231.57 437.45 231.312C437.776 231.051 438.184 230.92 438.674 230.92C439.086 230.92 439.446 231.008 439.754 231.183C440.062 231.359 440.3 231.615 440.468 231.951C440.64 232.288 440.726 232.698 440.726 233.181V237H439.33V233.396C439.33 232.995 439.226 232.68 439.018 232.451C438.81 232.222 438.524 232.107 438.159 232.107C437.912 232.107 437.691 232.161 437.498 232.268C437.305 232.375 437.153 232.533 437.042 232.741C436.931 232.945 436.875 233.192 436.875 233.482ZM443.492 235.109V233.417H443.712L445.877 230.995H447.515L444.862 233.955H444.572L443.492 235.109ZM442.214 237V228.997H443.61V237H442.214ZM445.979 237L444.013 234.266L444.958 233.278L447.655 237H445.979Z" fill="black"></path>
<path d="M386.747 242.997V251H385.742V243.942H385.688L383.755 245.376V244.281L385.495 242.997H386.747ZM393.342 251.14C392.963 251.14 392.617 251.068 392.306 250.925C391.998 250.782 391.752 250.572 391.57 250.296C391.387 250.021 391.296 249.686 391.296 249.292C391.296 248.948 391.364 248.669 391.5 248.454C391.636 248.239 391.817 248.071 392.042 247.949C392.272 247.824 392.524 247.731 392.8 247.67C393.076 247.609 393.353 247.561 393.632 247.525C393.99 247.478 394.282 247.443 394.508 247.417C394.733 247.392 394.9 247.349 395.007 247.289C395.118 247.228 395.174 247.124 395.174 246.977V246.945C395.174 246.694 395.127 246.483 395.034 246.311C394.941 246.136 394.801 246.001 394.615 245.908C394.429 245.815 394.196 245.769 393.917 245.769C393.631 245.769 393.385 245.813 393.181 245.903C392.977 245.992 392.811 246.105 392.682 246.241C392.556 246.374 392.461 246.51 392.397 246.649L391.468 246.343C391.622 245.978 391.829 245.693 392.091 245.489C392.352 245.282 392.64 245.135 392.956 245.049C393.271 244.963 393.582 244.92 393.89 244.92C394.091 244.92 394.318 244.945 394.572 244.995C394.83 245.042 395.077 245.137 395.313 245.28C395.553 245.423 395.75 245.636 395.904 245.919C396.062 246.198 396.141 246.572 396.141 247.042V251H395.19V250.184H395.125C395.057 250.323 394.948 250.468 394.798 250.619C394.647 250.765 394.452 250.889 394.212 250.989C393.972 251.09 393.682 251.14 393.342 251.14ZM393.509 250.286C393.867 250.286 394.169 250.216 394.417 250.076C394.664 249.937 394.852 249.756 394.98 249.534C395.109 249.308 395.174 249.074 395.174 248.83V247.998C395.134 248.044 395.049 248.087 394.916 248.126C394.784 248.162 394.631 248.194 394.459 248.223C394.291 248.252 394.126 248.277 393.965 248.298C393.808 248.316 393.682 248.331 393.589 248.341C393.357 248.37 393.138 248.42 392.934 248.492C392.734 248.56 392.572 248.662 392.451 248.798C392.329 248.93 392.268 249.111 392.268 249.34C392.268 249.548 392.322 249.722 392.429 249.861C392.537 250.001 392.683 250.107 392.87 250.178C393.056 250.25 393.269 250.286 393.509 250.286ZM400.282 251.129C399.737 251.129 399.259 251 398.848 250.742C398.439 250.484 398.121 250.123 397.892 249.657C397.662 249.192 397.548 248.651 397.548 248.035C397.548 247.409 397.662 246.862 397.892 246.397C398.121 245.928 398.439 245.564 398.848 245.307C399.259 245.049 399.737 244.92 400.282 244.92C400.572 244.92 400.846 244.958 401.104 245.033C401.361 245.108 401.596 245.217 401.807 245.36C402.022 245.5 402.206 245.674 402.36 245.881C402.514 246.085 402.632 246.318 402.715 246.58L401.786 246.843C401.743 246.689 401.676 246.547 401.587 246.418C401.497 246.29 401.388 246.179 401.259 246.085C401.134 245.989 400.989 245.915 400.824 245.865C400.66 245.812 400.479 245.785 400.282 245.785C399.881 245.785 399.551 245.89 399.293 246.102C399.036 246.309 398.844 246.583 398.719 246.923C398.593 247.264 398.531 247.634 398.531 248.035C398.531 248.429 398.593 248.796 398.719 249.136C398.844 249.473 399.036 249.745 399.293 249.953C399.551 250.16 399.881 250.264 400.282 250.264C400.482 250.264 400.667 250.237 400.835 250.184C401.003 250.13 401.152 250.055 401.281 249.958C401.413 249.858 401.524 249.74 401.614 249.604C401.703 249.467 401.77 249.319 401.812 249.158L402.736 249.421C402.658 249.689 402.539 249.929 402.382 250.141C402.228 250.348 402.043 250.527 401.829 250.678C401.614 250.825 401.376 250.936 401.114 251.011C400.853 251.09 400.575 251.129 400.282 251.129ZM406.566 251.129C406.022 251.129 405.544 251 405.132 250.742C404.724 250.484 404.405 250.123 404.176 249.657C403.947 249.192 403.832 248.651 403.832 248.035C403.832 247.409 403.947 246.862 404.176 246.397C404.405 245.928 404.724 245.564 405.132 245.307C405.544 245.049 406.022 244.92 406.566 244.92C406.856 244.92 407.13 244.958 407.388 245.033C407.646 245.108 407.88 245.217 408.091 245.36C408.306 245.5 408.491 245.674 408.645 245.881C408.799 246.085 408.917 246.318 408.999 246.58L408.07 246.843C408.027 246.689 407.961 246.547 407.871 246.418C407.782 246.29 407.672 246.179 407.543 246.085C407.418 245.989 407.273 245.915 407.108 245.865C406.944 245.812 406.763 245.785 406.566 245.785C406.165 245.785 405.835 245.89 405.578 246.102C405.32 246.309 405.128 246.583 405.003 246.923C404.878 247.264 404.815 247.634 404.815 248.035C404.815 248.429 404.878 248.796 405.003 249.136C405.128 249.473 405.32 249.745 405.578 249.953C405.835 250.16 406.165 250.264 406.566 250.264C406.766 250.264 406.951 250.237 407.119 250.184C407.287 250.13 407.436 250.055 407.565 249.958C407.697 249.858 407.808 249.74 407.898 249.604C407.987 249.467 408.054 249.319 408.097 249.158L409.021 249.421C408.942 249.689 408.824 249.929 408.666 250.141C408.512 250.348 408.328 250.527 408.113 250.678C407.898 250.825 407.66 250.936 407.398 251.011C407.137 251.09 406.86 251.129 406.566 251.129ZM412.85 251.129C412.306 251.129 411.828 251 411.416 250.742C411.008 250.484 410.689 250.123 410.46 249.657C410.231 249.192 410.116 248.651 410.116 248.035C410.116 247.409 410.231 246.862 410.46 246.397C410.689 245.928 411.008 245.564 411.416 245.307C411.828 245.049 412.306 244.92 412.85 244.92C413.398 244.92 413.878 245.049 414.29 245.307C414.701 245.564 415.022 245.928 415.251 246.397C415.48 246.862 415.595 247.409 415.595 248.035C415.595 248.651 415.48 249.192 415.251 249.657C415.022 250.123 414.701 250.484 414.29 250.742C413.878 251 413.398 251.129 412.85 251.129ZM412.85 250.264C413.255 250.264 413.588 250.16 413.849 249.953C414.111 249.745 414.304 249.473 414.429 249.136C414.555 248.796 414.617 248.429 414.617 248.035C414.617 247.638 414.555 247.269 414.429 246.929C414.304 246.585 414.111 246.309 413.849 246.102C413.588 245.89 413.255 245.785 412.85 245.785C412.449 245.785 412.12 245.89 411.862 246.102C411.604 246.309 411.412 246.583 411.287 246.923C411.162 247.264 411.099 247.634 411.099 248.035C411.099 248.429 411.162 248.796 411.287 249.136C411.412 249.473 411.604 249.745 411.862 249.953C412.12 250.16 412.449 250.264 412.85 250.264ZM419.038 251.075C418.633 251.075 418.277 250.993 417.969 250.828C417.664 250.66 417.426 250.407 417.254 250.071C417.086 249.734 417.002 249.313 417.002 248.809V244.995H417.969V248.728C417.969 249.19 418.09 249.552 418.334 249.813C418.577 250.074 418.909 250.205 419.328 250.205C419.614 250.205 419.87 250.142 420.096 250.017C420.325 249.892 420.506 249.709 420.638 249.469C420.771 249.226 420.837 248.934 420.837 248.594V244.995H421.809V251H420.875V249.544H421.003C420.817 250.107 420.552 250.502 420.208 250.731C419.868 250.961 419.478 251.075 419.038 251.075ZM424.479 247.401V251H423.512V244.995H424.441L424.446 246.451H424.312C424.495 245.896 424.754 245.502 425.091 245.269C425.431 245.036 425.828 244.92 426.283 244.92C426.688 244.92 427.042 245.004 427.347 245.172C427.651 245.337 427.887 245.588 428.056 245.924C428.228 246.257 428.313 246.678 428.313 247.187V251H427.347V247.267C427.347 246.805 427.225 246.444 426.981 246.182C426.742 245.921 426.412 245.79 425.993 245.79C425.707 245.79 425.449 245.853 425.22 245.978C424.991 246.103 424.81 246.286 424.677 246.526C424.545 246.766 424.479 247.058 424.479 247.401ZM432.374 244.995V245.822H429.27V244.995H432.374ZM430.172 243.566H431.139V249.442C431.139 249.711 431.192 249.908 431.3 250.033C431.411 250.155 431.593 250.216 431.848 250.216C431.909 250.216 431.986 250.209 432.079 250.194C432.175 250.18 432.263 250.166 432.342 250.151L432.541 250.968C432.44 251.004 432.326 251.03 432.197 251.048C432.071 251.066 431.946 251.075 431.821 251.075C431.302 251.075 430.897 250.939 430.607 250.667C430.317 250.391 430.172 250.008 430.172 249.518V243.566Z" fill="black" fill-opacity="0.5"></path>
<rect x="390" y="179" width="36" height="36" rx="2" fill="#97BFA9"></rect>
<path d="M418 205.571H398V207H418V205.571Z" fill="black"></path>
<path d="M415.857 193.428C416.047 193.428 416.229 193.353 416.362 193.219C416.496 193.085 416.571 192.904 416.571 192.714V190.571C416.571 190.424 416.526 190.281 416.442 190.161C416.357 190.041 416.238 189.949 416.1 189.9L408.243 187.042C408.086 186.986 407.914 186.986 407.757 187.042L399.9 189.9C399.762 189.949 399.643 190.041 399.558 190.161C399.474 190.281 399.429 190.424 399.429 190.571V192.714C399.429 192.904 399.504 193.085 399.638 193.219C399.772 193.353 399.953 193.428 400.143 193.428H400.857V202.714H399.429V204.143H416.571V202.714H415.143V193.428H415.857ZM400.857 191.071L408 188.471L415.143 191.071V192H400.857V191.071ZM409.429 202.714H406.571V193.428H409.429V202.714ZM402.286 193.428H405.143V202.714H402.286V193.428ZM413.715 202.714H410.857V193.428H413.715V202.714Z" fill="black"></path>
<defs>
<filter id="filter0_i_220_66156" x="223" y="31" width="254" height="254" filterUnits="userSpaceOnUse" color-interpolation-filters="sRGB">
<feFlood flood-opacity="0" result="BackgroundImageFix"></feFlood>
<feBlend mode="normal" in="SourceGraphic" in2="BackgroundImageFix" result="shape"></feBlend>
<feColorMatrix in="SourceAlpha" type="matrix" values="0 0 0 0 0 0 0 0 0 0 0 0 0 0 0 0 0 0 127 0" result="hardAlpha"></feColorMatrix>
<feOffset></feOffset>
<feGaussianBlur stdDeviation="46"></feGaussianBlur>
<feComposite in2="hardAlpha" operator="arithmetic" k2="-1" k3="1"></feComposite>
<feColorMatrix type="matrix" values="0 0 0 0 0 0 0 0 0 0 0 0 0 0 0 0 0 0 0.1 0"></feColorMatrix>
<feBlend mode="normal" in2="shape" result="effect1_innerShadow_220_66156"></feBlend>
</filter>
</defs>
</svg>
