<svg width="800" height="600" viewBox="0 0 800 600" fill="none" xmlns="http://www.w3.org/2000/svg">
<rect width="800" height="600" fill="#F6F6F2"></rect>
<rect x="240" y="299" width="227" height="7" fill="#E3E3E3"></rect>
<g clip-path="url(#clip0_247_24828)">
<rect x="467" y="89" width="288" height="422" rx="4" fill="white"></rect>
<rect width="288" height="12" transform="matrix(-1 0 0 1 755 89)" fill="url(#paint0_linear_247_24828)"></rect>
<path d="M556.395 326V313.625H558.762V315.629H558.809C559.035 314.949 559.391 314.422 559.875 314.047C560.367 313.664 561.008 313.473 561.797 313.473C561.984 313.473 562.156 313.48 562.312 313.496C562.477 313.504 562.605 313.516 562.699 313.531V315.84C562.605 315.816 562.438 315.793 562.195 315.77C561.953 315.738 561.688 315.723 561.398 315.723C560.938 315.723 560.512 315.828 560.121 316.039C559.738 316.25 559.434 316.574 559.207 317.012C558.98 317.449 558.867 318.008 558.867 318.688V326H556.395ZM569.648 326.281C568.422 326.281 567.367 326.004 566.484 325.449C565.609 324.895 564.934 324.133 564.457 323.164C563.988 322.188 563.754 321.078 563.754 319.836C563.754 318.57 564 317.453 564.492 316.484C564.984 315.508 565.664 314.742 566.531 314.188C567.398 313.625 568.395 313.344 569.52 313.344C570.395 313.344 571.184 313.5 571.887 313.812C572.598 314.125 573.207 314.57 573.715 315.148C574.223 315.719 574.613 316.398 574.887 317.188C575.16 317.977 575.297 318.852 575.297 319.812V320.48H564.867V318.605H573.996L572.906 319.18C572.906 318.414 572.77 317.75 572.496 317.188C572.223 316.617 571.832 316.18 571.324 315.875C570.824 315.562 570.23 315.406 569.543 315.406C568.863 315.406 568.273 315.562 567.773 315.875C567.273 316.18 566.883 316.617 566.602 317.188C566.328 317.75 566.191 318.414 566.191 319.18V320.246C566.191 321.027 566.328 321.719 566.602 322.32C566.875 322.914 567.27 323.379 567.785 323.715C568.309 324.051 568.941 324.219 569.684 324.219C570.223 324.219 570.699 324.137 571.113 323.973C571.527 323.801 571.871 323.566 572.145 323.27C572.418 322.973 572.613 322.629 572.73 322.238H575.109C574.961 323.035 574.629 323.738 574.113 324.348C573.605 324.949 572.965 325.422 572.191 325.766C571.426 326.109 570.578 326.281 569.648 326.281ZM582.738 326.281C581.559 326.281 580.527 326.008 579.645 325.461C578.762 324.914 578.07 324.156 577.57 323.188C577.078 322.211 576.832 321.094 576.832 319.836C576.832 318.562 577.078 317.438 577.57 316.461C578.07 315.484 578.762 314.723 579.645 314.176C580.527 313.621 581.559 313.344 582.738 313.344C583.473 313.344 584.152 313.457 584.777 313.684C585.41 313.902 585.965 314.215 586.441 314.621C586.918 315.02 587.301 315.496 587.59 316.051C587.887 316.598 588.074 317.199 588.152 317.855H585.691C585.629 317.504 585.52 317.184 585.363 316.895C585.207 316.605 585.004 316.355 584.754 316.145C584.504 315.934 584.211 315.77 583.875 315.652C583.547 315.535 583.172 315.477 582.75 315.477C582.039 315.477 581.43 315.656 580.922 316.016C580.414 316.375 580.023 316.883 579.75 317.539C579.477 318.188 579.34 318.953 579.34 319.836C579.34 320.711 579.477 321.473 579.75 322.121C580.023 322.762 580.414 323.262 580.922 323.621C581.43 323.973 582.039 324.148 582.75 324.148C583.172 324.148 583.547 324.094 583.875 323.984C584.203 323.867 584.484 323.703 584.719 323.492C584.953 323.281 585.148 323.031 585.305 322.742C585.461 322.445 585.578 322.117 585.656 321.758H588.152C588.082 322.406 587.898 323.004 587.602 323.551C587.312 324.098 586.926 324.578 586.441 324.992C585.965 325.398 585.41 325.715 584.777 325.941C584.152 326.168 583.473 326.281 582.738 326.281ZM595.582 326.281C594.402 326.281 593.367 326.008 592.477 325.461C591.586 324.914 590.891 324.156 590.391 323.188C589.898 322.219 589.652 321.102 589.652 319.836C589.652 318.555 589.898 317.43 590.391 316.461C590.891 315.484 591.586 314.723 592.477 314.176C593.367 313.621 594.402 313.344 595.582 313.344C596.762 313.344 597.793 313.621 598.676 314.176C599.566 314.723 600.258 315.484 600.75 316.461C601.25 317.43 601.5 318.555 601.5 319.836C601.5 321.102 601.25 322.219 600.75 323.188C600.258 324.156 599.566 324.914 598.676 325.461C597.793 326.008 596.762 326.281 595.582 326.281ZM595.582 324.148C596.285 324.148 596.891 323.973 597.398 323.621C597.914 323.262 598.309 322.758 598.582 322.109C598.863 321.461 599.004 320.703 599.004 319.836C599.004 318.945 598.863 318.176 598.582 317.527C598.309 316.879 597.914 316.375 597.398 316.016C596.891 315.656 596.285 315.477 595.582 315.477C594.879 315.477 594.27 315.656 593.754 316.016C593.246 316.367 592.852 316.871 592.57 317.527C592.297 318.176 592.16 318.945 592.16 319.836C592.16 320.711 592.297 321.473 592.57 322.121C592.852 322.762 593.246 323.262 593.754 323.621C594.262 323.973 594.871 324.148 595.582 324.148ZM606.164 318.875V326H603.691V313.625H606.117V316.695H605.543C605.949 315.586 606.512 314.758 607.23 314.211C607.957 313.656 608.832 313.379 609.855 313.379C610.707 313.379 611.469 313.566 612.141 313.941C612.82 314.309 613.355 314.855 613.746 315.582C614.137 316.309 614.332 317.211 614.332 318.289V326H611.859V318.594C611.859 317.602 611.621 316.855 611.145 316.355C610.676 315.848 610.012 315.594 609.152 315.594C608.59 315.594 608.082 315.707 607.629 315.934C607.184 316.16 606.828 316.516 606.562 317C606.297 317.484 606.164 318.109 606.164 318.875ZM622.418 326.281C621.238 326.281 620.207 326.008 619.324 325.461C618.441 324.914 617.75 324.156 617.25 323.188C616.758 322.211 616.512 321.094 616.512 319.836C616.512 318.562 616.758 317.438 617.25 316.461C617.75 315.484 618.441 314.723 619.324 314.176C620.207 313.621 621.238 313.344 622.418 313.344C623.152 313.344 623.832 313.457 624.457 313.684C625.09 313.902 625.645 314.215 626.121 314.621C626.598 315.02 626.98 315.496 627.27 316.051C627.566 316.598 627.754 317.199 627.832 317.855H625.371C625.309 317.504 625.199 317.184 625.043 316.895C624.887 316.605 624.684 316.355 624.434 316.145C624.184 315.934 623.891 315.77 623.555 315.652C623.227 315.535 622.852 315.477 622.43 315.477C621.719 315.477 621.109 315.656 620.602 316.016C620.094 316.375 619.703 316.883 619.43 317.539C619.156 318.188 619.02 318.953 619.02 319.836C619.02 320.711 619.156 321.473 619.43 322.121C619.703 322.762 620.094 323.262 620.602 323.621C621.109 323.973 621.719 324.148 622.43 324.148C622.852 324.148 623.227 324.094 623.555 323.984C623.883 323.867 624.164 323.703 624.398 323.492C624.633 323.281 624.828 323.031 624.984 322.742C625.141 322.445 625.258 322.117 625.336 321.758H627.832C627.762 322.406 627.578 323.004 627.281 323.551C626.992 324.098 626.605 324.578 626.121 324.992C625.645 325.398 625.09 325.715 624.457 325.941C623.832 326.168 623.152 326.281 622.418 326.281ZM629.941 326V313.625H632.414V326H629.941ZM631.172 311.492C630.734 311.492 630.363 311.348 630.059 311.059C629.762 310.762 629.613 310.402 629.613 309.98C629.613 309.551 629.762 309.191 630.059 308.902C630.363 308.605 630.734 308.457 631.172 308.457C631.609 308.457 631.98 308.605 632.285 308.902C632.59 309.191 632.742 309.551 632.742 309.98C632.742 310.402 632.59 310.762 632.285 311.059C631.98 311.348 631.609 311.492 631.172 311.492ZM637.688 308.539V326H635.215V308.539H637.688ZM645.773 326.281C644.547 326.281 643.492 326.004 642.609 325.449C641.734 324.895 641.059 324.133 640.582 323.164C640.113 322.188 639.879 321.078 639.879 319.836C639.879 318.57 640.125 317.453 640.617 316.484C641.109 315.508 641.789 314.742 642.656 314.188C643.523 313.625 644.52 313.344 645.645 313.344C646.52 313.344 647.309 313.5 648.012 313.812C648.723 314.125 649.332 314.57 649.84 315.148C650.348 315.719 650.738 316.398 651.012 317.188C651.285 317.977 651.422 318.852 651.422 319.812V320.48H640.992V318.605H650.121L649.031 319.18C649.031 318.414 648.895 317.75 648.621 317.188C648.348 316.617 647.957 316.18 647.449 315.875C646.949 315.562 646.355 315.406 645.668 315.406C644.988 315.406 644.398 315.562 643.898 315.875C643.398 316.18 643.008 316.617 642.727 317.188C642.453 317.75 642.316 318.414 642.316 319.18V320.246C642.316 321.027 642.453 321.719 642.727 322.32C643 322.914 643.395 323.379 643.91 323.715C644.434 324.051 645.066 324.219 645.809 324.219C646.348 324.219 646.824 324.137 647.238 323.973C647.652 323.801 647.996 323.566 648.27 323.27C648.543 322.973 648.738 322.629 648.855 322.238H651.234C651.086 323.035 650.754 323.738 650.238 324.348C649.73 324.949 649.09 325.422 648.316 325.766C647.551 326.109 646.703 326.281 645.773 326.281ZM658.324 326.246C657.254 326.246 656.312 325.977 655.5 325.438C654.695 324.891 654.07 324.137 653.625 323.176C653.18 322.207 652.957 321.086 652.957 319.812C652.957 318.539 653.18 317.422 653.625 316.461C654.078 315.492 654.707 314.738 655.512 314.199C656.316 313.652 657.25 313.379 658.312 313.379C658.852 313.379 659.359 313.457 659.836 313.613C660.312 313.762 660.742 313.984 661.125 314.281C661.516 314.578 661.844 314.957 662.109 315.418H662.133V308.539H664.605V326H662.18V324.113H662.156C661.875 324.59 661.539 324.988 661.148 325.309C660.758 325.621 660.324 325.855 659.848 326.012C659.371 326.168 658.863 326.246 658.324 326.246ZM658.828 324.113C659.531 324.113 660.141 323.938 660.656 323.586C661.18 323.227 661.582 322.723 661.863 322.074C662.152 321.426 662.297 320.672 662.297 319.812C662.297 318.938 662.152 318.18 661.863 317.539C661.582 316.891 661.18 316.391 660.656 316.039C660.141 315.68 659.531 315.5 658.828 315.5C658.164 315.5 657.578 315.664 657.07 315.992C656.57 316.32 656.176 316.805 655.887 317.445C655.605 318.086 655.465 318.875 655.465 319.812C655.465 320.742 655.605 321.527 655.887 322.168C656.176 322.801 656.57 323.285 657.07 323.621C657.578 323.949 658.164 324.113 658.828 324.113ZM544.336 352.199C543.516 352.199 542.781 352.059 542.133 351.777C541.492 351.496 540.984 351.078 540.609 350.523C540.234 349.969 540.047 349.281 540.047 348.461C540.047 347.758 540.18 347.18 540.445 346.727C540.719 346.273 541.086 345.914 541.547 345.648C542.008 345.383 542.531 345.184 543.117 345.051C543.703 344.91 544.309 344.805 544.934 344.734C545.715 344.633 546.328 344.555 546.773 344.5C547.227 344.438 547.547 344.344 547.734 344.219C547.93 344.086 548.027 343.871 548.027 343.574V343.469C548.027 343.07 547.93 342.719 547.734 342.414C547.539 342.102 547.254 341.855 546.879 341.676C546.504 341.496 546.055 341.406 545.531 341.406C545.008 341.406 544.543 341.492 544.137 341.664C543.738 341.836 543.418 342.074 543.176 342.379C542.941 342.676 542.809 343.016 542.777 343.398H540.352C540.391 342.609 540.629 341.914 541.066 341.312C541.504 340.711 542.105 340.238 542.871 339.895C543.637 339.551 544.535 339.379 545.566 339.379C546.324 339.379 547.008 339.477 547.617 339.672C548.227 339.867 548.742 340.148 549.164 340.516C549.594 340.875 549.918 341.309 550.137 341.816C550.363 342.324 550.477 342.891 550.477 343.516V352H548.039V350.242H547.992C547.82 350.578 547.586 350.895 547.289 351.191C546.992 351.488 546.602 351.73 546.117 351.918C545.641 352.105 545.047 352.199 544.336 352.199ZM544.84 350.207C545.566 350.207 546.164 350.078 546.633 349.82C547.109 349.555 547.461 349.207 547.688 348.777C547.922 348.348 548.039 347.879 548.039 347.371V345.918C547.953 345.988 547.812 346.055 547.617 346.117C547.43 346.172 547.199 346.227 546.926 346.281C546.652 346.328 546.355 346.379 546.035 346.434C545.715 346.488 545.395 346.535 545.074 346.574C544.621 346.637 544.199 346.742 543.809 346.891C543.418 347.031 543.102 347.23 542.859 347.488C542.625 347.746 542.508 348.086 542.508 348.508C542.508 348.859 542.602 349.164 542.789 349.422C542.977 349.672 543.246 349.867 543.598 350.008C543.949 350.141 544.363 350.207 544.84 350.207ZM557.742 352.246C556.898 352.246 556.137 352.062 555.457 351.695C554.777 351.32 554.242 350.77 553.852 350.043C553.461 349.309 553.266 348.406 553.266 347.336V339.625H555.738V347.031C555.738 348.016 555.977 348.762 556.453 349.27C556.93 349.777 557.598 350.031 558.457 350.031C559.012 350.031 559.512 349.918 559.957 349.691C560.41 349.465 560.77 349.109 561.035 348.625C561.301 348.133 561.434 347.508 561.434 346.75V339.625H563.906V352H561.48V348.93H562.055C561.656 350.031 561.094 350.859 560.367 351.414C559.648 351.969 558.773 352.246 557.742 352.246ZM572.66 339.625V341.664H565.488V339.625H572.66ZM567.668 336.25H570.141V348.73C570.141 349.184 570.234 349.504 570.422 349.691C570.617 349.871 570.961 349.961 571.453 349.961C571.641 349.961 571.848 349.961 572.074 349.961C572.301 349.961 572.496 349.961 572.66 349.961V352C572.457 352 572.211 352 571.922 352C571.641 352 571.367 352 571.102 352C569.938 352 569.074 351.758 568.512 351.273C567.949 350.781 567.668 350.039 567.668 349.047V336.25ZM579.727 352.281C578.547 352.281 577.512 352.008 576.621 351.461C575.73 350.914 575.035 350.156 574.535 349.188C574.043 348.219 573.797 347.102 573.797 345.836C573.797 344.555 574.043 343.43 574.535 342.461C575.035 341.484 575.73 340.723 576.621 340.176C577.512 339.621 578.547 339.344 579.727 339.344C580.906 339.344 581.938 339.621 582.82 340.176C583.711 340.723 584.402 341.484 584.895 342.461C585.395 343.43 585.645 344.555 585.645 345.836C585.645 347.102 585.395 348.219 584.895 349.188C584.402 350.156 583.711 350.914 582.82 351.461C581.938 352.008 580.906 352.281 579.727 352.281ZM579.727 350.148C580.43 350.148 581.035 349.973 581.543 349.621C582.059 349.262 582.453 348.758 582.727 348.109C583.008 347.461 583.148 346.703 583.148 345.836C583.148 344.945 583.008 344.176 582.727 343.527C582.453 342.879 582.059 342.375 581.543 342.016C581.035 341.656 580.43 341.477 579.727 341.477C579.023 341.477 578.414 341.656 577.898 342.016C577.391 342.367 576.996 342.871 576.715 343.527C576.441 344.176 576.305 344.945 576.305 345.836C576.305 346.711 576.441 347.473 576.715 348.121C576.996 348.762 577.391 349.262 577.898 349.621C578.406 349.973 579.016 350.148 579.727 350.148ZM587.836 352V339.625H590.238V342.238H590.004C590.238 341.613 590.551 341.09 590.941 340.668C591.34 340.238 591.797 339.918 592.312 339.707C592.828 339.488 593.367 339.379 593.93 339.379C594.891 339.379 595.711 339.656 596.391 340.211C597.078 340.758 597.5 341.434 597.656 342.238H597.27C597.441 341.691 597.719 341.203 598.102 340.773C598.492 340.344 598.969 340.004 599.531 339.754C600.094 339.504 600.719 339.379 601.406 339.379C602.18 339.379 602.879 339.547 603.504 339.883C604.129 340.219 604.625 340.719 604.992 341.383C605.359 342.039 605.543 342.863 605.543 343.855V352H603.059V344.066C603.059 343.184 602.812 342.543 602.32 342.145C601.828 341.746 601.246 341.547 600.574 341.547C600.027 341.547 599.555 341.664 599.156 341.898C598.758 342.133 598.449 342.453 598.23 342.859C598.012 343.266 597.902 343.734 597.902 344.266V352H595.465V343.902C595.465 343.191 595.234 342.621 594.773 342.191C594.32 341.762 593.742 341.547 593.039 341.547C592.562 341.547 592.113 341.66 591.691 341.887C591.277 342.113 590.941 342.449 590.684 342.895C590.434 343.332 590.309 343.879 590.309 344.535V352H587.836ZM612.117 352.199C611.297 352.199 610.562 352.059 609.914 351.777C609.273 351.496 608.766 351.078 608.391 350.523C608.016 349.969 607.828 349.281 607.828 348.461C607.828 347.758 607.961 347.18 608.227 346.727C608.5 346.273 608.867 345.914 609.328 345.648C609.789 345.383 610.312 345.184 610.898 345.051C611.484 344.91 612.09 344.805 612.715 344.734C613.496 344.633 614.109 344.555 614.555 344.5C615.008 344.438 615.328 344.344 615.516 344.219C615.711 344.086 615.809 343.871 615.809 343.574V343.469C615.809 343.07 615.711 342.719 615.516 342.414C615.32 342.102 615.035 341.855 614.66 341.676C614.285 341.496 613.836 341.406 613.312 341.406C612.789 341.406 612.324 341.492 611.918 341.664C611.52 341.836 611.199 342.074 610.957 342.379C610.723 342.676 610.59 343.016 610.559 343.398H608.133C608.172 342.609 608.41 341.914 608.848 341.312C609.285 340.711 609.887 340.238 610.652 339.895C611.418 339.551 612.316 339.379 613.348 339.379C614.105 339.379 614.789 339.477 615.398 339.672C616.008 339.867 616.523 340.148 616.945 340.516C617.375 340.875 617.699 341.309 617.918 341.816C618.145 342.324 618.258 342.891 618.258 343.516V352H615.82V350.242H615.773C615.602 350.578 615.367 350.895 615.07 351.191C614.773 351.488 614.383 351.73 613.898 351.918C613.422 352.105 612.828 352.199 612.117 352.199ZM612.621 350.207C613.348 350.207 613.945 350.078 614.414 349.82C614.891 349.555 615.242 349.207 615.469 348.777C615.703 348.348 615.82 347.879 615.82 347.371V345.918C615.734 345.988 615.594 346.055 615.398 346.117C615.211 346.172 614.98 346.227 614.707 346.281C614.434 346.328 614.137 346.379 613.816 346.434C613.496 346.488 613.176 346.535 612.855 346.574C612.402 346.637 611.98 346.742 611.59 346.891C611.199 347.031 610.883 347.23 610.641 347.488C610.406 347.746 610.289 348.086 610.289 348.508C610.289 348.859 610.383 349.164 610.57 349.422C610.758 349.672 611.027 349.867 611.379 350.008C611.73 350.141 612.145 350.207 612.621 350.207ZM627.012 339.625V341.664H619.84V339.625H627.012ZM622.02 336.25H624.492V348.73C624.492 349.184 624.586 349.504 624.773 349.691C624.969 349.871 625.312 349.961 625.805 349.961C625.992 349.961 626.199 349.961 626.426 349.961C626.652 349.961 626.848 349.961 627.012 349.961V352C626.809 352 626.562 352 626.273 352C625.992 352 625.719 352 625.453 352C624.289 352 623.426 351.758 622.863 351.273C622.301 350.781 622.02 350.039 622.02 349.047V336.25ZM628.969 352V339.625H631.441V352H628.969ZM630.199 337.492C629.762 337.492 629.391 337.348 629.086 337.059C628.789 336.762 628.641 336.402 628.641 335.98C628.641 335.551 628.789 335.191 629.086 334.902C629.391 334.605 629.762 334.457 630.199 334.457C630.637 334.457 631.008 334.605 631.312 334.902C631.617 335.191 631.77 335.551 631.77 335.98C631.77 336.402 631.617 336.762 631.312 337.059C631.008 337.348 630.637 337.492 630.199 337.492ZM639.539 352.281C638.359 352.281 637.328 352.008 636.445 351.461C635.562 350.914 634.871 350.156 634.371 349.188C633.879 348.211 633.633 347.094 633.633 345.836C633.633 344.562 633.879 343.438 634.371 342.461C634.871 341.484 635.562 340.723 636.445 340.176C637.328 339.621 638.359 339.344 639.539 339.344C640.273 339.344 640.953 339.457 641.578 339.684C642.211 339.902 642.766 340.215 643.242 340.621C643.719 341.02 644.102 341.496 644.391 342.051C644.688 342.598 644.875 343.199 644.953 343.855H642.492C642.43 343.504 642.32 343.184 642.164 342.895C642.008 342.605 641.805 342.355 641.555 342.145C641.305 341.934 641.012 341.77 640.676 341.652C640.348 341.535 639.973 341.477 639.551 341.477C638.84 341.477 638.23 341.656 637.723 342.016C637.215 342.375 636.824 342.883 636.551 343.539C636.277 344.188 636.141 344.953 636.141 345.836C636.141 346.711 636.277 347.473 636.551 348.121C636.824 348.762 637.215 349.262 637.723 349.621C638.23 349.973 638.84 350.148 639.551 350.148C639.973 350.148 640.348 350.094 640.676 349.984C641.004 349.867 641.285 349.703 641.52 349.492C641.754 349.281 641.949 349.031 642.105 348.742C642.262 348.445 642.379 348.117 642.457 347.758H644.953C644.883 348.406 644.699 349.004 644.402 349.551C644.113 350.098 643.727 350.578 643.242 350.992C642.766 351.398 642.211 351.715 641.578 351.941C640.953 352.168 640.273 352.281 639.539 352.281ZM650.977 352.199C650.156 352.199 649.422 352.059 648.773 351.777C648.133 351.496 647.625 351.078 647.25 350.523C646.875 349.969 646.688 349.281 646.688 348.461C646.688 347.758 646.82 347.18 647.086 346.727C647.359 346.273 647.727 345.914 648.188 345.648C648.648 345.383 649.172 345.184 649.758 345.051C650.344 344.91 650.949 344.805 651.574 344.734C652.355 344.633 652.969 344.555 653.414 344.5C653.867 344.438 654.188 344.344 654.375 344.219C654.57 344.086 654.668 343.871 654.668 343.574V343.469C654.668 343.07 654.57 342.719 654.375 342.414C654.18 342.102 653.895 341.855 653.52 341.676C653.145 341.496 652.695 341.406 652.172 341.406C651.648 341.406 651.184 341.492 650.777 341.664C650.379 341.836 650.059 342.074 649.816 342.379C649.582 342.676 649.449 343.016 649.418 343.398H646.992C647.031 342.609 647.27 341.914 647.707 341.312C648.145 340.711 648.746 340.238 649.512 339.895C650.277 339.551 651.176 339.379 652.207 339.379C652.965 339.379 653.648 339.477 654.258 339.672C654.867 339.867 655.383 340.148 655.805 340.516C656.234 340.875 656.559 341.309 656.777 341.816C657.004 342.324 657.117 342.891 657.117 343.516V352H654.68V350.242H654.633C654.461 350.578 654.227 350.895 653.93 351.191C653.633 351.488 653.242 351.73 652.758 351.918C652.281 352.105 651.688 352.199 650.977 352.199ZM651.48 350.207C652.207 350.207 652.805 350.078 653.273 349.82C653.75 349.555 654.102 349.207 654.328 348.777C654.562 348.348 654.68 347.879 654.68 347.371V345.918C654.594 345.988 654.453 346.055 654.258 346.117C654.07 346.172 653.84 346.227 653.566 346.281C653.293 346.328 652.996 346.379 652.676 346.434C652.355 346.488 652.035 346.535 651.715 346.574C651.262 346.637 650.84 346.742 650.449 346.891C650.059 347.031 649.742 347.23 649.5 347.488C649.266 347.746 649.148 348.086 649.148 348.508C649.148 348.859 649.242 349.164 649.43 349.422C649.617 349.672 649.887 349.867 650.238 350.008C650.59 350.141 651.004 350.207 651.48 350.207ZM662.379 334.539V352H659.906V334.539H662.379ZM667.652 334.539V352H665.18V334.539H667.652ZM670.758 356.898V354.812H672.094C672.359 354.812 672.586 354.762 672.773 354.66C672.961 354.566 673.129 354.414 673.277 354.203C673.434 353.992 673.574 353.723 673.699 353.395L674.262 351.918L669.48 339.625H672.129L674.602 346.41C674.828 347.051 675.047 347.691 675.258 348.332C675.477 348.965 675.684 349.602 675.879 350.242H675.211C675.406 349.602 675.609 348.965 675.82 348.332C676.039 347.691 676.262 347.051 676.488 346.41L678.926 339.625H681.539L675.914 354.168C675.68 354.77 675.391 355.27 675.047 355.668C674.703 356.074 674.305 356.379 673.852 356.582C673.398 356.793 672.891 356.898 672.328 356.898C672.07 356.898 671.809 356.898 671.543 356.898C671.277 356.898 671.016 356.898 670.758 356.898Z" fill="#151515"></path>
<path d="M574.687 233.609C572.402 233.609 570.371 233.178 568.593 232.314C566.833 231.434 565.411 230.215 564.328 228.658C563.261 227.084 562.609 225.29 562.373 223.275H567.781C568.119 224.985 568.864 226.348 570.015 227.363C571.183 228.379 572.681 228.887 574.509 228.887C576.574 228.887 578.275 228.311 579.613 227.16C580.967 225.992 581.974 224.376 582.634 222.311C583.294 220.245 583.624 217.884 583.624 215.227H583.574C582.981 216.191 582.22 217.012 581.289 217.689C580.358 218.367 579.3 218.883 578.115 219.238C576.93 219.594 575.669 219.771 574.331 219.771C572.012 219.771 569.93 219.23 568.085 218.146C566.257 217.063 564.818 215.582 563.769 213.703C562.72 211.807 562.195 209.666 562.195 207.279C562.195 204.757 562.753 202.54 563.871 200.627C564.988 198.714 566.528 197.225 568.492 196.158C570.472 195.092 572.74 194.559 575.296 194.559C577.48 194.559 579.418 194.965 581.111 195.777C582.803 196.573 584.234 197.749 585.402 199.307C586.587 200.864 587.484 202.768 588.093 205.02C588.72 207.254 589.033 209.81 589.033 212.688C589.033 215.853 588.736 218.722 588.144 221.295C587.552 223.851 586.663 226.051 585.478 227.896C584.293 229.742 582.795 231.155 580.984 232.137C579.19 233.118 577.091 233.609 574.687 233.609ZM575.169 215.1C576.253 215.1 577.26 214.905 578.191 214.516C579.139 214.109 579.968 213.551 580.679 212.84C581.39 212.112 581.94 211.274 582.33 210.326C582.736 209.378 582.939 208.346 582.939 207.229C582.939 205.739 582.6 204.402 581.923 203.217C581.246 202.015 580.324 201.067 579.156 200.373C578.005 199.662 576.718 199.307 575.296 199.307C573.874 199.307 572.58 199.662 571.412 200.373C570.244 201.067 569.313 202.015 568.619 203.217C567.942 204.419 567.603 205.773 567.603 207.279C567.603 208.769 567.933 210.106 568.593 211.291C569.27 212.459 570.184 213.39 571.335 214.084C572.486 214.761 573.764 215.1 575.169 215.1ZM604.764 233.533C602.258 233.533 600.016 233.025 598.035 232.01C596.055 230.994 594.48 229.606 593.312 227.846C592.145 226.085 591.501 224.071 591.383 221.803H596.893C596.994 223.157 597.392 224.359 598.086 225.408C598.797 226.458 599.728 227.287 600.879 227.896C602.03 228.489 603.333 228.785 604.789 228.785C606.312 228.785 607.65 228.438 608.801 227.744C609.952 227.033 610.849 226.06 611.492 224.824C612.135 223.572 612.457 222.15 612.457 220.559C612.457 218.951 612.144 217.529 611.518 216.293C610.908 215.057 610.045 214.092 608.928 213.398C607.811 212.688 606.516 212.332 605.043 212.332C603.113 212.332 601.454 212.73 600.066 213.525C598.678 214.304 597.714 215.438 597.172 216.928H591.865L593.109 195.168H615.732V199.992H598.162L597.324 211.139H597.375C598.509 209.954 599.779 209.074 601.184 208.498C602.605 207.906 604.171 207.609 605.881 207.609C607.607 207.609 609.199 207.931 610.654 208.574C612.127 209.201 613.396 210.089 614.463 211.24C615.546 212.391 616.384 213.754 616.977 215.328C617.569 216.885 617.865 218.595 617.865 220.457C617.865 223.013 617.315 225.273 616.215 227.236C615.132 229.2 613.608 230.74 611.645 231.857C609.681 232.975 607.387 233.533 604.764 233.533ZM629.838 213.043C628.213 213.043 626.783 212.662 625.547 211.9C624.329 211.139 623.381 210.089 622.704 208.752C622.027 207.415 621.688 205.891 621.688 204.182V203.42C621.688 201.71 622.027 200.187 622.704 198.85C623.381 197.512 624.329 196.463 625.547 195.701C626.783 194.939 628.213 194.559 629.838 194.559C631.48 194.559 632.911 194.939 634.129 195.701C635.348 196.463 636.296 197.512 636.973 198.85C637.65 200.187 637.989 201.71 637.989 203.42V204.182C637.989 205.891 637.65 207.415 636.973 208.752C636.296 210.089 635.348 211.139 634.129 211.9C632.911 212.662 631.48 213.043 629.838 213.043ZM629.838 209.311C631.006 209.311 631.929 208.862 632.606 207.965C633.283 207.068 633.622 205.807 633.622 204.182V203.42C633.622 201.812 633.283 200.559 632.606 199.662C631.929 198.748 631.006 198.291 629.838 198.291C628.687 198.291 627.765 198.748 627.071 199.662C626.394 200.559 626.055 201.812 626.055 203.42V204.182C626.055 205.807 626.394 207.068 627.071 207.965C627.765 208.862 628.687 209.311 629.838 209.311ZM652.411 233.609C650.769 233.609 649.338 233.229 648.12 232.467C646.901 231.705 645.945 230.656 645.251 229.318C644.573 227.981 644.235 226.458 644.235 224.748V223.986C644.235 222.277 644.573 220.753 645.251 219.416C645.945 218.079 646.901 217.029 648.12 216.268C649.338 215.506 650.769 215.125 652.411 215.125C654.053 215.125 655.475 215.506 656.676 216.268C657.895 217.029 658.843 218.079 659.52 219.416C660.214 220.753 660.561 222.277 660.561 223.986V224.748C660.561 226.458 660.214 227.981 659.52 229.318C658.843 230.656 657.895 231.705 656.676 232.467C655.475 233.229 654.053 233.609 652.411 233.609ZM652.411 229.852C653.562 229.852 654.476 229.411 655.153 228.531C655.83 227.634 656.169 226.373 656.169 224.748V223.986C656.169 222.361 655.83 221.1 655.153 220.203C654.476 219.306 653.562 218.857 652.411 218.857C651.243 218.857 650.312 219.306 649.618 220.203C648.941 221.1 648.602 222.361 648.602 223.986V224.748C648.602 226.373 648.941 227.634 649.618 228.531C650.312 229.411 651.243 229.852 652.411 229.852ZM625.649 233L651.649 195.168H656.448L630.448 233H625.649Z" fill="#151515"></path>
<path d="M693 214C693 259.287 656.287 296 611 296C565.713 296 529 259.287 529 214C529 168.713 565.713 132 611 132C656.287 132 693 168.713 693 214ZM546.013 214C546.013 249.891 575.109 278.987 611 278.987C646.891 278.987 675.987 249.891 675.987 214C675.987 178.109 646.891 149.013 611 149.013C575.109 149.013 546.013 178.109 546.013 214Z" fill="#E3E3E3"></path>
<path d="M611 132C631.527 132 651.308 139.699 666.434 153.576C681.56 167.453 690.932 186.499 692.696 206.95C694.461 227.402 688.491 247.771 675.966 264.034C663.441 280.297 645.271 291.271 625.047 294.788C604.824 298.304 584.016 294.108 566.736 283.027C549.457 271.946 536.961 254.788 531.719 234.941C526.477 215.094 528.869 194.003 538.423 175.835C547.977 157.666 563.998 143.742 583.32 136.813L589.063 152.828C573.75 158.319 561.053 169.355 553.481 183.753C545.91 198.152 544.014 214.867 548.168 230.596C552.323 246.325 562.226 259.924 575.92 268.705C589.615 277.487 606.105 280.813 622.133 278.026C638.161 275.239 652.56 266.542 662.487 253.653C672.413 240.764 677.145 224.621 675.746 208.413C674.347 192.205 666.92 177.111 654.933 166.113C642.945 155.115 627.268 149.013 611 149.013L611 132Z" fill="#008060"></path>
<mask id="path-9-inside-1_247_24828" fill="white">
<path d="M469 385H753V511H469V385Z"></path>
</mask>
<path d="M469 386H753V384H469V386Z" fill="#E3E3E3" mask="url(#path-9-inside-1_247_24828)"></path>
<path d="M489.328 410.147V408.814H497.333V410.147H494.1V419H492.575V410.147H489.328ZM497.278 419V411.781H498.659V412.95H498.687C498.819 412.554 499.026 412.246 499.309 412.027C499.596 411.804 499.969 411.692 500.43 411.692C500.539 411.692 500.639 411.697 500.73 411.706C500.826 411.711 500.901 411.717 500.956 411.727V413.073C500.901 413.06 500.803 413.046 500.662 413.032C500.521 413.014 500.366 413.005 500.197 413.005C499.928 413.005 499.68 413.066 499.452 413.189C499.229 413.312 499.051 413.502 498.919 413.757C498.787 414.012 498.721 414.338 498.721 414.734V419H497.278ZM504.06 419.116C503.581 419.116 503.153 419.034 502.774 418.87C502.401 418.706 502.104 418.462 501.886 418.139C501.667 417.815 501.558 417.414 501.558 416.936C501.558 416.525 501.635 416.188 501.79 415.924C501.95 415.66 502.164 415.45 502.433 415.295C502.701 415.14 503.007 415.024 503.349 414.946C503.69 414.864 504.044 414.803 504.408 414.762C504.864 414.702 505.222 414.657 505.481 414.625C505.746 414.589 505.933 414.534 506.042 414.461C506.156 414.383 506.213 414.258 506.213 414.085V414.023C506.213 413.791 506.156 413.586 506.042 413.408C505.928 413.226 505.762 413.082 505.543 412.978C505.324 412.873 505.062 412.82 504.757 412.82C504.451 412.82 504.18 412.87 503.943 412.971C503.711 413.071 503.524 413.21 503.383 413.388C503.246 413.561 503.169 413.759 503.15 413.982H501.735C501.758 413.522 501.897 413.117 502.152 412.766C502.408 412.415 502.758 412.139 503.205 411.938C503.652 411.738 504.176 411.638 504.777 411.638C505.219 411.638 505.618 411.695 505.974 411.809C506.329 411.923 506.63 412.087 506.876 412.301C507.127 412.51 507.316 412.763 507.443 413.06C507.576 413.356 507.642 413.686 507.642 414.051V419H506.22V417.975H506.192C506.092 418.171 505.955 418.355 505.782 418.528C505.609 418.701 505.381 418.843 505.099 418.952C504.821 419.062 504.474 419.116 504.06 419.116ZM504.354 417.954C504.777 417.954 505.126 417.879 505.399 417.729C505.677 417.574 505.882 417.371 506.015 417.12C506.151 416.869 506.22 416.596 506.22 416.3V415.452C506.17 415.493 506.088 415.532 505.974 415.568C505.864 415.6 505.73 415.632 505.57 415.664C505.411 415.691 505.238 415.721 505.051 415.753C504.864 415.785 504.677 415.812 504.49 415.835C504.226 415.871 503.98 415.933 503.752 416.02C503.524 416.102 503.34 416.218 503.198 416.368C503.062 416.519 502.993 416.717 502.993 416.963C502.993 417.168 503.048 417.346 503.157 417.496C503.267 417.642 503.424 417.756 503.629 417.838C503.834 417.915 504.076 417.954 504.354 417.954ZM510.711 414.844V419H509.269V411.781H510.684V413.572H510.349C510.586 412.925 510.914 412.442 511.333 412.123C511.757 411.799 512.267 411.638 512.864 411.638C513.361 411.638 513.805 411.747 514.197 411.966C514.594 412.18 514.906 412.499 515.134 412.923C515.362 413.347 515.476 413.873 515.476 414.502V419H514.033V414.68C514.033 414.101 513.894 413.666 513.616 413.374C513.343 413.078 512.955 412.93 512.454 412.93C512.126 412.93 511.83 412.996 511.565 413.128C511.306 413.26 511.098 413.467 510.943 413.75C510.788 414.033 510.711 414.397 510.711 414.844ZM519.775 419.171C519.224 419.171 518.727 419.082 518.285 418.904C517.843 418.727 517.488 418.462 517.219 418.111C516.95 417.76 516.797 417.325 516.761 416.806H518.183C518.224 417.193 518.376 417.494 518.641 417.708C518.91 417.918 519.279 418.022 519.748 418.022C520.208 418.022 520.571 417.929 520.835 417.742C521.099 417.555 521.231 417.318 521.231 417.031C521.231 416.785 521.136 416.589 520.944 416.443C520.757 416.293 520.507 416.184 520.192 416.115L518.996 415.849C518.317 415.698 517.802 415.45 517.451 415.104C517.1 414.757 516.925 414.317 516.925 413.784C516.925 413.356 517.039 412.98 517.267 412.656C517.499 412.333 517.823 412.08 518.237 411.897C518.652 411.715 519.135 411.624 519.687 411.624C520.229 411.624 520.71 411.72 521.129 411.911C521.553 412.103 521.885 412.374 522.127 412.725C522.373 413.076 522.503 413.495 522.517 413.982H521.136C521.131 413.632 520.999 413.342 520.739 413.114C520.479 412.882 520.135 412.766 519.707 412.766C519.297 412.766 518.971 412.861 518.729 413.053C518.488 413.244 518.367 413.479 518.367 413.757C518.367 414.003 518.458 414.201 518.641 414.352C518.827 414.502 519.083 414.614 519.406 414.687L520.637 414.96C521.343 415.115 521.86 415.354 522.188 415.678C522.521 416.001 522.688 416.425 522.688 416.949C522.688 417.41 522.56 417.806 522.305 418.139C522.054 418.467 521.71 418.722 521.272 418.904C520.835 419.082 520.336 419.171 519.775 419.171ZM526.167 419.116C525.688 419.116 525.26 419.034 524.882 418.87C524.508 418.706 524.212 418.462 523.993 418.139C523.774 417.815 523.665 417.414 523.665 416.936C523.665 416.525 523.743 416.188 523.897 415.924C524.057 415.66 524.271 415.45 524.54 415.295C524.809 415.14 525.114 415.024 525.456 414.946C525.798 414.864 526.151 414.803 526.516 414.762C526.971 414.702 527.329 414.657 527.589 414.625C527.853 414.589 528.04 414.534 528.149 414.461C528.263 414.383 528.32 414.258 528.32 414.085V414.023C528.32 413.791 528.263 413.586 528.149 413.408C528.035 413.226 527.869 413.082 527.65 412.978C527.432 412.873 527.17 412.82 526.864 412.82C526.559 412.82 526.288 412.87 526.051 412.971C525.818 413.071 525.632 413.21 525.49 413.388C525.354 413.561 525.276 413.759 525.258 413.982H523.843C523.866 413.522 524.005 413.117 524.26 412.766C524.515 412.415 524.866 412.139 525.312 411.938C525.759 411.738 526.283 411.638 526.885 411.638C527.327 411.638 527.726 411.695 528.081 411.809C528.437 411.923 528.737 412.087 528.983 412.301C529.234 412.51 529.423 412.763 529.551 413.06C529.683 413.356 529.749 413.686 529.749 414.051V419H528.327V417.975H528.3C528.2 418.171 528.063 418.355 527.89 418.528C527.716 418.701 527.489 418.843 527.206 418.952C526.928 419.062 526.582 419.116 526.167 419.116ZM526.461 417.954C526.885 417.954 527.233 417.879 527.507 417.729C527.785 417.574 527.99 417.371 528.122 417.12C528.259 416.869 528.327 416.596 528.327 416.3V415.452C528.277 415.493 528.195 415.532 528.081 415.568C527.972 415.6 527.837 415.632 527.678 415.664C527.518 415.691 527.345 415.721 527.158 415.753C526.971 415.785 526.785 415.812 526.598 415.835C526.333 415.871 526.087 415.933 525.859 416.02C525.632 416.102 525.447 416.218 525.306 416.368C525.169 416.519 525.101 416.717 525.101 416.963C525.101 417.168 525.155 417.346 525.265 417.496C525.374 417.642 525.531 417.756 525.736 417.838C525.941 417.915 526.183 417.954 526.461 417.954ZM534.466 419.164C533.778 419.164 533.176 419.005 532.661 418.686C532.146 418.367 531.743 417.924 531.451 417.359C531.164 416.79 531.021 416.138 531.021 415.404C531.021 414.661 531.164 414.005 531.451 413.436C531.743 412.866 532.146 412.422 532.661 412.103C533.176 411.779 533.778 411.617 534.466 411.617C534.894 411.617 535.291 411.683 535.655 411.815C536.024 411.943 536.348 412.125 536.626 412.362C536.904 412.595 537.127 412.873 537.296 413.196C537.469 413.515 537.578 413.866 537.624 414.249H536.188C536.152 414.044 536.088 413.857 535.997 413.688C535.906 413.52 535.787 413.374 535.642 413.251C535.496 413.128 535.325 413.032 535.129 412.964C534.938 412.896 534.719 412.861 534.473 412.861C534.058 412.861 533.702 412.966 533.406 413.176C533.11 413.385 532.882 413.682 532.723 414.064C532.563 414.443 532.483 414.889 532.483 415.404C532.483 415.915 532.563 416.359 532.723 416.737C532.882 417.111 533.11 417.403 533.406 417.612C533.702 417.817 534.058 417.92 534.473 417.92C534.719 417.92 534.938 417.888 535.129 417.824C535.32 417.756 535.484 417.66 535.621 417.537C535.758 417.414 535.872 417.268 535.963 417.1C536.054 416.926 536.122 416.735 536.168 416.525H537.624C537.583 416.904 537.476 417.252 537.303 417.571C537.134 417.89 536.909 418.171 536.626 418.412C536.348 418.649 536.024 418.834 535.655 418.966C535.291 419.098 534.894 419.164 534.466 419.164ZM542.334 411.781V412.971H538.15V411.781H542.334ZM539.422 409.812H540.864V417.093C540.864 417.357 540.919 417.544 541.028 417.653C541.142 417.758 541.343 417.811 541.63 417.811C541.739 417.811 541.86 417.811 541.992 417.811C542.124 417.811 542.238 417.811 542.334 417.811V419C542.215 419 542.072 419 541.903 419C541.739 419 541.58 419 541.425 419C540.746 419 540.242 418.859 539.914 418.576C539.586 418.289 539.422 417.856 539.422 417.277V409.812ZM543.476 419V411.781H544.918V419H543.476ZM544.193 410.537C543.938 410.537 543.722 410.453 543.544 410.284C543.371 410.111 543.284 409.901 543.284 409.655C543.284 409.405 543.371 409.195 543.544 409.026C543.722 408.853 543.938 408.767 544.193 408.767C544.449 408.767 544.665 408.853 544.843 409.026C545.021 409.195 545.109 409.405 545.109 409.655C545.109 409.901 545.021 410.111 544.843 410.284C544.665 410.453 544.449 410.537 544.193 410.537ZM549.655 419.164C548.967 419.164 548.363 419.005 547.844 418.686C547.324 418.367 546.919 417.924 546.627 417.359C546.34 416.794 546.196 416.143 546.196 415.404C546.196 414.657 546.34 414.001 546.627 413.436C546.919 412.866 547.324 412.422 547.844 412.103C548.363 411.779 548.967 411.617 549.655 411.617C550.343 411.617 550.945 411.779 551.46 412.103C551.979 412.422 552.383 412.866 552.67 413.436C552.962 414.001 553.107 414.657 553.107 415.404C553.107 416.143 552.962 416.794 552.67 417.359C552.383 417.924 551.979 418.367 551.46 418.686C550.945 419.005 550.343 419.164 549.655 419.164ZM549.655 417.92C550.065 417.92 550.419 417.817 550.715 417.612C551.016 417.403 551.246 417.109 551.405 416.73C551.569 416.352 551.651 415.91 551.651 415.404C551.651 414.885 551.569 414.436 551.405 414.058C551.246 413.679 551.016 413.385 550.715 413.176C550.419 412.966 550.065 412.861 549.655 412.861C549.245 412.861 548.89 412.966 548.589 413.176C548.293 413.381 548.062 413.675 547.898 414.058C547.739 414.436 547.659 414.885 547.659 415.404C547.659 415.915 547.739 416.359 547.898 416.737C548.062 417.111 548.293 417.403 548.589 417.612C548.885 417.817 549.241 417.92 549.655 417.92ZM555.828 414.844V419H554.386V411.781H555.801V413.572H555.466C555.703 412.925 556.031 412.442 556.45 412.123C556.874 411.799 557.384 411.638 557.981 411.638C558.478 411.638 558.923 411.747 559.314 411.966C559.711 412.18 560.023 412.499 560.251 412.923C560.479 413.347 560.593 413.873 560.593 414.502V419H559.15V414.68C559.15 414.101 559.011 413.666 558.733 413.374C558.46 413.078 558.073 412.93 557.571 412.93C557.243 412.93 556.947 412.996 556.683 413.128C556.423 413.26 556.215 413.467 556.061 413.75C555.906 414.033 555.828 414.397 555.828 414.844ZM564.893 419.171C564.341 419.171 563.844 419.082 563.402 418.904C562.96 418.727 562.605 418.462 562.336 418.111C562.067 417.76 561.914 417.325 561.878 416.806H563.3C563.341 417.193 563.493 417.494 563.758 417.708C564.027 417.918 564.396 418.022 564.865 418.022C565.326 418.022 565.688 417.929 565.952 417.742C566.216 417.555 566.349 417.318 566.349 417.031C566.349 416.785 566.253 416.589 566.062 416.443C565.875 416.293 565.624 416.184 565.31 416.115L564.113 415.849C563.434 415.698 562.919 415.45 562.568 415.104C562.217 414.757 562.042 414.317 562.042 413.784C562.042 413.356 562.156 412.98 562.384 412.656C562.616 412.333 562.94 412.08 563.354 411.897C563.769 411.715 564.252 411.624 564.804 411.624C565.346 411.624 565.827 411.72 566.246 411.911C566.67 412.103 567.003 412.374 567.244 412.725C567.49 413.076 567.62 413.495 567.634 413.982H566.253C566.248 413.632 566.116 413.342 565.856 413.114C565.597 412.882 565.253 412.766 564.824 412.766C564.414 412.766 564.088 412.861 563.847 413.053C563.605 413.244 563.484 413.479 563.484 413.757C563.484 414.003 563.576 414.201 563.758 414.352C563.945 414.502 564.2 414.614 564.523 414.687L565.754 414.96C566.46 415.115 566.978 415.354 567.306 415.678C567.638 416.001 567.805 416.425 567.805 416.949C567.805 417.41 567.677 417.806 567.422 418.139C567.171 418.467 566.827 418.722 566.39 418.904C565.952 419.082 565.453 419.171 564.893 419.171ZM573.861 408.814V419H572.419V408.814H573.861ZM578.578 419.164C577.863 419.164 577.247 419.002 576.732 418.679C576.222 418.355 575.828 417.911 575.55 417.346C575.276 416.776 575.14 416.129 575.14 415.404C575.14 414.666 575.283 414.014 575.57 413.449C575.857 412.88 576.254 412.433 576.76 412.109C577.266 411.781 577.847 411.617 578.503 411.617C579.013 411.617 579.474 411.708 579.884 411.891C580.299 412.073 580.654 412.333 580.95 412.67C581.246 413.003 581.474 413.399 581.634 413.859C581.793 414.32 581.873 414.83 581.873 415.391V415.78H575.789V414.687H581.114L580.479 415.021C580.479 414.575 580.399 414.188 580.239 413.859C580.08 413.527 579.852 413.271 579.556 413.094C579.264 412.911 578.918 412.82 578.517 412.82C578.12 412.82 577.776 412.911 577.484 413.094C577.193 413.271 576.965 413.527 576.801 413.859C576.641 414.188 576.562 414.575 576.562 415.021V415.644C576.562 416.099 576.641 416.503 576.801 416.854C576.96 417.2 577.19 417.471 577.491 417.667C577.797 417.863 578.166 417.961 578.599 417.961C578.913 417.961 579.191 417.913 579.433 417.817C579.674 417.717 579.875 417.58 580.034 417.407C580.194 417.234 580.308 417.034 580.376 416.806H581.764C581.677 417.271 581.483 417.681 581.183 418.036C580.886 418.387 580.513 418.663 580.062 418.863C579.615 419.064 579.12 419.164 578.578 419.164ZM586.624 411.781V412.971H582.42V411.781H586.624ZM583.712 419V410.612C583.712 410.229 583.792 409.906 583.951 409.642C584.115 409.373 584.35 409.168 584.655 409.026C584.961 408.885 585.33 408.814 585.763 408.814C585.95 408.814 586.125 408.814 586.289 408.814C586.458 408.814 586.569 408.814 586.624 408.814V410.004C586.578 410.004 586.483 410.004 586.337 410.004C586.191 410.004 586.073 410.004 585.981 410.004C585.685 410.004 585.473 410.07 585.346 410.202C585.218 410.33 585.154 410.544 585.154 410.845V419H583.712ZM590.678 411.781V412.971H586.494V411.781H590.678ZM587.766 409.812H589.208V417.093C589.208 417.357 589.263 417.544 589.372 417.653C589.486 417.758 589.687 417.811 589.974 417.811C590.083 417.811 590.204 417.811 590.336 417.811C590.468 417.811 590.582 417.811 590.678 417.811V419C590.559 419 590.416 419 590.247 419C590.083 419 589.924 419 589.769 419C589.09 419 588.586 418.859 588.258 418.576C587.93 418.289 587.766 417.856 587.766 417.277V409.812ZM493.293 429.781V430.971H489.109V429.781H493.293ZM490.381 427.812H491.823V435.093C491.823 435.357 491.878 435.544 491.987 435.653C492.101 435.758 492.302 435.811 492.589 435.811C492.698 435.811 492.819 435.811 492.951 435.811C493.083 435.811 493.197 435.811 493.293 435.811V437C493.174 437 493.031 437 492.862 437C492.698 437 492.539 437 492.384 437C491.705 437 491.201 436.859 490.873 436.576C490.545 436.289 490.381 435.856 490.381 435.277V427.812ZM497.415 437.164C496.727 437.164 496.123 437.005 495.604 436.686C495.084 436.367 494.678 435.924 494.387 435.359C494.1 434.794 493.956 434.143 493.956 433.404C493.956 432.657 494.1 432.001 494.387 431.436C494.678 430.866 495.084 430.422 495.604 430.103C496.123 429.779 496.727 429.617 497.415 429.617C498.103 429.617 498.705 429.779 499.22 430.103C499.739 430.422 500.143 430.866 500.43 431.436C500.721 432.001 500.867 432.657 500.867 433.404C500.867 434.143 500.721 434.794 500.43 435.359C500.143 435.924 499.739 436.367 499.22 436.686C498.705 437.005 498.103 437.164 497.415 437.164ZM497.415 435.92C497.825 435.92 498.178 435.817 498.475 435.612C498.775 435.403 499.006 435.109 499.165 434.73C499.329 434.352 499.411 433.91 499.411 433.404C499.411 432.885 499.329 432.436 499.165 432.058C499.006 431.679 498.775 431.385 498.475 431.176C498.178 430.966 497.825 430.861 497.415 430.861C497.005 430.861 496.649 430.966 496.349 431.176C496.052 431.381 495.822 431.675 495.658 432.058C495.499 432.436 495.419 432.885 495.419 433.404C495.419 433.915 495.499 434.359 495.658 434.737C495.822 435.111 496.052 435.403 496.349 435.612C496.645 435.817 497 435.92 497.415 435.92ZM505.481 437V429.781H506.862V430.95H506.89C507.022 430.554 507.229 430.246 507.512 430.027C507.799 429.804 508.173 429.692 508.633 429.692C508.742 429.692 508.842 429.697 508.934 429.706C509.029 429.711 509.104 429.717 509.159 429.727V431.073C509.104 431.06 509.007 431.046 508.865 431.032C508.724 431.014 508.569 431.005 508.4 431.005C508.132 431.005 507.883 431.066 507.655 431.189C507.432 431.312 507.254 431.502 507.122 431.757C506.99 432.012 506.924 432.338 506.924 432.734V437H505.481ZM513.213 437.164C512.497 437.164 511.882 437.002 511.367 436.679C510.857 436.355 510.463 435.911 510.185 435.346C509.911 434.776 509.774 434.129 509.774 433.404C509.774 432.666 509.918 432.014 510.205 431.449C510.492 430.88 510.889 430.433 511.395 430.109C511.9 429.781 512.481 429.617 513.138 429.617C513.648 429.617 514.108 429.708 514.519 429.891C514.933 430.073 515.289 430.333 515.585 430.67C515.881 431.003 516.109 431.399 516.269 431.859C516.428 432.32 516.508 432.83 516.508 433.391V433.78H510.424V432.687H515.749L515.113 433.021C515.113 432.575 515.034 432.188 514.874 431.859C514.715 431.527 514.487 431.271 514.19 431.094C513.899 430.911 513.552 430.82 513.151 430.82C512.755 430.82 512.411 430.911 512.119 431.094C511.827 431.271 511.6 431.527 511.436 431.859C511.276 432.188 511.196 432.575 511.196 433.021V433.644C511.196 434.099 511.276 434.503 511.436 434.854C511.595 435.2 511.825 435.471 512.126 435.667C512.431 435.863 512.8 435.961 513.233 435.961C513.548 435.961 513.826 435.913 514.067 435.817C514.309 435.717 514.509 435.58 514.669 435.407C514.828 435.234 514.942 435.034 515.011 434.806H516.398C516.312 435.271 516.118 435.681 515.817 436.036C515.521 436.387 515.147 436.663 514.696 436.863C514.25 437.064 513.755 437.164 513.213 437.164ZM520.849 437.164C520.16 437.164 519.559 437.005 519.044 436.686C518.529 436.367 518.126 435.924 517.834 435.359C517.547 434.79 517.403 434.138 517.403 433.404C517.403 432.661 517.547 432.005 517.834 431.436C518.126 430.866 518.529 430.422 519.044 430.103C519.559 429.779 520.16 429.617 520.849 429.617C521.277 429.617 521.674 429.683 522.038 429.815C522.407 429.943 522.731 430.125 523.009 430.362C523.287 430.595 523.51 430.873 523.679 431.196C523.852 431.515 523.961 431.866 524.007 432.249H522.571C522.535 432.044 522.471 431.857 522.38 431.688C522.289 431.52 522.17 431.374 522.024 431.251C521.879 431.128 521.708 431.032 521.512 430.964C521.32 430.896 521.102 430.861 520.855 430.861C520.441 430.861 520.085 430.966 519.789 431.176C519.493 431.385 519.265 431.682 519.105 432.064C518.946 432.443 518.866 432.889 518.866 433.404C518.866 433.915 518.946 434.359 519.105 434.737C519.265 435.111 519.493 435.403 519.789 435.612C520.085 435.817 520.441 435.92 520.855 435.92C521.102 435.92 521.32 435.888 521.512 435.824C521.703 435.756 521.867 435.66 522.004 435.537C522.141 435.414 522.255 435.268 522.346 435.1C522.437 434.926 522.505 434.735 522.551 434.525H524.007C523.966 434.904 523.859 435.252 523.686 435.571C523.517 435.89 523.291 436.171 523.009 436.412C522.731 436.649 522.407 436.834 522.038 436.966C521.674 437.098 521.277 437.164 520.849 437.164ZM528.341 437.164C527.653 437.164 527.049 437.005 526.529 436.686C526.01 436.367 525.604 435.924 525.312 435.359C525.025 434.794 524.882 434.143 524.882 433.404C524.882 432.657 525.025 432.001 525.312 431.436C525.604 430.866 526.01 430.422 526.529 430.103C527.049 429.779 527.653 429.617 528.341 429.617C529.029 429.617 529.631 429.779 530.146 430.103C530.665 430.422 531.068 430.866 531.355 431.436C531.647 432.001 531.793 432.657 531.793 433.404C531.793 434.143 531.647 434.794 531.355 435.359C531.068 435.924 530.665 436.367 530.146 436.686C529.631 437.005 529.029 437.164 528.341 437.164ZM528.341 435.92C528.751 435.92 529.104 435.817 529.4 435.612C529.701 435.403 529.931 435.109 530.091 434.73C530.255 434.352 530.337 433.91 530.337 433.404C530.337 432.885 530.255 432.436 530.091 432.058C529.931 431.679 529.701 431.385 529.4 431.176C529.104 430.966 528.751 430.861 528.341 430.861C527.931 430.861 527.575 430.966 527.274 431.176C526.978 431.381 526.748 431.675 526.584 432.058C526.424 432.436 526.345 432.885 526.345 433.404C526.345 433.915 526.424 434.359 526.584 434.737C526.748 435.111 526.978 435.403 527.274 435.612C527.571 435.817 527.926 435.92 528.341 435.92ZM534.514 432.844V437H533.071V429.781H534.486V431.572H534.151C534.388 430.925 534.716 430.442 535.136 430.123C535.56 429.799 536.07 429.638 536.667 429.638C537.164 429.638 537.608 429.747 538 429.966C538.396 430.18 538.709 430.499 538.937 430.923C539.164 431.347 539.278 431.873 539.278 432.502V437H537.836V432.68C537.836 432.101 537.697 431.666 537.419 431.374C537.146 431.078 536.758 430.93 536.257 430.93C535.929 430.93 535.632 430.996 535.368 431.128C535.108 431.26 534.901 431.467 534.746 431.75C534.591 432.033 534.514 432.397 534.514 432.844ZM543.995 437.164C543.307 437.164 542.705 437.005 542.19 436.686C541.675 436.367 541.272 435.924 540.98 435.359C540.693 434.79 540.55 434.138 540.55 433.404C540.55 432.661 540.693 432.005 540.98 431.436C541.272 430.866 541.675 430.422 542.19 430.103C542.705 429.779 543.307 429.617 543.995 429.617C544.424 429.617 544.82 429.683 545.185 429.815C545.554 429.943 545.877 430.125 546.155 430.362C546.433 430.595 546.657 430.873 546.825 431.196C546.998 431.515 547.108 431.866 547.153 432.249H545.718C545.681 432.044 545.618 431.857 545.526 431.688C545.435 431.52 545.317 431.374 545.171 431.251C545.025 431.128 544.854 431.032 544.658 430.964C544.467 430.896 544.248 430.861 544.002 430.861C543.587 430.861 543.232 430.966 542.936 431.176C542.639 431.385 542.411 431.682 542.252 432.064C542.092 432.443 542.013 432.889 542.013 433.404C542.013 433.915 542.092 434.359 542.252 434.737C542.411 435.111 542.639 435.403 542.936 435.612C543.232 435.817 543.587 435.92 544.002 435.92C544.248 435.92 544.467 435.888 544.658 435.824C544.85 435.756 545.014 435.66 545.15 435.537C545.287 435.414 545.401 435.268 545.492 435.1C545.583 434.926 545.652 434.735 545.697 434.525H547.153C547.112 434.904 547.005 435.252 546.832 435.571C546.663 435.89 546.438 436.171 546.155 436.412C545.877 436.649 545.554 436.834 545.185 436.966C544.82 437.098 544.424 437.164 543.995 437.164ZM548.384 437V429.781H549.826V437H548.384ZM549.102 428.537C548.846 428.537 548.63 428.453 548.452 428.284C548.279 428.111 548.192 427.901 548.192 427.655C548.192 427.405 548.279 427.195 548.452 427.026C548.63 426.853 548.846 426.767 549.102 426.767C549.357 426.767 549.573 426.853 549.751 427.026C549.929 427.195 550.018 427.405 550.018 427.655C550.018 427.901 549.929 428.111 549.751 428.284C549.573 428.453 549.357 428.537 549.102 428.537ZM552.902 426.814V437H551.46V426.814H552.902ZM557.619 437.164C556.904 437.164 556.288 437.002 555.773 436.679C555.263 436.355 554.869 435.911 554.591 435.346C554.317 434.776 554.181 434.129 554.181 433.404C554.181 432.666 554.324 432.014 554.611 431.449C554.898 430.88 555.295 430.433 555.801 430.109C556.307 429.781 556.888 429.617 557.544 429.617C558.054 429.617 558.515 429.708 558.925 429.891C559.34 430.073 559.695 430.333 559.991 430.67C560.287 431.003 560.515 431.399 560.675 431.859C560.834 432.32 560.914 432.83 560.914 433.391V433.78H554.83V432.687H560.155L559.52 433.021C559.52 432.575 559.44 432.188 559.28 431.859C559.121 431.527 558.893 431.271 558.597 431.094C558.305 430.911 557.959 430.82 557.558 430.82C557.161 430.82 556.817 430.911 556.525 431.094C556.234 431.271 556.006 431.527 555.842 431.859C555.682 432.188 555.603 432.575 555.603 433.021V433.644C555.603 434.099 555.682 434.503 555.842 434.854C556.001 435.2 556.231 435.471 556.532 435.667C556.838 435.863 557.207 435.961 557.64 435.961C557.954 435.961 558.232 435.913 558.474 435.817C558.715 435.717 558.916 435.58 559.075 435.407C559.235 435.234 559.349 435.034 559.417 434.806H560.805C560.718 435.271 560.524 435.681 560.224 436.036C559.927 436.387 559.554 436.663 559.103 436.863C558.656 437.064 558.161 437.164 557.619 437.164Z" fill="#151515"></path>
<path d="M635.309 409.354V437H631.32V413.398H631.301L624.547 417.814V413.881L631.431 409.354H635.309ZM649.086 437.445C647.058 437.445 645.295 437.043 643.798 436.239C642.302 435.435 641.145 434.334 640.329 432.937C639.512 431.539 639.104 429.949 639.104 428.168H643.167C643.167 429.393 643.396 430.444 643.854 431.322C644.324 432.188 644.998 432.856 645.876 433.326C646.755 433.784 647.8 434.013 649.012 434.013C650.187 434.013 651.214 433.815 652.092 433.419C652.983 433.011 653.676 432.436 654.17 431.693C654.678 430.951 654.931 430.085 654.931 429.096C654.931 428.18 654.665 427.382 654.133 426.702C653.601 426.022 652.859 425.49 651.907 425.106C650.954 424.723 649.841 424.531 648.567 424.531H646.266V421.173H648.567C649.693 421.173 650.676 421 651.517 420.653C652.358 420.307 653.014 419.818 653.484 419.188C653.954 418.557 654.189 417.814 654.189 416.961C654.189 416.008 653.966 415.186 653.521 414.493C653.088 413.788 652.476 413.25 651.684 412.879C650.905 412.508 649.983 412.322 648.919 412.322C647.831 412.322 646.891 412.533 646.099 412.953C645.307 413.361 644.695 413.955 644.262 414.734C643.842 415.501 643.631 416.417 643.631 417.48H639.679C639.679 415.811 640.069 414.332 640.848 413.046C641.627 411.747 642.71 410.733 644.095 410.003C645.481 409.273 647.095 408.908 648.938 408.908C650.694 408.908 652.265 409.242 653.651 409.91C655.036 410.578 656.125 411.493 656.916 412.656C657.721 413.807 658.123 415.136 658.123 416.646C658.123 418.093 657.665 419.354 656.749 420.431C655.834 421.507 654.603 422.255 653.057 422.676V422.731C654.269 422.917 655.315 423.319 656.193 423.938C657.083 424.544 657.77 425.304 658.252 426.22C658.735 427.123 658.976 428.118 658.976 429.207C658.976 430.803 658.549 432.225 657.696 433.475C656.842 434.712 655.667 435.683 654.17 436.388C652.686 437.093 650.991 437.445 649.086 437.445ZM660.303 442.399L661.843 432.918H665.851L663.105 442.399H660.303ZM678.793 437.445C676.765 437.445 675.002 437.043 673.505 436.239C672.008 435.435 670.852 434.334 670.035 432.937C669.219 431.539 668.811 429.949 668.811 428.168H672.874C672.874 429.393 673.103 430.444 673.561 431.322C674.031 432.188 674.705 432.856 675.583 433.326C676.461 433.784 677.507 434.013 678.719 434.013C679.894 434.013 680.921 433.815 681.799 433.419C682.69 433.011 683.382 432.436 683.877 431.693C684.384 430.951 684.638 430.085 684.638 429.096C684.638 428.18 684.372 427.382 683.84 426.702C683.308 426.022 682.566 425.49 681.614 425.106C680.661 424.723 679.548 424.531 678.274 424.531H675.973V421.173H678.274C679.399 421.173 680.383 421 681.224 420.653C682.065 420.307 682.721 419.818 683.191 419.188C683.661 418.557 683.896 417.814 683.896 416.961C683.896 416.008 683.673 415.186 683.228 414.493C682.795 413.788 682.183 413.25 681.391 412.879C680.612 412.508 679.69 412.322 678.626 412.322C677.538 412.322 676.598 412.533 675.806 412.953C675.014 413.361 674.402 413.955 673.969 414.734C673.548 415.501 673.338 416.417 673.338 417.48H669.386C669.386 415.811 669.776 414.332 670.555 413.046C671.334 411.747 672.417 410.733 673.802 410.003C675.187 409.273 676.802 408.908 678.645 408.908C680.401 408.908 681.972 409.242 683.358 409.91C684.743 410.578 685.832 411.493 686.623 412.656C687.427 413.807 687.829 415.136 687.829 416.646C687.829 418.093 687.372 419.354 686.456 420.431C685.541 421.507 684.31 422.255 682.764 422.676V422.731C683.976 422.917 685.021 423.319 685.9 423.938C686.79 424.544 687.477 425.304 687.959 426.22C688.442 427.123 688.683 428.118 688.683 429.207C688.683 430.803 688.256 432.225 687.403 433.475C686.549 434.712 685.374 435.683 683.877 436.388C682.393 437.093 680.698 437.445 678.793 437.445ZM701.699 437.445C699.559 437.445 697.716 436.864 696.17 435.701C694.624 434.538 693.424 432.893 692.57 430.766C691.729 428.638 691.309 426.115 691.309 423.195C691.309 420.264 691.729 417.734 692.57 415.606C693.412 413.479 694.605 411.834 696.151 410.671C697.71 409.496 699.559 408.908 701.699 408.908C703.827 408.908 705.67 409.49 707.229 410.652C708.787 411.815 709.981 413.466 710.81 415.606C711.651 417.734 712.071 420.264 712.071 423.195C712.071 426.115 711.651 428.638 710.81 430.766C709.981 432.893 708.787 434.538 707.229 435.701C705.67 436.864 703.827 437.445 701.699 437.445ZM701.699 433.938C703.035 433.938 704.186 433.506 705.151 432.64C706.128 431.774 706.876 430.543 707.396 428.947C707.915 427.339 708.175 425.422 708.175 423.195C708.175 420.956 707.915 419.033 707.396 417.425C706.876 415.817 706.128 414.58 705.151 413.714C704.186 412.848 703.035 412.415 701.699 412.415C700.351 412.415 699.188 412.848 698.211 413.714C697.246 414.58 696.504 415.817 695.984 417.425C695.465 419.033 695.205 420.956 695.205 423.195C695.205 425.422 695.465 427.339 695.984 428.947C696.504 430.543 697.246 431.774 698.211 432.64C699.188 433.506 700.351 433.938 701.699 433.938ZM725.106 437.445C722.966 437.445 721.123 436.864 719.577 435.701C718.031 434.538 716.831 432.893 715.978 430.766C715.136 428.638 714.716 426.115 714.716 423.195C714.716 420.264 715.136 417.734 715.978 415.606C716.819 413.479 718.012 411.834 719.559 410.671C721.117 409.496 722.966 408.908 725.106 408.908C727.234 408.908 729.077 409.49 730.636 410.652C732.194 411.815 733.388 413.466 734.217 415.606C735.058 417.734 735.479 420.264 735.479 423.195C735.479 426.115 735.058 428.638 734.217 430.766C733.388 432.893 732.194 434.538 730.636 435.701C729.077 436.864 727.234 437.445 725.106 437.445ZM725.106 433.938C726.442 433.938 727.593 433.506 728.558 432.64C729.535 431.774 730.283 430.543 730.803 428.947C731.322 427.339 731.582 425.422 731.582 423.195C731.582 420.956 731.322 419.033 730.803 417.425C730.283 415.817 729.535 414.58 728.558 413.714C727.593 412.848 726.442 412.415 725.106 412.415C723.758 412.415 722.595 412.848 721.618 413.714C720.653 414.58 719.911 415.817 719.392 417.425C718.872 419.033 718.612 420.956 718.612 423.195C718.612 425.422 718.872 427.339 719.392 428.947C719.911 430.543 720.653 431.774 721.618 432.64C722.595 433.506 723.758 433.938 725.106 433.938Z" fill="#151515"></path>
<rect x="489" y="459" width="120" height="32" rx="3" fill="#006DDD"></rect>
<path d="M537.165 480.157C536.377 480.157 535.691 480.034 535.107 479.788C534.529 479.542 534.075 479.184 533.747 478.715C533.419 478.245 533.241 477.676 533.214 477.006H535.012C535.044 477.361 535.155 477.658 535.347 477.895C535.538 478.132 535.791 478.309 536.105 478.428C536.42 478.542 536.769 478.599 537.151 478.599C537.552 478.599 537.906 478.537 538.211 478.414C538.521 478.291 538.762 478.12 538.936 477.901C539.109 477.678 539.195 477.421 539.195 477.129C539.195 476.865 539.118 476.646 538.963 476.473C538.812 476.299 538.598 476.154 538.32 476.035C538.047 475.912 537.726 475.805 537.356 475.714L536.201 475.413C535.349 475.194 534.684 474.864 534.205 474.422C533.731 473.98 533.494 473.399 533.494 472.679C533.494 472.077 533.656 471.551 533.979 471.1C534.303 470.648 534.745 470.3 535.306 470.054C535.866 469.803 536.502 469.678 537.213 469.678C537.938 469.678 538.573 469.803 539.12 470.054C539.667 470.304 540.093 470.651 540.398 471.093C540.708 471.535 540.87 472.038 540.884 472.604H539.113C539.068 472.166 538.872 471.829 538.525 471.592C538.184 471.35 537.737 471.229 537.186 471.229C536.803 471.229 536.472 471.289 536.194 471.407C535.921 471.521 535.709 471.678 535.559 471.879C535.413 472.079 535.34 472.31 535.34 472.569C535.34 472.852 535.426 473.084 535.6 473.267C535.777 473.449 535.998 473.595 536.263 473.704C536.532 473.813 536.803 473.902 537.076 473.971L538.026 474.217C538.405 474.308 538.771 474.429 539.127 474.579C539.482 474.729 539.801 474.921 540.084 475.153C540.371 475.381 540.599 475.659 540.768 475.987C540.936 476.315 541.021 476.701 541.021 477.143C541.021 477.74 540.868 478.266 540.562 478.722C540.257 479.173 539.817 479.526 539.243 479.781C538.669 480.032 537.976 480.157 537.165 480.157ZM546.147 472.357V473.752H541.807V472.357H546.147ZM542.894 470.539H544.671V477.847C544.671 478.125 544.73 478.33 544.849 478.462C544.967 478.59 545.161 478.653 545.43 478.653C545.512 478.653 545.619 478.644 545.751 478.626C545.888 478.603 545.997 478.583 546.079 478.564L546.359 479.938C546.163 479.998 545.963 480.039 545.758 480.062C545.553 480.089 545.357 480.103 545.17 480.103C544.436 480.103 543.873 479.92 543.481 479.556C543.09 479.191 542.894 478.672 542.894 477.997V470.539ZM549.764 480.157C549.281 480.157 548.845 480.071 548.458 479.897C548.071 479.72 547.765 479.46 547.542 479.118C547.319 478.776 547.207 478.355 547.207 477.854C547.207 477.421 547.287 477.063 547.446 476.78C547.61 476.498 547.829 476.272 548.103 476.104C548.381 475.935 548.693 475.807 549.039 475.721C549.385 475.634 549.745 475.573 550.119 475.536C550.561 475.486 550.921 475.443 551.199 475.406C551.477 475.37 551.68 475.311 551.808 475.229C551.94 475.146 552.006 475.019 552.006 474.846V474.812C552.006 474.561 551.956 474.349 551.855 474.176C551.755 473.998 551.605 473.864 551.404 473.772C551.208 473.677 550.965 473.629 550.673 473.629C550.377 473.629 550.119 473.674 549.9 473.766C549.686 473.857 549.511 473.975 549.374 474.121C549.237 474.267 549.137 474.424 549.073 474.593L547.426 474.258C547.576 473.807 547.809 473.435 548.123 473.144C548.438 472.847 548.811 472.626 549.244 472.48C549.682 472.335 550.156 472.262 550.666 472.262C551.026 472.262 551.388 472.305 551.753 472.392C552.122 472.474 552.459 472.615 552.765 472.815C553.07 473.016 553.316 473.285 553.503 473.622C553.69 473.959 553.783 474.383 553.783 474.894V480H552.081V478.947H552.013C551.899 479.161 551.742 479.362 551.541 479.549C551.345 479.731 551.099 479.879 550.803 479.993C550.511 480.103 550.165 480.157 549.764 480.157ZM550.222 478.838C550.591 478.838 550.908 478.765 551.172 478.619C551.441 478.473 551.648 478.282 551.794 478.045C551.944 477.803 552.02 477.541 552.02 477.259V476.356C551.96 476.402 551.86 476.445 551.719 476.486C551.582 476.527 551.427 476.564 551.254 476.596C551.085 476.628 550.917 476.655 550.748 476.678C550.584 476.701 550.445 476.719 550.331 476.732C550.067 476.769 549.827 476.828 549.613 476.91C549.399 476.992 549.23 477.108 549.107 477.259C548.989 477.405 548.93 477.596 548.93 477.833C548.93 478.052 548.984 478.236 549.094 478.387C549.208 478.533 549.36 478.644 549.552 478.722C549.748 478.799 549.971 478.838 550.222 478.838ZM555.67 480V472.357H557.393V473.636H557.475C557.611 473.194 557.851 472.854 558.192 472.617C558.534 472.376 558.924 472.255 559.361 472.255C559.462 472.255 559.573 472.259 559.696 472.269C559.819 472.278 559.924 472.289 560.011 472.303V473.937C559.938 473.914 559.819 473.893 559.655 473.875C559.491 473.857 559.329 473.848 559.17 473.848C558.842 473.848 558.546 473.918 558.281 474.06C558.021 474.201 557.816 474.397 557.666 474.647C557.52 474.894 557.447 475.178 557.447 475.502V480H555.67ZM565.028 472.357V473.752H560.688V472.357H565.028ZM561.774 470.539H563.552V477.847C563.552 478.125 563.611 478.33 563.729 478.462C563.848 478.59 564.042 478.653 564.311 478.653C564.393 478.653 564.5 478.644 564.632 478.626C564.769 478.603 564.878 478.583 564.96 478.564L565.24 479.938C565.044 479.998 564.844 480.039 564.639 480.062C564.434 480.089 564.238 480.103 564.051 480.103C563.317 480.103 562.754 479.92 562.362 479.556C561.97 479.191 561.774 478.672 561.774 477.997V470.539Z" fill="white"></path>
<rect x="617.5" y="459.5" width="119" height="31" rx="2.5" stroke="black" stroke-opacity="0.2"></rect>
<path d="M637.625 480.15C636.796 480.15 636.071 479.995 635.451 479.686C634.831 479.371 634.351 478.938 634.009 478.387C633.667 477.831 633.496 477.19 633.496 476.466V469.814H635.321V476.315C635.321 476.739 635.415 477.118 635.602 477.45C635.793 477.783 636.06 478.045 636.401 478.236C636.748 478.423 637.156 478.517 637.625 478.517C638.094 478.517 638.5 478.423 638.842 478.236C639.188 478.045 639.455 477.783 639.642 477.45C639.833 477.118 639.929 476.739 639.929 476.315V469.814H641.754V476.466C641.754 477.19 641.581 477.831 641.234 478.387C640.893 478.938 640.412 479.371 639.792 479.686C639.177 479.995 638.454 480.15 637.625 480.15ZM643.723 482.857V472.357H645.459V473.622H645.575C645.666 473.44 645.796 473.244 645.965 473.034C646.133 472.825 646.361 472.645 646.648 472.494C646.94 472.339 647.312 472.262 647.763 472.262C648.355 472.262 648.888 472.412 649.362 472.713C649.836 473.014 650.212 473.458 650.49 474.046C650.773 474.629 650.914 475.345 650.914 476.192C650.914 477.031 650.777 477.744 650.504 478.332C650.23 478.92 649.854 479.369 649.376 479.679C648.902 479.984 648.362 480.137 647.756 480.137C647.323 480.137 646.961 480.064 646.669 479.918C646.377 479.768 646.145 479.588 645.972 479.378C645.799 479.168 645.666 478.972 645.575 478.79H645.5V482.857H643.723ZM647.277 478.674C647.674 478.674 648.007 478.567 648.275 478.353C648.544 478.134 648.747 477.838 648.884 477.464C649.021 477.086 649.089 476.66 649.089 476.186C649.089 475.712 649.021 475.29 648.884 474.921C648.752 474.547 648.551 474.256 648.282 474.046C648.013 473.832 647.678 473.725 647.277 473.725C646.885 473.725 646.555 473.827 646.286 474.032C646.017 474.237 645.812 474.524 645.671 474.894C645.534 475.258 645.466 475.689 645.466 476.186C645.466 476.682 645.534 477.118 645.671 477.491C645.812 477.865 646.017 478.157 646.286 478.366C646.56 478.571 646.89 478.674 647.277 478.674ZM655.275 480.137C654.674 480.137 654.134 479.984 653.655 479.679C653.181 479.369 652.808 478.92 652.534 478.332C652.261 477.744 652.124 477.031 652.124 476.192C652.124 475.345 652.263 474.629 652.541 474.046C652.824 473.458 653.202 473.014 653.676 472.713C654.154 472.412 654.685 472.262 655.269 472.262C655.724 472.262 656.096 472.339 656.383 472.494C656.674 472.645 656.905 472.825 657.073 473.034C657.246 473.244 657.376 473.44 657.463 473.622H657.538V469.814H659.315V480H657.572V478.79H657.463C657.372 478.972 657.237 479.168 657.06 479.378C656.886 479.588 656.656 479.768 656.369 479.918C656.082 480.064 655.717 480.137 655.275 480.137ZM655.761 478.674C656.148 478.674 656.476 478.571 656.745 478.366C657.014 478.157 657.219 477.865 657.36 477.491C657.502 477.118 657.572 476.682 657.572 476.186C657.572 475.689 657.502 475.258 657.36 474.894C657.224 474.524 657.019 474.237 656.745 474.032C656.476 473.827 656.148 473.725 655.761 473.725C655.36 473.725 655.025 473.832 654.756 474.046C654.487 474.256 654.284 474.547 654.147 474.921C654.011 475.29 653.942 475.712 653.942 476.186C653.942 476.66 654.011 477.086 654.147 477.464C654.284 477.838 654.487 478.134 654.756 478.353C655.029 478.567 655.364 478.674 655.761 478.674ZM663.328 480.157C662.845 480.157 662.41 480.071 662.022 479.897C661.635 479.72 661.33 479.46 661.106 479.118C660.883 478.776 660.771 478.355 660.771 477.854C660.771 477.421 660.851 477.063 661.011 476.78C661.175 476.498 661.394 476.272 661.667 476.104C661.945 475.935 662.257 475.807 662.604 475.721C662.95 475.634 663.31 475.573 663.684 475.536C664.126 475.486 664.486 475.443 664.764 475.406C665.042 475.37 665.244 475.311 665.372 475.229C665.504 475.146 665.57 475.019 665.57 474.846V474.812C665.57 474.561 665.52 474.349 665.42 474.176C665.32 473.998 665.169 473.864 664.969 473.772C664.773 473.677 664.529 473.629 664.237 473.629C663.941 473.629 663.684 473.674 663.465 473.766C663.251 473.857 663.075 473.975 662.938 474.121C662.802 474.267 662.701 474.424 662.638 474.593L660.99 474.258C661.141 473.807 661.373 473.435 661.688 473.144C662.002 472.847 662.376 472.626 662.809 472.48C663.246 472.335 663.72 472.262 664.23 472.262C664.59 472.262 664.953 472.305 665.317 472.392C665.687 472.474 666.024 472.615 666.329 472.815C666.634 473.016 666.881 473.285 667.067 473.622C667.254 473.959 667.348 474.383 667.348 474.894V480H665.646V478.947H665.577C665.463 479.161 665.306 479.362 665.105 479.549C664.91 479.731 664.663 479.879 664.367 479.993C664.076 480.103 663.729 480.157 663.328 480.157ZM663.786 478.838C664.155 478.838 664.472 478.765 664.736 478.619C665.005 478.473 665.213 478.282 665.358 478.045C665.509 477.803 665.584 477.541 665.584 477.259V476.356C665.525 476.402 665.424 476.445 665.283 476.486C665.146 476.527 664.992 476.564 664.818 476.596C664.65 476.628 664.481 476.655 664.312 476.678C664.148 476.701 664.009 476.719 663.896 476.732C663.631 476.769 663.392 476.828 663.178 476.91C662.964 476.992 662.795 477.108 662.672 477.259C662.553 477.405 662.494 477.596 662.494 477.833C662.494 478.052 662.549 478.236 662.658 478.387C662.772 478.533 662.925 478.644 663.116 478.722C663.312 478.799 663.535 478.838 663.786 478.838ZM672.769 472.357V473.752H668.428V472.357H672.769ZM669.515 470.539H671.292V477.847C671.292 478.125 671.351 478.33 671.47 478.462C671.588 478.59 671.782 478.653 672.051 478.653C672.133 478.653 672.24 478.644 672.372 478.626C672.509 478.603 672.618 478.583 672.7 478.564L672.98 479.938C672.785 479.998 672.584 480.039 672.379 480.062C672.174 480.089 671.978 480.103 671.791 480.103C671.057 480.103 670.494 479.92 670.103 479.556C669.711 479.191 669.515 478.672 669.515 477.997V470.539ZM677.424 480.157C676.654 480.157 675.991 479.995 675.435 479.672C674.883 479.348 674.457 478.893 674.156 478.305C673.86 477.717 673.712 477.024 673.712 476.227C673.712 475.438 673.858 474.748 674.149 474.155C674.446 473.563 674.863 473.1 675.4 472.768C675.943 472.43 676.578 472.262 677.308 472.262C677.772 472.262 678.215 472.337 678.634 472.487C679.058 472.638 679.431 472.87 679.755 473.185C680.083 473.499 680.338 473.9 680.521 474.388C680.707 474.871 680.801 475.447 680.801 476.117V476.678H674.553V475.468H679.919L679.085 475.823C679.085 475.395 679.019 475.019 678.887 474.695C678.755 474.367 678.556 474.112 678.292 473.93C678.032 473.747 677.706 473.656 677.314 473.656C676.923 473.656 676.59 473.75 676.316 473.937C676.043 474.119 675.833 474.365 675.688 474.675C675.546 474.98 675.476 475.322 675.476 475.7V476.534C675.476 477.017 675.558 477.425 675.722 477.758C675.886 478.09 676.116 478.341 676.412 478.51C676.708 478.678 677.052 478.763 677.444 478.763C677.704 478.763 677.939 478.726 678.148 478.653C678.363 478.576 678.547 478.464 678.702 478.318C678.857 478.168 678.973 477.986 679.051 477.771L680.685 478.106C680.562 478.517 680.352 478.877 680.056 479.187C679.759 479.492 679.388 479.731 678.941 479.904C678.499 480.073 677.993 480.157 677.424 480.157ZM686.174 480V469.814H689.981C690.761 469.814 691.417 469.951 691.95 470.225C692.483 470.498 692.887 470.881 693.16 471.373C693.434 471.861 693.57 472.428 693.57 473.075C693.57 473.722 693.431 474.285 693.153 474.764C692.88 475.242 692.474 475.611 691.937 475.871C691.399 476.131 690.738 476.261 689.954 476.261H687.233V474.75H689.715C690.175 474.75 690.551 474.686 690.843 474.559C691.134 474.426 691.351 474.235 691.492 473.984C691.633 473.734 691.704 473.431 691.704 473.075C691.704 472.711 691.633 472.401 691.492 472.146C691.351 471.886 691.132 471.688 690.836 471.551C690.544 471.414 690.166 471.346 689.701 471.346H687.999V480H686.174ZM691.902 480L689.428 475.379H691.424L693.946 480H691.902ZM697.843 480.096C697.319 480.096 696.858 479.984 696.462 479.761C696.07 479.537 695.765 479.212 695.546 478.783C695.332 478.35 695.225 477.828 695.225 477.218V472.357H697.002V476.944C697.002 477.455 697.134 477.856 697.398 478.147C697.667 478.439 698.034 478.585 698.499 478.585C698.813 478.585 699.094 478.517 699.34 478.38C699.586 478.243 699.777 478.043 699.914 477.778C700.055 477.514 700.126 477.2 700.126 476.835V472.357H701.91V480H700.222L700.201 478.113H700.338C700.124 478.779 699.807 479.275 699.388 479.604C698.968 479.932 698.453 480.096 697.843 480.096ZM705.574 469.814V480H703.797V469.814H705.574ZM710.838 480.157C710.068 480.157 709.405 479.995 708.849 479.672C708.297 479.348 707.871 478.893 707.57 478.305C707.274 477.717 707.126 477.024 707.126 476.227C707.126 475.438 707.272 474.748 707.563 474.155C707.86 473.563 708.277 473.1 708.814 472.768C709.357 472.43 709.993 472.262 710.722 472.262C711.187 472.262 711.629 472.337 712.048 472.487C712.472 472.638 712.845 472.87 713.169 473.185C713.497 473.499 713.752 473.9 713.935 474.388C714.121 474.871 714.215 475.447 714.215 476.117V476.678H707.967V475.468H713.333L712.499 475.823C712.499 475.395 712.433 475.019 712.301 474.695C712.169 474.367 711.97 474.112 711.706 473.93C711.446 473.747 711.12 473.656 710.729 473.656C710.337 473.656 710.004 473.75 709.73 473.937C709.457 474.119 709.247 474.365 709.102 474.675C708.96 474.98 708.89 475.322 708.89 475.7V476.534C708.89 477.017 708.972 477.425 709.136 477.758C709.3 478.09 709.53 478.341 709.826 478.51C710.122 478.678 710.466 478.763 710.858 478.763C711.118 478.763 711.353 478.726 711.562 478.653C711.777 478.576 711.961 478.464 712.116 478.318C712.271 478.168 712.387 477.986 712.465 477.771L714.099 478.106C713.976 478.517 713.766 478.877 713.47 479.187C713.174 479.492 712.802 479.731 712.355 479.904C711.913 480.073 711.408 480.157 710.838 480.157ZM718.638 480.157C718.05 480.157 717.53 480.073 717.079 479.904C716.628 479.736 716.257 479.49 715.965 479.166C715.678 478.842 715.491 478.451 715.404 477.99L717.065 477.676C717.17 478.054 717.355 478.337 717.619 478.523C717.888 478.706 718.239 478.797 718.672 478.797C719.109 478.797 719.456 478.71 719.711 478.537C719.971 478.359 720.101 478.141 720.101 477.881C720.101 477.662 720.016 477.482 719.848 477.341C719.679 477.195 719.419 477.083 719.068 477.006L717.763 476.726C717.043 476.571 716.505 476.315 716.149 475.96C715.794 475.604 715.616 475.146 715.616 474.586C715.616 474.112 715.746 473.702 716.006 473.355C716.266 473.009 716.626 472.74 717.086 472.549C717.551 472.357 718.089 472.262 718.699 472.262C719.278 472.262 719.775 472.344 720.189 472.508C720.609 472.672 720.946 472.902 721.201 473.198C721.461 473.49 721.641 473.834 721.741 474.23L720.155 474.545C720.069 474.276 719.911 474.05 719.684 473.868C719.456 473.681 719.134 473.588 718.72 473.588C718.341 473.588 718.025 473.672 717.77 473.841C717.519 474.005 717.394 474.217 717.394 474.477C717.394 474.7 717.478 474.884 717.646 475.03C717.815 475.176 718.093 475.29 718.48 475.372L719.779 475.646C720.504 475.8 721.042 476.049 721.393 476.391C721.743 476.732 721.919 477.172 721.919 477.71C721.919 478.193 721.78 478.619 721.502 478.988C721.224 479.353 720.837 479.64 720.34 479.85C719.848 480.055 719.28 480.157 718.638 480.157Z" fill="#151515"></path>
</g>
<rect x="468" y="90" width="286" height="420" rx="3" stroke="black" stroke-opacity="0.11" stroke-width="2"></rect>
<path d="M353.5 231L413.689 265.75V335.25L353.5 370L293.311 335.25V265.75L353.5 231Z" fill="#97BFA9"></path>
<path d="M366.62 347.74C363.808 347.74 361.431 345.828 360.716 343.24H353.12C329.895 343.24 311 324.344 311 301.12C311 277.896 329.895 259 353.12 259C376.344 259 395.24 277.896 395.24 301.12C395.24 312.365 390.857 322.945 382.906 330.905L380.61 328.61C387.954 321.266 391.996 311.501 391.996 301.12C391.996 279.682 374.553 262.24 353.115 262.24C331.677 262.24 314.236 279.682 314.236 301.12C314.236 322.558 331.677 340 353.115 340H360.711C361.422 337.413 363.803 335.5 366.616 335.5C369.991 335.5 372.735 338.245 372.735 341.62C372.735 344.995 369.995 347.74 366.62 347.74ZM366.62 338.74C365.032 338.74 363.74 340.032 363.74 341.62C363.74 343.209 365.032 344.5 366.62 344.5C368.209 344.5 369.5 343.209 369.5 341.62C369.5 340.032 368.209 338.74 366.62 338.74ZM358.444 329.74H347.801C346.905 329.74 346.181 329.016 346.181 328.12V322.225L343.116 320.947L338.94 325.123C338.639 325.425 338.225 325.595 337.798 325.595C337.366 325.595 336.956 325.425 336.654 325.123L329.13 317.594C328.496 316.96 328.496 315.934 329.13 315.299L333.298 311.132L332.037 308.059H326.12C325.224 308.059 324.5 307.334 324.5 306.439V295.792C324.5 294.897 325.224 294.172 326.12 294.172H332.011L333.293 291.108L329.121 286.932C328.487 286.297 328.487 285.276 329.121 284.641L336.646 277.113C337.253 276.501 338.328 276.501 338.936 277.113L343.103 281.279L346.181 280.02V274.12C346.181 273.225 346.905 272.5 347.801 272.5H358.444C359.339 272.5 360.063 273.225 360.063 274.12V280.011L363.128 281.293L367.304 277.117C367.939 276.483 368.965 276.483 369.599 277.117L377.127 284.646C377.762 285.28 377.762 286.301 377.127 286.936L372.961 291.103L374.22 294.176H380.12C381.016 294.176 381.74 294.901 381.74 295.797V306.443C381.74 307.339 381.016 308.063 380.12 308.063H374.225L372.947 311.128L377.123 315.304C377.758 315.939 377.758 316.965 377.123 317.599L369.594 325.127C369.293 325.429 368.879 325.6 368.447 325.6C368.015 325.6 367.601 325.429 367.299 325.127L363.137 320.956L360.059 322.216V328.12C360.063 329.016 359.339 329.74 358.444 329.74ZM349.417 326.5H356.823V321.131C356.823 320.474 357.219 319.885 357.827 319.633L362.907 317.549C363.51 317.293 364.208 317.446 364.671 317.9L368.452 321.689L373.689 316.451L369.887 312.653C369.424 312.185 369.284 311.488 369.541 310.88L371.66 305.818C371.912 305.215 372.502 304.823 373.154 304.823H378.5V297.417H373.136C372.479 297.417 371.89 297.021 371.638 296.413L369.554 291.337C369.307 290.734 369.446 290.037 369.905 289.578L373.689 285.793L368.452 280.555L364.653 284.353C364.185 284.817 363.484 284.961 362.881 284.704L357.818 282.585C357.215 282.333 356.823 281.743 356.823 281.09V275.74H349.417V281.109C349.417 281.766 349.021 282.36 348.413 282.607L343.337 284.691C342.725 284.934 342.037 284.794 341.578 284.335L337.793 280.555L332.555 285.793L336.353 289.591C336.821 290.054 336.956 290.756 336.704 291.364L334.584 296.426C334.332 297.029 333.743 297.421 333.09 297.421H327.74V304.828H333.113C333.77 304.828 334.364 305.224 334.612 305.832L336.69 310.907C336.938 311.515 336.798 312.203 336.339 312.671L332.555 316.456L337.793 321.694L341.591 317.891C342.054 317.428 342.752 317.288 343.364 317.545L348.426 319.665C349.029 319.917 349.421 320.506 349.421 321.158L349.417 326.5ZM353.12 309.49C348.507 309.49 344.75 305.732 344.75 301.12C344.75 296.508 348.503 292.75 353.12 292.75C357.737 292.75 361.49 296.503 361.49 301.12C361.49 305.737 357.732 309.49 353.12 309.49ZM353.12 295.99C350.294 295.99 347.99 298.294 347.99 301.12C347.99 303.946 350.294 306.25 353.12 306.25C355.946 306.25 358.25 303.95 358.25 301.12C358.25 298.29 355.946 295.99 353.12 295.99Z" fill="black"></path>
<rect x="47" y="225" width="192" height="151" rx="2" fill="#F6F6F2"></rect>
<rect x="47" y="225" width="192" height="151" rx="2" stroke="#E3E3E3" stroke-width="2"></rect>
<rect x="62" y="240" width="32" height="4" fill="#E3E3E3"></rect>
<rect x="98" y="240" width="16" height="4" fill="#E3E3E3"></rect>
<rect x="118" y="240" width="16" height="4" fill="#E3E3E3"></rect>
<rect x="152" y="240" width="32" height="4" fill="#E3E3E3"></rect>
<rect x="188" y="240" width="16" height="4" fill="#E3E3E3"></rect>
<rect x="208" y="240" width="16" height="4" fill="#E3E3E3"></rect>
<rect x="62" y="253" width="32" height="4" fill="#E3E3E3"></rect>
<rect x="98" y="253" width="16" height="4" fill="#E3E3E3"></rect>
<rect x="118" y="253" width="16" height="4" fill="#E3E3E3"></rect>
<rect x="152" y="253" width="32" height="4" fill="#E3E3E3"></rect>
<rect x="188" y="253" width="16" height="4" fill="#E3E3E3"></rect>
<rect x="208" y="253" width="16" height="4" fill="#E3E3E3"></rect>
<rect x="62" y="266" width="32" height="4" fill="#E3E3E3"></rect>
<rect x="98" y="266" width="16" height="4" fill="#E3E3E3"></rect>
<rect x="118" y="266" width="16" height="4" fill="#E3E3E3"></rect>
<rect x="152" y="266" width="32" height="4" fill="#E3E3E3"></rect>
<rect x="188" y="266" width="16" height="4" fill="#E3E3E3"></rect>
<rect x="208" y="266" width="16" height="4" fill="#E3E3E3"></rect>
<rect x="62" y="279" width="32" height="4" fill="#E3E3E3"></rect>
<rect x="98" y="279" width="16" height="4" fill="#E3E3E3"></rect>
<rect x="118" y="279" width="16" height="4" fill="#E3E3E3"></rect>
<rect x="152" y="279" width="32" height="4" fill="#E3E3E3"></rect>
<rect x="188" y="279" width="16" height="4" fill="#E3E3E3"></rect>
<rect x="208" y="279" width="16" height="4" fill="#E3E3E3"></rect>
<rect x="62" y="292" width="32" height="4" fill="#E3E3E3"></rect>
<rect x="98" y="292" width="16" height="4" fill="#E3E3E3"></rect>
<rect x="118" y="292" width="16" height="4" fill="#E3E3E3"></rect>
<rect x="152" y="292" width="32" height="4" fill="#E3E3E3"></rect>
<rect x="188" y="292" width="16" height="4" fill="#E3E3E3"></rect>
<rect x="208" y="292" width="16" height="4" fill="#E3E3E3"></rect>
<rect x="62" y="305" width="32" height="4" fill="#E3E3E3"></rect>
<rect x="98" y="305" width="16" height="4" fill="#E3E3E3"></rect>
<rect x="118" y="305" width="16" height="4" fill="#E3E3E3"></rect>
<rect x="152" y="305" width="32" height="4" fill="#E3E3E3"></rect>
<rect x="188" y="305" width="16" height="4" fill="#E3E3E3"></rect>
<rect x="208" y="305" width="16" height="4" fill="#E3E3E3"></rect>
<rect x="62" y="318" width="32" height="4" fill="#E3E3E3"></rect>
<rect x="98" y="318" width="16" height="4" fill="#E3E3E3"></rect>
<rect x="118" y="318" width="16" height="4" fill="#E3E3E3"></rect>
<rect x="152" y="318" width="32" height="4" fill="#E3E3E3"></rect>
<rect x="188" y="318" width="16" height="4" fill="#E3E3E3"></rect>
<rect x="208" y="318" width="16" height="4" fill="#E3E3E3"></rect>
<rect x="62" y="331" width="32" height="4" fill="#E3E3E3"></rect>
<rect x="98" y="331" width="16" height="4" fill="#E3E3E3"></rect>
<rect x="118" y="331" width="16" height="4" fill="#E3E3E3"></rect>
<rect x="152" y="331" width="32" height="4" fill="#E3E3E3"></rect>
<rect x="188" y="331" width="16" height="4" fill="#E3E3E3"></rect>
<rect x="208" y="331" width="16" height="4" fill="#E3E3E3"></rect>
<rect x="62" y="344" width="32" height="4" fill="#E3E3E3"></rect>
<rect x="98" y="344" width="16" height="4" fill="#E3E3E3"></rect>
<rect x="118" y="344" width="16" height="4" fill="#E3E3E3"></rect>
<rect x="152" y="344" width="32" height="4" fill="#E3E3E3"></rect>
<rect x="188" y="344" width="16" height="4" fill="#E3E3E3"></rect>
<rect x="208" y="344" width="16" height="4" fill="#E3E3E3"></rect>
<rect x="62" y="357" width="32" height="4" fill="#E3E3E3"></rect>
<rect x="98" y="357" width="16" height="4" fill="#E3E3E3"></rect>
<rect x="118" y="357" width="16" height="4" fill="#E3E3E3"></rect>
<rect x="152" y="357" width="32" height="4" fill="#E3E3E3"></rect>
<rect x="188" y="357" width="16" height="4" fill="#E3E3E3"></rect>
<rect x="208" y="357" width="16" height="4" fill="#E3E3E3"></rect>
<defs>
<linearGradient id="paint0_linear_247_24828" x1="288" y1="5.22703" x2="7.13606e-06" y2="5.23309" gradientUnits="userSpaceOnUse">
<stop stop-color="#FFA8CD"></stop>
<stop offset="0.33" stop-color="#FFBE5D"></stop>
<stop offset="0.66" stop-color="#97BFA9"></stop>
<stop offset="1" stop-color="#A4A0FF"></stop>
</linearGradient>
<clipPath id="clip0_247_24828">
<rect x="467" y="89" width="288" height="422" rx="4" fill="white"></rect>
</clipPath>
</defs>
</svg>
